<?xml version="1.0" encoding="utf-8"?>
<!-- Generator: Adobe Illustrator 24.3.0, SVG Export Plug-In . SVG Version: 6.00 Build 0)  -->
<svg version="1.1" id="Layer_1" xmlns="http://www.w3.org/2000/svg" xmlns:xlink="http://www.w3.org/1999/xlink" x="0px" y="0px"
	 width="2000px" height="1762.19px" viewBox="0 0 2000 1762.19" style="enable-background:new 0 0 2000 1762.19;"
	 xml:space="preserve">
<path id="background" style="fill:#FFFFFF;" d="M1900.32,206.49v13.47v38.49v1236.37h-42.34h-110.85v-11.9h-8.98
	c-0.29,98.81-80.72,179.17-179.6,179.27c0,0,0,0,0,0c-0.33,0-0.6-0.25-0.64-0.57c0-0.03-0.02-0.05-0.02-0.08c0,0,0,0,0,0s0,0,0,0
	v-178.62h-8.97v14.81H1321.1H256.93v36.59h-38.49h-12.82c0,0,0,0,0,0c0,0.03-0.01,0.06-0.02,0.09c-0.01,0.05-0.01,0.1-0.03,0.15
	c-0.02,0.04-0.04,0.07-0.07,0.11c-0.02,0.03-0.04,0.07-0.07,0.1c-0.04,0.04-0.09,0.07-0.14,0.1c-0.02,0.01-0.04,0.03-0.06,0.04
	c0,0,0,0-0.01,0c-0.08,0.03-0.16,0.06-0.26,0.06c0,0,0,0-0.01,0c0,0,0,0,0,0c0,0,0,0,0,0H100.32c0,0,0,0,0,0c0,0,0,0,0,0
	c0,0,0,0-0.01,0c-0.09,0-0.18-0.02-0.26-0.06c0,0,0,0-0.01,0c-0.02-0.01-0.04-0.03-0.06-0.04c-0.05-0.03-0.1-0.06-0.14-0.1
	c-0.03-0.03-0.05-0.07-0.07-0.1c-0.02-0.04-0.05-0.07-0.07-0.11c-0.02-0.05-0.02-0.1-0.03-0.15c0-0.03-0.02-0.06-0.02-0.09V1303.4
	c0-0.03,0.01-0.06,0.02-0.09c0.01-0.05,0.01-0.1,0.03-0.15c0.02-0.04,0.04-0.07,0.07-0.11c0.02-0.03,0.04-0.07,0.07-0.1
	c0.04-0.04,0.09-0.07,0.14-0.1c0.02-0.01,0.04-0.03,0.06-0.04c0,0,0,0,0.01,0c0.04-0.02,0.09-0.02,0.14-0.03
	c0.04-0.01,0.08-0.02,0.11-0.02c0,0,0.01,0,0.01,0h104V956.99c0-0.36,0.29-0.65,0.65-0.65V537.48V258.45v-38.49v-13.47h42.36h418.84
	c0-0.36,0.29-0.65,0.65-0.65h346.37c0.36,0,0.65,0.29,0.65,0.65h116.01V158.8h0.02v-58.15c0,0,0-0.01,0-0.01
	c0-0.04,0.01-0.07,0.02-0.11c0.01-0.05,0.01-0.1,0.03-0.15c0,0,0,0,0-0.01c0.01-0.02,0.03-0.04,0.04-0.06
	c0.03-0.05,0.06-0.1,0.1-0.14c0.03-0.03,0.07-0.04,0.1-0.07c0.04-0.02,0.07-0.05,0.11-0.07c0.05-0.02,0.1-0.02,0.15-0.03
	c0.03,0,0.06-0.02,0.09-0.02h0.02c0,0,0,0,0,0h230.89c0,0,0,0,0,0h0.02c0.03,0,0.05,0.01,0.08,0.02c0.05,0.01,0.11,0.01,0.16,0.03
	c0.04,0.02,0.07,0.04,0.11,0.07c0.03,0.02,0.07,0.04,0.1,0.07c0.04,0.04,0.07,0.09,0.1,0.14c0.01,0.02,0.03,0.04,0.04,0.06
	c0,0,0,0,0,0.01c0.02,0.05,0.02,0.1,0.03,0.15c0.01,0.04,0.02,0.07,0.02,0.11c0,0,0,0.01,0,0.01v58.15v46.5v0.54h343.88
	c0.36,0,0.65,0.29,0.65,0.65H1900.32z"/>
<g id="h2">
	<path id="h2_path" style="fill:none;" d="M1529.79,1096.74h351.48V1467h-351.48V1096.74z"/>
	<text id="h2_text" transform="matrix(1 0 0 1 1691.907 1374.3755)" style="font-family:'GraphikLCG-Regular'; font-size:40px;"></text>
</g>
<g id="h1">
	<path id="h1_path" style="fill:none;" d="M837.45,851.12h392.86v245.63H837.45V851.12z"/>
	<text id="h1_text" transform="matrix(1 0 0 1 987.9391 993.823)" style="font-family:'GraphikLCG-Regular'; font-size:40px;"></text>
</g>
<g id="c1">
	<path id="c1_path" style="fill:none;" d="M1881.26,206.49v654.12v236.14h-650.95V851.12h-116.14V206.49H1881.26z"/>
	<text id="c1_text" transform="matrix(1 0 0 1 1520.6472 550.7928)" style="font-family:'GraphikLCG-Regular'; font-size:40px;"></text>
</g>
<g id="s2">
	<path id="s2_path" style="fill:none;" d="M969.32,1096.74h352.74V1467H969.32V1096.74z"/>
	<text id="s2_text" transform="matrix(1 0 0 1 1147.1406 1209.1644)" style="font-family:'GraphikLCG-Regular'; font-size:40px;"></text>
</g>
<g id="s1">
	<path id="s1_path" style="fill:none;" d="M1529.79,1467h-207.73v-370.26h207.73V1467z"/>
	<text id="s1_text" transform="matrix(1 0 0 1 1470.118 1209.1644)" style="font-family:'GraphikLCG-Regular'; font-size:40px;"></text>
</g>
<g id="r2">
	<path id="r2_path" style="fill:none;" d="M204.97,206.49h909.2v644.63h-909.2V206.49z"/>
	<text id="r2_text" transform="matrix(1 0 0 1 599.7232 550.7928)" style="font-family:'GraphikLCG-Regular'; font-size:40px;"></text>
</g>
<g id="r1">
	<path id="r1_path" style="fill:none;" d="M969.32,1096.74V1467H204.97v-363.74V851.12h632.48v245.63H969.32z"/>
	<text id="r1_text" transform="matrix(1 0 0 1 599.7232 1188.4263)" style="font-family:'GraphikLCG-Regular'; font-size:40px;"></text>
</g>
<g id="floor">
	<g>
		<g>
			<g id="LWPOLYLINE_707_">
				
					<rect x="1760.01" y="1107.4" style="fill:none;stroke:#000000;stroke-width:1.3;stroke-linecap:round;stroke-linejoin:round;stroke-miterlimit:10;" width="93.81" height="27.17"/>
			</g>
			<g id="LWPOLYLINE_706_">
				
					<polyline style="fill:none;stroke:#000000;stroke-width:1.3;stroke-linecap:round;stroke-linejoin:round;stroke-miterlimit:10;" points="
					1760.01,1107.4 1776.78,1129.91 1853.81,1134.57 				"/>
			</g>
		</g>
	</g>
	<g id="LINE_342_">
		
			<line style="fill:none;stroke:#000000;stroke-width:1.3;stroke-linecap:round;stroke-linejoin:round;stroke-miterlimit:10;" x1="1130.53" y1="100.65" x2="1361.45" y2="100.65"/>
	</g>
	<g id="LINE_341_">
		
			<line style="fill:none;stroke:#000000;stroke-width:1.3;stroke-linecap:round;stroke-linejoin:round;stroke-miterlimit:10;" x1="1361.45" y1="100.65" x2="1361.45" y2="205.3"/>
	</g>
	<g id="LINE_340_">
		
			<line style="fill:none;stroke:#000000;stroke-width:1.3;stroke-linecap:round;stroke-linejoin:round;stroke-miterlimit:10;" x1="1130.53" y1="205.3" x2="1130.53" y2="100.65"/>
	</g>
	<g id="LWPOLYLINE_703_">
		
			<line style="fill:none;stroke:#000000;stroke-width:1.3;stroke-linecap:round;stroke-linejoin:round;stroke-miterlimit:10;" x1="1361.45" y1="205.3" x2="1130.53" y2="100.65"/>
	</g>
	<g id="LWPOLYLINE_702_">
		
			<line style="fill:none;stroke:#000000;stroke-width:1.3;stroke-linecap:round;stroke-linejoin:round;stroke-miterlimit:10;" x1="1130.53" y1="205.3" x2="1361.45" y2="100.65"/>
	</g>
	<g id="LINE_331_">
		
			<line style="fill:none;stroke:#000000;stroke-width:1.3;stroke-linecap:round;stroke-linejoin:round;stroke-miterlimit:10;" x1="100.32" y1="1534.32" x2="100.32" y2="1303.4"/>
	</g>
	<g id="LINE_330_">
		
			<line style="fill:none;stroke:#000000;stroke-width:1.3;stroke-linecap:round;stroke-linejoin:round;stroke-miterlimit:10;" x1="100.32" y1="1303.4" x2="204.97" y2="1303.4"/>
	</g>
	<g id="LINE_329_">
		
			<line style="fill:none;stroke:#000000;stroke-width:1.3;stroke-linecap:round;stroke-linejoin:round;stroke-miterlimit:10;" x1="204.97" y1="1534.32" x2="100.32" y2="1534.32"/>
	</g>
	<g id="LWPOLYLINE_695_">
		
			<line style="fill:none;stroke:#000000;stroke-width:1.3;stroke-linecap:round;stroke-linejoin:round;stroke-miterlimit:10;" x1="204.97" y1="1303.4" x2="100.32" y2="1534.32"/>
	</g>
	<g id="LWPOLYLINE_694_">
		
			<line style="fill:none;stroke:#000000;stroke-width:1.3;stroke-linecap:round;stroke-linejoin:round;stroke-miterlimit:10;" x1="204.97" y1="1534.32" x2="100.32" y2="1303.4"/>
	</g>
	<g id="LWPOLYLINE_689_">
		
			<rect x="1208.66" y="1089.05" style="fill:none;stroke:#000000;stroke-width:1.3;stroke-linecap:round;stroke-linejoin:round;stroke-miterlimit:10;" width="9.62" height="15.39"/>
	</g>
	<g id="LWPOLYLINE_688_">
		
			<rect x="1064.33" y="1089.04" style="fill:none;stroke:#000000;stroke-width:1.3;stroke-linecap:round;stroke-linejoin:round;stroke-miterlimit:10;" width="9.62" height="15.39"/>
	</g>
	<g id="LINE_320_">
		
			<line style="fill:none;stroke:#000000;stroke-width:1.3;stroke-linecap:round;stroke-linejoin:round;stroke-miterlimit:10;" x1="1218.28" y1="1089.05" x2="1218.28" y2="1104.44"/>
	</g>
	<g id="LINE_319_">
		
			<line style="fill:none;stroke:#000000;stroke-width:1.3;stroke-linecap:round;stroke-linejoin:round;stroke-miterlimit:10;" x1="1064.33" y1="1089.04" x2="1064.33" y2="1104.44"/>
	</g>
	<g id="LINE_318_">
		
			<line style="fill:none;stroke:#000000;stroke-width:1.3;stroke-linecap:round;stroke-linejoin:round;stroke-miterlimit:10;" x1="1208.66" y1="1089.05" x2="1208.66" y2="954.34"/>
	</g>
	<g id="ARC_18_">
		<path style="fill:none;stroke:#000000;stroke-width:1.3;stroke-linecap:round;stroke-linejoin:round;stroke-miterlimit:10;" d="
			M1073.96,1089.05c0.05-72.15,56.85-131.5,128.93-134.7"/>
	</g>
	<g id="LINE_317_">
		
			<line style="fill:none;stroke:#000000;stroke-width:1.3;stroke-linecap:round;stroke-linejoin:round;stroke-miterlimit:10;" x1="1208.66" y1="954.34" x2="1202.89" y2="954.34"/>
	</g>
	<g id="LWPOLYLINE_687_">
		
			<rect x="1522.09" y="1259.59" style="fill:none;stroke:#000000;stroke-width:1.3;stroke-linecap:round;stroke-linejoin:round;stroke-miterlimit:10;" width="15.39" height="9.62"/>
	</g>
	<g id="LWPOLYLINE_686_">
		
			<rect x="1522.09" y="1115.26" style="fill:none;stroke:#000000;stroke-width:1.3;stroke-linecap:round;stroke-linejoin:round;stroke-miterlimit:10;" width="15.39" height="9.62"/>
	</g>
	<g id="LINE_316_">
		
			<line style="fill:none;stroke:#000000;stroke-width:1.3;stroke-linecap:round;stroke-linejoin:round;stroke-miterlimit:10;" x1="1537.48" y1="1269.21" x2="1522.09" y2="1269.21"/>
	</g>
	<g id="LINE_315_">
		
			<line style="fill:none;stroke:#000000;stroke-width:1.3;stroke-linecap:round;stroke-linejoin:round;stroke-miterlimit:10;" x1="1537.48" y1="1115.26" x2="1522.09" y2="1115.26"/>
	</g>
	<g id="LINE_314_">
		
			<line style="fill:none;stroke:#000000;stroke-width:1.3;stroke-linecap:round;stroke-linejoin:round;stroke-miterlimit:10;" x1="1537.48" y1="1259.59" x2="1672.19" y2="1259.59"/>
	</g>
	<g id="ARC_17_">
		<path style="fill:none;stroke:#000000;stroke-width:1.3;stroke-linecap:round;stroke-linejoin:round;stroke-miterlimit:10;" d="
			M1537.48,1124.89c72.15,0.05,131.5,56.85,134.7,128.93"/>
	</g>
	<g id="LINE_313_">
		
			<line style="fill:none;stroke:#000000;stroke-width:1.3;stroke-linecap:round;stroke-linejoin:round;stroke-miterlimit:10;" x1="1672.19" y1="1259.59" x2="1672.19" y2="1253.82"/>
	</g>
	<g id="LWPOLYLINE_683_">
		
			<rect x="829.76" y="907.63" style="fill:none;stroke:#000000;stroke-width:1.3;stroke-linecap:round;stroke-linejoin:round;stroke-miterlimit:10;" width="15.39" height="9.62"/>
	</g>
	<g id="LWPOLYLINE_682_">
		
			<rect x="829.76" y="1071.19" style="fill:none;stroke:#000000;stroke-width:1.3;stroke-linecap:round;stroke-linejoin:round;stroke-miterlimit:10;" width="15.39" height="9.62"/>
	</g>
	<g id="LINE_308_">
		
			<line style="fill:none;stroke:#000000;stroke-width:1.3;stroke-linecap:round;stroke-linejoin:round;stroke-miterlimit:10;" x1="829.76" y1="907.63" x2="845.15" y2="907.63"/>
	</g>
	<g id="LINE_307_">
		
			<line style="fill:none;stroke:#000000;stroke-width:1.3;stroke-linecap:round;stroke-linejoin:round;stroke-miterlimit:10;" x1="829.76" y1="1080.82" x2="845.15" y2="1080.82"/>
	</g>
	<g id="LINE_306_">
		
			<line style="fill:none;stroke:#000000;stroke-width:1.3;stroke-linecap:round;stroke-linejoin:round;stroke-miterlimit:10;" x1="829.76" y1="917.25" x2="675.81" y2="917.25"/>
	</g>
	<g id="LINE_305_">
		
			<line style="fill:none;stroke:#000000;stroke-width:1.3;stroke-linecap:round;stroke-linejoin:round;stroke-miterlimit:10;" x1="675.81" y1="923.02" x2="675.81" y2="917.25"/>
	</g>
	<g id="ARC_15_">
		<path style="fill:none;stroke:#000000;stroke-width:1.3;stroke-linecap:round;stroke-linejoin:round;stroke-miterlimit:10;" d="
			M829.76,1071.19c-82.78-0.04-150.74-65.46-153.95-148.18"/>
	</g>
	<g id="LWPOLYLINE_681_">
		
			<rect x="1078.77" y="843.42" style="fill:none;stroke:#000000;stroke-width:1.3;stroke-linecap:round;stroke-linejoin:round;stroke-miterlimit:10;" width="9.62" height="15.39"/>
	</g>
	<g id="LWPOLYLINE_680_">
		
			<rect x="915.2" y="843.45" style="fill:none;stroke:#000000;stroke-width:1.3;stroke-linecap:round;stroke-linejoin:round;stroke-miterlimit:10;" width="9.62" height="15.39"/>
	</g>
	<g id="LINE_304_">
		
			<line style="fill:none;stroke:#000000;stroke-width:1.3;stroke-linecap:round;stroke-linejoin:round;stroke-miterlimit:10;" x1="1088.39" y1="843.42" x2="1088.39" y2="858.81"/>
	</g>
	<g id="LINE_303_">
		
			<line style="fill:none;stroke:#000000;stroke-width:1.3;stroke-linecap:round;stroke-linejoin:round;stroke-miterlimit:10;" x1="915.2" y1="843.45" x2="915.2" y2="858.84"/>
	</g>
	<g id="LINE_302_">
		
			<line style="fill:none;stroke:#000000;stroke-width:1.3;stroke-linecap:round;stroke-linejoin:round;stroke-miterlimit:10;" x1="1078.76" y1="843.42" x2="1078.74" y2="689.47"/>
	</g>
	<g id="LINE_301_">
		
			<line style="fill:none;stroke:#000000;stroke-width:1.3;stroke-linecap:round;stroke-linejoin:round;stroke-miterlimit:10;" x1="1072.96" y1="689.47" x2="1078.74" y2="689.47"/>
	</g>
	<g id="ARC_14_">
		<path style="fill:none;stroke:#000000;stroke-width:1.3;stroke-linecap:round;stroke-linejoin:round;stroke-miterlimit:10;" d="
			M924.82,843.45c0.03-82.78,65.43-150.76,148.15-153.97"/>
	</g>
	<g id="LINE_300_">
		
			<line style="fill:none;stroke:#000000;stroke-width:1.3;stroke-linecap:round;stroke-linejoin:round;stroke-miterlimit:10;" x1="1558.55" y1="1482.27" x2="1558.55" y2="1661.54"/>
	</g>
	<g id="LWPOLYLINE_679_">
		
			<rect x="1737.52" y="1467" style="fill:none;stroke:#000000;stroke-width:1.3;stroke-linecap:round;stroke-linejoin:round;stroke-miterlimit:10;" width="9.62" height="15.26"/>
	</g>
	<g id="ARC_13_">
		<path style="fill:none;stroke:#000000;stroke-width:1.3;stroke-linecap:round;stroke-linejoin:round;stroke-miterlimit:10;" d="
			M1737.52,1482.27c0.07,98.92-80.05,179.17-178.96,179.27"/>
	</g>
	<g id="LWPOLYLINE_678_">
		
			<rect x="1548.93" y="1467" style="fill:none;stroke:#000000;stroke-width:1.3;stroke-linecap:round;stroke-linejoin:round;stroke-miterlimit:10;" width="9.62" height="15.26"/>
	</g>
	<g id="LINE_298_">
		
			<line style="fill:none;stroke:#000000;stroke-width:1.3;stroke-linecap:round;stroke-linejoin:round;stroke-miterlimit:10;" x1="666.83" y1="206.49" x2="1013.2" y2="206.49"/>
	</g>
	<g id="LINE_297_">
		
			<line style="fill:none;stroke:#000000;stroke-width:1.3;stroke-linecap:round;stroke-linejoin:round;stroke-miterlimit:10;" x1="1022.79" y1="237.28" x2="846.71" y2="237.28"/>
	</g>
	<g id="LINE_296_">
		
			<line style="fill:none;stroke:#000000;stroke-width:1.3;stroke-linecap:round;stroke-linejoin:round;stroke-miterlimit:10;" x1="833.24" y1="237.28" x2="657.18" y2="237.28"/>
	</g>
	<g id="LINE_295_">
		
			<line style="fill:none;stroke:#000000;stroke-width:1.3;stroke-linecap:round;stroke-linejoin:round;stroke-miterlimit:10;" x1="666.8" y1="219.96" x2="666.8" y2="237.28"/>
	</g>
	<g id="LINE_294_">
		
			<line style="fill:none;stroke:#000000;stroke-width:1.3;stroke-linecap:round;stroke-linejoin:round;stroke-miterlimit:10;" x1="1013.17" y1="219.96" x2="1013.17" y2="237.28"/>
	</g>
	<g id="LINE_293_">
		
			<line style="fill:none;stroke:#000000;stroke-width:1.3;stroke-linecap:round;stroke-linejoin:round;stroke-miterlimit:10;" x1="1022.79" y1="219.96" x2="846.71" y2="219.96"/>
	</g>
	<g id="LINE_292_">
		
			<line style="fill:none;stroke:#000000;stroke-width:1.3;stroke-linecap:round;stroke-linejoin:round;stroke-miterlimit:10;" x1="833.24" y1="219.96" x2="657.18" y2="219.96"/>
	</g>
	<g id="LINE_291_">
		
			<line style="fill:none;stroke:#000000;stroke-width:1.3;stroke-linecap:round;stroke-linejoin:round;stroke-miterlimit:10;" x1="833.24" y1="228.14" x2="677.58" y2="228.14"/>
	</g>
	<g id="LINE_290_">
		
			<line style="fill:none;stroke:#000000;stroke-width:1.3;stroke-linecap:round;stroke-linejoin:round;stroke-miterlimit:10;" x1="1002.39" y1="228.14" x2="846.71" y2="228.14"/>
	</g>
	<g id="LINE_289_">
		
			<line style="fill:none;stroke:#000000;stroke-width:1.3;stroke-linecap:round;stroke-linejoin:round;stroke-miterlimit:10;" x1="1002.39" y1="237.28" x2="1002.39" y2="219.96"/>
	</g>
	<g id="LINE_288_">
		
			<line style="fill:none;stroke:#000000;stroke-width:1.3;stroke-linecap:round;stroke-linejoin:round;stroke-miterlimit:10;" x1="666.8" y1="219.96" x2="666.8" y2="237.28"/>
	</g>
	<g id="LINE_287_">
		
			<line style="fill:none;stroke:#000000;stroke-width:1.3;stroke-linecap:round;stroke-linejoin:round;stroke-miterlimit:10;" x1="677.58" y1="237.28" x2="677.58" y2="219.96"/>
	</g>
	<g id="LINE_286_">
		
			<line style="fill:none;stroke:#000000;stroke-width:1.3;stroke-linecap:round;stroke-linejoin:round;stroke-miterlimit:10;" x1="846.73" y1="237.28" x2="833.26" y2="237.28"/>
	</g>
	<g id="LINE_285_">
		
			<line style="fill:none;stroke:#000000;stroke-width:1.3;stroke-linecap:round;stroke-linejoin:round;stroke-miterlimit:10;" x1="833.26" y1="219.96" x2="846.73" y2="219.96"/>
	</g>
	<g id="LINE_284_">
		
			<line style="fill:none;stroke:#000000;stroke-width:1.3;stroke-linecap:round;stroke-linejoin:round;stroke-miterlimit:10;" x1="1022.82" y1="258.45" x2="657.21" y2="258.45"/>
	</g>
	<g id="LWPOLYLINE_674_">
		
			<rect x="833.24" y="219.96" style="fill:none;stroke:#000000;stroke-width:1.3;stroke-linecap:round;stroke-linejoin:round;stroke-miterlimit:10;" width="13.47" height="17.32"/>
	</g>
	<g id="LINE_283_">
		
			<line style="fill:none;stroke:#000000;stroke-width:1.3;stroke-linecap:round;stroke-linejoin:round;stroke-miterlimit:10;" x1="1359.61" y1="206.49" x2="1705.98" y2="206.49"/>
	</g>
	<g id="LINE_282_">
		
			<line style="fill:none;stroke:#000000;stroke-width:1.3;stroke-linecap:round;stroke-linejoin:round;stroke-miterlimit:10;" x1="1715.57" y1="237.28" x2="1539.49" y2="237.28"/>
	</g>
	<g id="LINE_281_">
		
			<line style="fill:none;stroke:#000000;stroke-width:1.3;stroke-linecap:round;stroke-linejoin:round;stroke-miterlimit:10;" x1="1526.02" y1="237.28" x2="1349.96" y2="237.28"/>
	</g>
	<g id="LINE_280_">
		
			<line style="fill:none;stroke:#000000;stroke-width:1.3;stroke-linecap:round;stroke-linejoin:round;stroke-miterlimit:10;" x1="1359.58" y1="219.96" x2="1359.58" y2="237.28"/>
	</g>
	<g id="LINE_279_">
		
			<line style="fill:none;stroke:#000000;stroke-width:1.3;stroke-linecap:round;stroke-linejoin:round;stroke-miterlimit:10;" x1="1705.95" y1="219.96" x2="1705.95" y2="237.28"/>
	</g>
	<g id="LINE_278_">
		
			<line style="fill:none;stroke:#000000;stroke-width:1.3;stroke-linecap:round;stroke-linejoin:round;stroke-miterlimit:10;" x1="1715.57" y1="219.96" x2="1539.49" y2="219.96"/>
	</g>
	<g id="LINE_277_">
		
			<line style="fill:none;stroke:#000000;stroke-width:1.3;stroke-linecap:round;stroke-linejoin:round;stroke-miterlimit:10;" x1="1526.02" y1="219.96" x2="1349.96" y2="219.96"/>
	</g>
	<g id="LINE_276_">
		
			<line style="fill:none;stroke:#000000;stroke-width:1.3;stroke-linecap:round;stroke-linejoin:round;stroke-miterlimit:10;" x1="1526.02" y1="228.14" x2="1370.36" y2="228.14"/>
	</g>
	<g id="LINE_275_">
		
			<line style="fill:none;stroke:#000000;stroke-width:1.3;stroke-linecap:round;stroke-linejoin:round;stroke-miterlimit:10;" x1="1695.17" y1="228.14" x2="1539.49" y2="228.14"/>
	</g>
	<g id="LINE_274_">
		
			<line style="fill:none;stroke:#000000;stroke-width:1.3;stroke-linecap:round;stroke-linejoin:round;stroke-miterlimit:10;" x1="1695.17" y1="237.28" x2="1695.17" y2="219.96"/>
	</g>
	<g id="LINE_273_">
		
			<line style="fill:none;stroke:#000000;stroke-width:1.3;stroke-linecap:round;stroke-linejoin:round;stroke-miterlimit:10;" x1="1359.58" y1="219.96" x2="1359.58" y2="237.28"/>
	</g>
	<g id="LINE_272_">
		
			<line style="fill:none;stroke:#000000;stroke-width:1.3;stroke-linecap:round;stroke-linejoin:round;stroke-miterlimit:10;" x1="1370.36" y1="237.28" x2="1370.36" y2="219.96"/>
	</g>
	<g id="LINE_271_">
		
			<line style="fill:none;stroke:#000000;stroke-width:1.3;stroke-linecap:round;stroke-linejoin:round;stroke-miterlimit:10;" x1="1539.51" y1="237.28" x2="1526.04" y2="237.28"/>
	</g>
	<g id="LINE_270_">
		
			<line style="fill:none;stroke:#000000;stroke-width:1.3;stroke-linecap:round;stroke-linejoin:round;stroke-miterlimit:10;" x1="1526.04" y1="219.96" x2="1539.51" y2="219.96"/>
	</g>
	<g id="LINE_269_">
		
			<line style="fill:none;stroke:#000000;stroke-width:1.3;stroke-linecap:round;stroke-linejoin:round;stroke-miterlimit:10;" x1="1715.6" y1="258.45" x2="1349.99" y2="258.45"/>
	</g>
	<g id="LWPOLYLINE_673_">
		
			<rect x="1526.02" y="219.96" style="fill:none;stroke:#000000;stroke-width:1.3;stroke-linecap:round;stroke-linejoin:round;stroke-miterlimit:10;" width="13.47" height="17.32"/>
	</g>
	<g id="LINE_235_">
		
			<line style="fill:none;stroke:#000000;stroke-width:1.3;stroke-linecap:round;stroke-linejoin:round;stroke-miterlimit:10;" x1="204.97" y1="1303.37" x2="204.97" y2="956.99"/>
	</g>
	<g id="LINE_234_">
		
			<line style="fill:none;stroke:#000000;stroke-width:1.3;stroke-linecap:round;stroke-linejoin:round;stroke-miterlimit:10;" x1="235.76" y1="947.39" x2="235.76" y2="1123.49"/>
	</g>
	<g id="LINE_233_">
		
			<line style="fill:none;stroke:#000000;stroke-width:1.3;stroke-linecap:round;stroke-linejoin:round;stroke-miterlimit:10;" x1="235.76" y1="1136.96" x2="235.76" y2="1313.02"/>
	</g>
	<g id="LINE_232_">
		
			<line style="fill:none;stroke:#000000;stroke-width:1.3;stroke-linecap:round;stroke-linejoin:round;stroke-miterlimit:10;" x1="218.44" y1="1303.4" x2="235.76" y2="1303.4"/>
	</g>
	<g id="LINE_231_">
		
			<line style="fill:none;stroke:#000000;stroke-width:1.3;stroke-linecap:round;stroke-linejoin:round;stroke-miterlimit:10;" x1="218.44" y1="957.02" x2="235.76" y2="957.02"/>
	</g>
	<g id="LINE_230_">
		
			<line style="fill:none;stroke:#000000;stroke-width:1.3;stroke-linecap:round;stroke-linejoin:round;stroke-miterlimit:10;" x1="218.44" y1="947.39" x2="218.44" y2="1123.49"/>
	</g>
	<g id="LINE_229_">
		
			<line style="fill:none;stroke:#000000;stroke-width:1.3;stroke-linecap:round;stroke-linejoin:round;stroke-miterlimit:10;" x1="218.44" y1="1136.96" x2="218.44" y2="1313.02"/>
	</g>
	<g id="LINE_228_">
		
			<line style="fill:none;stroke:#000000;stroke-width:1.3;stroke-linecap:round;stroke-linejoin:round;stroke-miterlimit:10;" x1="226.62" y1="1136.96" x2="226.62" y2="1292.62"/>
	</g>
	<g id="LINE_227_">
		
			<line style="fill:none;stroke:#000000;stroke-width:1.3;stroke-linecap:round;stroke-linejoin:round;stroke-miterlimit:10;" x1="226.62" y1="967.79" x2="226.62" y2="1123.49"/>
	</g>
	<g id="LINE_226_">
		
			<line style="fill:none;stroke:#000000;stroke-width:1.3;stroke-linecap:round;stroke-linejoin:round;stroke-miterlimit:10;" x1="235.76" y1="967.79" x2="218.44" y2="967.79"/>
	</g>
	<g id="LINE_225_">
		
			<line style="fill:none;stroke:#000000;stroke-width:1.3;stroke-linecap:round;stroke-linejoin:round;stroke-miterlimit:10;" x1="218.44" y1="1303.4" x2="235.76" y2="1303.4"/>
	</g>
	<g id="LINE_224_">
		
			<line style="fill:none;stroke:#000000;stroke-width:1.3;stroke-linecap:round;stroke-linejoin:round;stroke-miterlimit:10;" x1="235.76" y1="1292.62" x2="218.44" y2="1292.62"/>
	</g>
	<g id="LINE_223_">
		
			<line style="fill:none;stroke:#000000;stroke-width:1.3;stroke-linecap:round;stroke-linejoin:round;stroke-miterlimit:10;" x1="235.76" y1="1123.47" x2="235.76" y2="1136.94"/>
	</g>
	<g id="LINE_222_">
		
			<line style="fill:none;stroke:#000000;stroke-width:1.3;stroke-linecap:round;stroke-linejoin:round;stroke-miterlimit:10;" x1="218.44" y1="1136.94" x2="218.44" y2="1123.47"/>
	</g>
	<g id="LINE_221_">
		
			<line style="fill:none;stroke:#000000;stroke-width:1.3;stroke-linecap:round;stroke-linejoin:round;stroke-miterlimit:10;" x1="256.93" y1="947.36" x2="256.93" y2="1312.99"/>
	</g>
	<g id="LWPOLYLINE_670_">
		
			<rect x="218.44" y="1123.49" style="fill:none;stroke:#000000;stroke-width:1.3;stroke-linecap:round;stroke-linejoin:round;stroke-miterlimit:10;" width="17.32" height="13.47"/>
	</g>
	<g id="LINE_220_">
		<g>
			<g>
				
					<line style="fill:none;stroke:#000000;stroke-width:1.3;stroke-linecap:round;stroke-linejoin:round;" x1="1538.69" y1="1097.08" x2="1543.69" y2="1097.08"/>
				
					<line style="fill:none;stroke:#000000;stroke-width:1.3;stroke-linecap:round;stroke-linejoin:round;stroke-dasharray:10.4123,10.4123;" x1="1554.1" y1="1097.08" x2="1736.31" y2="1097.08"/>
				
					<line style="fill:none;stroke:#000000;stroke-width:1.3;stroke-linecap:round;stroke-linejoin:round;" x1="1741.52" y1="1097.08" x2="1746.52" y2="1097.08"/>
			</g>
		</g>
	</g>
	<g id="LINE_219_">
		<g>
			
				<line style="fill:none;stroke:#000000;stroke-width:1.3;stroke-linecap:round;stroke-linejoin:round;stroke-dasharray:3.902;" x1="1230.31" y1="1098.96" x2="1230.31" y2="1095.05"/>
		</g>
	</g>
	<g id="LINE_218_">
		<g>
			
				<line style="fill:none;stroke:#000000;stroke-width:1.3;stroke-linecap:round;stroke-linejoin:round;stroke-dasharray:2.6391;" x1="1230.31" y1="1094.87" x2="1230.31" y2="1092.23"/>
		</g>
	</g>
	<g id="LINE_217_">
		<g>
			
				<line style="fill:none;stroke:#000000;stroke-width:1.3;stroke-linecap:round;stroke-linejoin:round;stroke-dasharray:1.7709;" x1="1230.31" y1="1092.17" x2="1230.31" y2="1090.4"/>
		</g>
	</g>
	<g id="LINE_216_">
		<g>
			<g>
				
					<line style="fill:none;stroke:#000000;stroke-width:1.3;stroke-linecap:round;stroke-linejoin:round;" x1="1230.31" y1="1087.91" x2="1230.31" y2="1082.91"/>
				
					<line style="fill:none;stroke:#000000;stroke-width:1.3;stroke-linecap:round;stroke-linejoin:round;stroke-dasharray:9.8593,9.8593;" x1="1230.31" y1="1073.05" x2="1230.31" y2="861.08"/>
				
					<line style="fill:none;stroke:#000000;stroke-width:1.3;stroke-linecap:round;stroke-linejoin:round;" x1="1230.31" y1="856.15" x2="1230.31" y2="851.15"/>
			</g>
		</g>
	</g>
	<g id="LINE_215_">
		<g>
			<g>
				
					<line style="fill:none;stroke:#000000;stroke-width:1.3;stroke-linecap:round;stroke-linejoin:round;" x1="1230.31" y1="851.15" x2="1225.31" y2="851.15"/>
				
					<line style="fill:none;stroke:#000000;stroke-width:1.3;stroke-linecap:round;stroke-linejoin:round;stroke-dasharray:11.0444,11.0444;" x1="1214.27" y1="851.15" x2="1131.43" y2="851.15"/>
				
					<line style="fill:none;stroke:#000000;stroke-width:1.3;stroke-linecap:round;stroke-linejoin:round;" x1="1125.91" y1="851.15" x2="1120.91" y2="851.15"/>
			</g>
		</g>
	</g>
	<g id="LWPOLYLINE_651_">
		
			<rect x="1744.6" y="605.94" style="fill:none;stroke:#000000;stroke-width:1.3;stroke-linecap:round;stroke-linejoin:round;stroke-miterlimit:10;" width="113.39" height="113.39"/>
	</g>
	<g id="LWPOLYLINE_650_">
		
			<line style="fill:none;stroke:#000000;stroke-width:1.3;stroke-linecap:round;stroke-linejoin:round;stroke-miterlimit:10;" x1="1772.95" y1="653.19" x2="1772.95" y2="615.39"/>
	</g>
	<g id="LWPOLYLINE_649_">
		
			<line style="fill:none;stroke:#000000;stroke-width:1.3;stroke-linecap:round;stroke-linejoin:round;stroke-miterlimit:10;" x1="1791.85" y1="634.29" x2="1754.05" y2="634.29"/>
	</g>
	<g id="CIRCLE_22_">
		
			<circle style="fill:none;stroke:#000000;stroke-width:1.3;stroke-linecap:round;stroke-linejoin:round;stroke-miterlimit:10;" cx="1772.95" cy="634.29" r="15.12"/>
	</g>
	<g id="LWPOLYLINE_648_">
		
			<line style="fill:none;stroke:#000000;stroke-width:1.3;stroke-linecap:round;stroke-linejoin:round;stroke-miterlimit:10;" x1="1772.95" y1="709.88" x2="1772.95" y2="672.08"/>
	</g>
	<g id="LWPOLYLINE_647_">
		
			<line style="fill:none;stroke:#000000;stroke-width:1.3;stroke-linecap:round;stroke-linejoin:round;stroke-miterlimit:10;" x1="1791.85" y1="690.98" x2="1754.05" y2="690.98"/>
	</g>
	<g id="CIRCLE_21_">
		
			<circle style="fill:none;stroke:#000000;stroke-width:1.3;stroke-linecap:round;stroke-linejoin:round;stroke-miterlimit:10;" cx="1772.95" cy="690.99" r="15.13"/>
	</g>
	<g id="LWPOLYLINE_646_">
		
			<line style="fill:none;stroke:#000000;stroke-width:1.3;stroke-linecap:round;stroke-linejoin:round;stroke-miterlimit:10;" x1="1829.64" y1="709.88" x2="1829.64" y2="672.08"/>
	</g>
	<g id="LWPOLYLINE_645_">
		
			<line style="fill:none;stroke:#000000;stroke-width:1.3;stroke-linecap:round;stroke-linejoin:round;stroke-miterlimit:10;" x1="1848.54" y1="690.98" x2="1810.74" y2="690.98"/>
	</g>
	<g id="CIRCLE_20_">
		
			<circle style="fill:none;stroke:#000000;stroke-width:1.3;stroke-linecap:round;stroke-linejoin:round;stroke-miterlimit:10;" cx="1829.65" cy="690.99" r="15.13"/>
	</g>
	<g id="LWPOLYLINE_644_">
		
			<line style="fill:none;stroke:#000000;stroke-width:1.3;stroke-linecap:round;stroke-linejoin:round;stroke-miterlimit:10;" x1="1829.64" y1="653.19" x2="1829.64" y2="615.39"/>
	</g>
	<g id="LWPOLYLINE_643_">
		
			<line style="fill:none;stroke:#000000;stroke-width:1.3;stroke-linecap:round;stroke-linejoin:round;stroke-miterlimit:10;" x1="1848.54" y1="634.29" x2="1810.74" y2="634.29"/>
	</g>
	<g id="CIRCLE_19_">
		
			<circle style="fill:none;stroke:#000000;stroke-width:1.3;stroke-linecap:round;stroke-linejoin:round;stroke-miterlimit:10;" cx="1829.65" cy="634.29" r="15.12"/>
	</g>
	<g id="LWPOLYLINE_642_">
		
			<rect x="1744.6" y="976.95" style="fill:none;stroke:#000000;stroke-width:1.3;stroke-linecap:round;stroke-linejoin:round;stroke-miterlimit:10;" width="113.39" height="113.39"/>
	</g>
	<g id="LWPOLYLINE_641_">
		<path style="fill:none;stroke:#000000;stroke-width:1.3;stroke-linecap:round;stroke-linejoin:round;stroke-miterlimit:10;" d="
			M1760.66,986.4l71.77,0c0,0,0,0,0,0c3.65,0,6.61,2.96,6.61,6.61l0,81.27c0,0,0,0,0,0c0,3.65-2.96,6.62-6.62,6.61h-71.77
			c0,0,0,0,0,0c-3.65,0-6.61-2.96-6.61-6.61v-81.27C1754.05,989.36,1757.01,986.4,1760.66,986.4z"/>
	</g>
	<g id="LWPOLYLINE_640_">
		<path style="fill:none;stroke:#000000;stroke-width:1.3;stroke-linecap:round;stroke-linejoin:round;stroke-miterlimit:10;" d="
			M1814.03,1014.75C1814.03,1014.75,1814.03,1014.75,1814.03,1014.75c0-3.66,2.97-6.63,6.63-6.63c0,0,0,0,0,0
			c3.66,0,6.63,2.97,6.63,6.63c0,0,0,0,0,0c0,3.66-2.97,6.63-6.63,6.63c0,0,0,0,0,0C1817,1021.38,1814.03,1018.41,1814.03,1014.75z"
			/>
	</g>
	<g id="LWPOLYLINE_314_">
		
			<line style="fill:none;stroke:#000000;stroke-width:1.3;stroke-linecap:round;stroke-linejoin:round;stroke-miterlimit:10;" x1="1309.89" y1="1437.16" x2="1309.89" y2="1106.27"/>
	</g>
	<g id="LWPOLYLINE_313_">
		
			<rect x="1219.18" y="1149.47" style="fill:none;stroke:#000000;stroke-width:1.3;stroke-linecap:round;stroke-linejoin:round;stroke-miterlimit:10;" width="90.71" height="113.45"/>
	</g>
	<g id="LWPOLYLINE_312_">
		
			<polyline style="fill:none;stroke:#000000;stroke-width:1.3;stroke-linecap:round;stroke-linejoin:round;stroke-miterlimit:10;" points="
			1235.18,1245.07 1280.3,1206.19 1249.67,1206.19 1294.79,1167.31 		"/>
	</g>
	<g id="LWPOLYLINE_311_">
		<path style="fill:none;stroke:#000000;stroke-width:1.3;stroke-linecap:round;stroke-linejoin:round;stroke-miterlimit:10;" d="
			M1230.95,1206.19c0-18.79,15.24-34.03,34.03-34.03c18.8,0,34.03,15.24,34.04,34.03c0,18.8-15.24,34.04-34.04,34.04
			C1246.19,1240.22,1230.95,1224.98,1230.95,1206.19z"/>
	</g>
	<g id="LWPOLYLINE_310_">
		
			<line style="fill:none;stroke:#000000;stroke-width:1.3;stroke-linecap:round;stroke-linejoin:round;stroke-miterlimit:10;" x1="982.84" y1="1259.26" x2="982.84" y2="1146.95"/>
	</g>
	<g id="LWPOLYLINE_309_">
		<path style="fill:none;stroke:#000000;stroke-width:1.3;stroke-linecap:round;stroke-linejoin:round;stroke-miterlimit:10;" d="
			M982.84,1146.95l57.69,0c8.13,0,15.32,5.24,17.82,12.98c9.04,28.07,9.04,58.28,0,86.35c-2.49,7.73-9.69,12.98-17.82,12.98h-57.69"
			/>
	</g>
	<g id="LWPOLYLINE_308_">
		<path style="fill:none;stroke:#000000;stroke-width:1.3;stroke-linecap:round;stroke-linejoin:round;stroke-miterlimit:10;" d="
			M998.99,1233.06c0,6.2,5.03,11.23,11.23,11.23h17.98c4.11,0,7.74-2.68,8.95-6.62c6.9-22.53,6.9-46.6,0-69.13
			c-1.21-3.93-4.84-6.61-8.95-6.62h-17.98c-6.2,0-11.23,5.03-11.23,11.23"/>
	</g>
	<g id="LWPOLYLINE_307_">
		<path style="fill:none;stroke:#000000;stroke-width:1.3;stroke-linecap:round;stroke-linejoin:round;stroke-miterlimit:10;" d="
			M1010.22,1154.44l30.31,0c4.88,0,9.2,3.14,10.69,7.78c8.56,26.58,8.56,55.18,0,81.76c-1.5,4.64-5.82,7.78-10.69,7.79h-30.32
			c-6.2,0-11.23-5.03-11.23-11.23v-74.88C998.99,1159.46,1004.02,1154.43,1010.22,1154.44z"/>
	</g>
	<g id="LWPOLYLINE_306_">
		<path style="fill:none;stroke:#000000;stroke-width:1.3;stroke-linecap:round;stroke-linejoin:round;stroke-miterlimit:10;" d="
			M1002.33,1203.11c0-2.78,2.25-5.04,5.04-5.04c2.78,0,5.04,2.26,5.04,5.04c0,0,0,0,0,0c0,2.78-2.25,5.04-5.04,5.04c0,0,0,0,0,0
			C1004.59,1208.14,1002.33,1205.89,1002.33,1203.11z"/>
	</g>
	<g id="LWPOLYLINE_305_">
		
			<rect x="982.84" y="1302.49" style="fill:none;stroke:#000000;stroke-width:1.3;stroke-linecap:round;stroke-linejoin:round;stroke-miterlimit:10;" width="327.04" height="134.66"/>
	</g>
	<g id="LWPOLYLINE_304_">
		<path style="fill:none;stroke:#000000;stroke-width:1.3;stroke-linecap:round;stroke-linejoin:round;stroke-miterlimit:10;" d="
			M1264.49,1426.38h-213.52c-31.23,0-56.55-25.32-56.55-56.55c0-31.24,25.32-56.56,56.55-56.56h213.52c14.93,0,27.08,12,27.25,26.93
			v59.25c0,14.88-12.06,26.93-26.93,26.93"/>
	</g>
	<g id="SPLINE_4_">
		<path style="fill:none;stroke:#000000;stroke-width:1.3;stroke-linecap:round;stroke-linejoin:round;stroke-miterlimit:10;" d="
			M1264.81,1426.38c-0.11,0-0.21,0-0.32,0"/>
	</g>
	<g id="LWPOLYLINE_303_">
		<path style="fill:none;stroke:#000000;stroke-width:1.3;stroke-linecap:round;stroke-linejoin:round;stroke-miterlimit:10;" d="
			M1197.25,1410.99h-146.28c0,0,0,0-0.01,0c-22.74,0-41.17-18.43-41.17-41.17c0-22.74,18.43-41.17,41.17-41.17h144.16
			c21.9,0.02,39.97,17.17,41.11,39.04C1237.42,1390.42,1219.97,1409.8,1197.25,1410.99z"/>
	</g>
	<g id="LWPOLYLINE_302_">
		
			<line style="fill:none;stroke:#000000;stroke-width:1.3;stroke-linecap:round;stroke-linejoin:round;stroke-miterlimit:10;" x1="1236.29" y1="1369.82" x2="1236.29" y2="1369.87"/>
	</g>
	<g id="LWPOLYLINE_301_">
		<path style="fill:none;stroke:#000000;stroke-width:1.3;stroke-linecap:round;stroke-linejoin:round;stroke-miterlimit:10;" d="
			M1043.43,1369.82c0-4.16,3.37-7.54,7.54-7.54c0,0,0,0,0.01,0c4.16,0,7.53,3.38,7.53,7.54c0,0,0,0,0,0.01
			c0,4.16-3.38,7.53-7.54,7.53C1046.81,1377.36,1043.43,1373.99,1043.43,1369.82z"/>
	</g>
	<g id="LWPOLYLINE_300_">
		<path style="fill:none;stroke:#000000;stroke-width:1.3;stroke-linecap:round;stroke-linejoin:round;stroke-miterlimit:10;" d="
			M1050.97,1410.99C1050.97,1410.99,1050.97,1410.99,1050.97,1410.99c-22.74,0-41.17-18.43-41.17-41.17c0,0,0,0,0-0.01
			c0-22.74,18.43-41.16,41.17-41.16"/>
	</g>
	<g id="LWPOLYLINE_279_">
		
			<line style="fill:none;stroke:#000000;stroke-width:1.3;stroke-linecap:round;stroke-linejoin:round;stroke-miterlimit:10;" x1="1520.89" y1="1389.7" x2="1334.13" y2="1389.7"/>
	</g>
	<g id="LWPOLYLINE_278_">
		
			<line style="fill:none;stroke:#000000;stroke-width:1.3;stroke-linecap:round;stroke-linejoin:round;stroke-miterlimit:10;" x1="1520.89" y1="1380.25" x2="1334.13" y2="1380.25"/>
	</g>
	<g id="LWPOLYLINE_277_">
		
			<rect x="1387.42" y="1409.59" style="fill:none;stroke:#000000;stroke-width:1.3;stroke-linecap:round;stroke-linejoin:round;stroke-miterlimit:10;" width="79.08" height="26.07"/>
	</g>
	<g id="LWPOLYLINE_276_">
		
			<polyline style="fill:none;stroke:#000000;stroke-width:1.3;stroke-linecap:round;stroke-linejoin:round;stroke-miterlimit:10;" points="
			1387.41,1435.66 1393.46,1416.14 1466.5,1409.59 		"/>
	</g>
	<g id="LWPOLYLINE_275_">
		
			<line style="fill:none;stroke:#000000;stroke-width:1.3;stroke-linecap:round;stroke-linejoin:round;stroke-miterlimit:10;" x1="1334.22" y1="1145.33" x2="1334.22" y2="1232.81"/>
	</g>
	<g id="LWPOLYLINE_274_">
		<path style="fill:none;stroke:#000000;stroke-width:1.3;stroke-linecap:round;stroke-linejoin:round;stroke-miterlimit:10;" d="
			M1334.23,1232.81l44.93,0c6.33,0,11.94-4.09,13.88-10.11c7.04-21.87,7.05-45.39,0-67.26c-1.94-6.03-7.55-10.11-13.88-10.11h-44.94
			"/>
	</g>
	<g id="LWPOLYLINE_273_">
		<path style="fill:none;stroke:#000000;stroke-width:1.3;stroke-linecap:round;stroke-linejoin:round;stroke-miterlimit:10;" d="
			M1346.8,1165.74C1346.8,1165.74,1346.8,1165.74,1346.8,1165.74c0-4.83,3.92-8.75,8.75-8.75h14c3.2,0,6.03,2.09,6.97,5.15
			c5.38,17.54,5.38,36.3,0,53.84c-0.94,3.06-3.77,5.16-6.97,5.16h-14c-4.83,0-8.75-3.92-8.75-8.75"/>
	</g>
	<g id="LWPOLYLINE_272_">
		<path style="fill:none;stroke:#000000;stroke-width:1.3;stroke-linecap:round;stroke-linejoin:round;stroke-miterlimit:10;" d="
			M1355.55,1226.98c-4.83,0-8.75-3.92-8.75-8.75v-58.32c0,0,0,0,0-0.01c0-4.83,3.92-8.74,8.75-8.74h23.62c3.8,0,7.16,2.45,8.32,6.06
			c6.67,20.7,6.67,42.98,0,63.68c-1.16,3.62-4.53,6.07-8.32,6.07H1355.55z"/>
	</g>
	<g id="LWPOLYLINE_271_">
		<path style="fill:none;stroke:#000000;stroke-width:1.3;stroke-linecap:round;stroke-linejoin:round;stroke-miterlimit:10;" d="
			M1349.4,1189.07c0-2.17,1.75-3.93,3.92-3.93c2.17,0,3.92,1.76,3.92,3.93c0,2.17-1.76,3.92-3.92,3.92
			C1351.16,1193,1349.41,1191.24,1349.4,1189.07z"/>
	</g>
	<g id="LWPOLYLINE_270_">
		
			<line style="fill:none;stroke:#000000;stroke-width:1.3;stroke-linecap:round;stroke-linejoin:round;stroke-miterlimit:10;" x1="1448.83" y1="1354.11" x2="1397.79" y2="1354.11"/>
	</g>
	<g id="LWPOLYLINE_269_">
		<path style="fill:none;stroke:#000000;stroke-width:1.3;stroke-linecap:round;stroke-linejoin:round;stroke-miterlimit:10;" d="
			M1393.77,1345.6v-35.74c0-18.8,15.24-34.03,34.03-34.03c18.8,0,34.03,15.24,34.03,34.03v35.74c0,4.7-3.81,8.51-8.51,8.51h-51.05
			c0,0,0,0-0.01,0C1397.57,1354.11,1393.76,1350.3,1393.77,1345.6z"/>
	</g>
	<g id="LWPOLYLINE_268_">
		<path style="fill:none;stroke:#000000;stroke-width:1.3;stroke-linecap:round;stroke-linejoin:round;stroke-miterlimit:10;" d="
			M1455.03,1309.86v11.93c0,15.03-12.19,27.22-27.22,27.22c-15.04,0-27.23-12.19-27.23-27.22v-11.93
			c0-15.03,12.19-27.22,27.22-27.22C1442.83,1282.64,1455.02,1294.83,1455.03,1309.86z"/>
	</g>
	<g id="LWPOLYLINE_267_">
		<path style="fill:none;stroke:#000000;stroke-width:1.3;stroke-linecap:round;stroke-linejoin:round;stroke-miterlimit:10;" d="
			M1438.01,1320.82v11.93c0,0,0,0,0,0c0,5.64-4.57,10.21-10.21,10.21c-5.64,0-10.21-4.57-10.21-10.21v-11.93
			c0-5.64,4.57-10.21,10.21-10.21C1433.44,1310.61,1438.01,1315.18,1438.01,1320.82z"/>
	</g>
	<g id="LWPOLYLINE_266_">
		
			<rect x="1373.54" y="1354.11" style="fill:none;stroke:#000000;stroke-width:1.3;stroke-linecap:round;stroke-linejoin:round;stroke-miterlimit:10;" width="108.51" height="26.14"/>
	</g>
	<g>
		<polygon points="1022.82,258.45 1107.44,258.45 1107.44,666.41 1107.44,844.41 1088.39,844.41 1088.39,857.88 1107.44,857.88 
			1120.91,857.88 1120.91,666.41 1149.77,666.41 1149.77,258.45 1349.99,258.45 1349.96,219.96 1359.58,219.96 1359.58,206.49 
			1013.2,206.49 1013.2,219.96 1022.82,219.96 		"/>
		<path d="M1705.97,206.49v13.47h9.62v38.49h142.4v831.9h-111.47v13.47v44.26h7.7h103.78v307.32h-110.85v39.43h110.85h42.34V258.45
			v-38.49v-13.47H1705.97z M1857.99,1140.38h-103.78v-36.56h103.78V1140.38z"/>
		<polygon points="218.44,947.34 256.93,947.36 256.93,857.88 830.72,857.88 830.72,907.63 844.19,907.63 844.19,857.88 
			915.2,857.88 915.2,844.41 256.93,844.41 256.93,550.95 303.11,550.95 303.11,258.45 657.21,258.45 657.18,219.96 666.82,219.96 
			666.82,206.49 247.34,206.49 204.97,206.49 204.97,219.96 204.97,258.45 204.97,537.48 204.97,956.96 218.44,956.96 		"/>
		<polygon points="1538.69,1269.21 1520.89,1269.21 1520.89,1455.39 1334.22,1455.39 1334.22,1105.64 1520.89,1105.64 
			1520.89,1115.26 1538.69,1115.26 1538.69,1105.64 1538.69,1087.84 1218.28,1087.84 1218.28,1105.64 1309.89,1105.64 
			1309.89,1455.39 982.65,1455.39 982.65,1105.64 1064.33,1105.64 1064.33,1087.84 955.8,1087.84 844.19,1087.84 844.19,1080.82 
			830.72,1080.82 830.72,1101.31 844.19,1101.31 955.8,1101.31 955.8,1105.64 955.8,1455.39 256.93,1455.39 256.93,1312.99 
			218.44,1313.02 218.44,1303.4 204.97,1303.4 204.97,1534.32 218.44,1534.32 256.93,1534.32 256.93,1497.73 1321.1,1497.73 
			1548.93,1497.73 1548.93,1455.39 1538.69,1455.39 		"/>
	</g>
</g>
</svg>
