<?xml version="1.0" encoding="utf-8"?>
<!-- Generator: Adobe Illustrator 24.3.0, SVG Export Plug-In . SVG Version: 6.00 Build 0)  -->
<svg version="1.1" id="Layer_1" xmlns="http://www.w3.org/2000/svg" xmlns:xlink="http://www.w3.org/1999/xlink" x="0px" y="0px"
	 width="2000px" height="1585.4px" viewBox="0 0 2000 1585.4" style="enable-background:new 0 0 2000 1585.4;" xml:space="preserve"
	>
<path id="background" style="fill:#FFFFFF;" d="M1900.32,193.4v11.94v34.11v1098.4h-37.52h-163.69v-11.35h-7.89
	c-0.29,87.58-71.6,158.8-159.26,158.89c0,0,0,0,0,0c-0.33,0-0.6-0.25-0.64-0.57c0-0.03-0.02-0.05-0.02-0.08c0,0,0,0,0,0c0,0,0,0,0,0
	V1326.5h-7.88v11.35H239.13v25.66h-34.11h-11.29c0,0,0,0,0,0c0,0.03-0.01,0.06-0.02,0.08c-0.01,0.05-0.01,0.11-0.03,0.16
	c-0.02,0.04-0.04,0.07-0.07,0.11c-0.02,0.03-0.04,0.07-0.07,0.1c-0.04,0.04-0.09,0.07-0.14,0.1c-0.02,0.01-0.04,0.03-0.06,0.04
	c0,0,0,0-0.01,0c-0.08,0.03-0.16,0.06-0.26,0.06c0,0,0,0-0.01,0c0,0,0,0,0,0c0,0,0,0,0,0h-92.75c0,0,0,0,0,0c0,0,0,0,0,0
	c0,0,0,0-0.01,0c-0.09,0-0.18-0.02-0.26-0.06c0,0,0,0-0.01,0c-0.02-0.01-0.04-0.03-0.06-0.04c-0.05-0.03-0.1-0.06-0.14-0.1
	c-0.03-0.03-0.05-0.07-0.07-0.1c-0.02-0.04-0.05-0.07-0.07-0.11c-0.02-0.05-0.02-0.1-0.03-0.16c0-0.03-0.02-0.05-0.02-0.08v-0.02
	c0,0,0,0,0,0v-204.64c0,0,0,0,0,0v-0.02c0-0.03,0.01-0.06,0.02-0.08c0.01-0.05,0.01-0.11,0.03-0.16c0.02-0.04,0.04-0.07,0.07-0.11
	c0.02-0.03,0.04-0.07,0.07-0.1c0.04-0.04,0.09-0.07,0.14-0.1c0.02-0.01,0.04-0.03,0.06-0.04c0,0,0,0,0.01,0
	c0.04-0.02,0.09-0.02,0.14-0.03c0.04-0.01,0.08-0.02,0.12-0.02c0,0,0,0,0.01,0h92.1V910.47h-92.1c0,0,0,0,0,0c0,0,0,0,0,0
	c0,0,0,0-0.01,0c-0.09,0-0.18-0.02-0.26-0.06c0,0,0,0-0.01,0c-0.02-0.01-0.04-0.03-0.06-0.04c-0.05-0.03-0.1-0.06-0.14-0.1
	c-0.03-0.03-0.05-0.07-0.07-0.1c-0.02-0.04-0.05-0.07-0.07-0.11c-0.02-0.05-0.02-0.1-0.03-0.16c0-0.03-0.02-0.05-0.02-0.08v-0.02
	c0,0,0,0,0,0V705.17c0,0,0,0,0,0v-0.02c0-0.03,0.01-0.06,0.02-0.08c0.01-0.05,0.01-0.11,0.03-0.16c0.02-0.04,0.04-0.07,0.06-0.11
	c0.02-0.04,0.04-0.07,0.07-0.1c0.04-0.04,0.08-0.06,0.13-0.09c0.02-0.02,0.04-0.04,0.07-0.05c0,0,0,0,0.01,0
	c0.04-0.02,0.09-0.02,0.14-0.03c0.04-0.01,0.08-0.02,0.12-0.02c0,0,0.01,0,0.01,0h92.1V551.57c0-0.36,0.29-0.65,0.65-0.65V193.4
	h11.94v0.03l34.11-0.03h362.64c0-0.36,0.29-0.65,0.65-0.65h307c0.36,0,0.65,0.29,0.65,0.65h49.79v-92.75c0,0,0,0,0-0.01
	c0-0.05,0.02-0.09,0.03-0.14c0.01-0.04,0.01-0.08,0.03-0.12c0,0,0-0.01,0-0.01c0.01-0.03,0.04-0.05,0.06-0.08
	c0.03-0.04,0.05-0.09,0.09-0.12c0.03-0.03,0.07-0.05,0.1-0.07c0.04-0.02,0.07-0.05,0.11-0.07c0.04-0.02,0.09-0.02,0.14-0.03
	c0.03-0.01,0.06-0.02,0.1-0.02h204.67c0.03,0,0.06,0.01,0.09,0.02c0.05,0.01,0.1,0.01,0.15,0.03c0.04,0.02,0.08,0.05,0.12,0.07
	c0.03,0.02,0.07,0.04,0.09,0.06c0.04,0.04,0.07,0.09,0.1,0.14c0.01,0.02,0.03,0.04,0.04,0.06c0,0,0,0,0,0.01
	c0.02,0.05,0.02,0.1,0.03,0.15c0.01,0.04,0.02,0.07,0.02,0.11c0,0,0,0.01,0,0.01v92.1h203.37v-92.1c0,0,0-0.01,0-0.01
	c0-0.04,0.01-0.07,0.02-0.11c0.01-0.05,0.01-0.1,0.03-0.15c0,0,0,0,0-0.01c0.01-0.02,0.03-0.04,0.04-0.06
	c0.03-0.05,0.06-0.1,0.1-0.14c0.03-0.03,0.06-0.04,0.1-0.06c0.04-0.02,0.07-0.05,0.11-0.07c0.04-0.02,0.09-0.02,0.14-0.03
	c0.03-0.01,0.07-0.02,0.1-0.02h204.67c0.03,0,0.06,0.01,0.09,0.02c0.05,0.01,0.1,0.01,0.15,0.03c0.04,0.02,0.08,0.05,0.12,0.07
	c0.03,0.02,0.06,0.04,0.09,0.06c0.04,0.04,0.07,0.09,0.1,0.14c0.01,0.02,0.03,0.03,0.04,0.06c0,0,0,0,0,0.01
	c0.02,0.05,0.02,0.1,0.03,0.15c0.01,0.04,0.02,0.07,0.02,0.11c0,0,0,0.01,0,0.01v92.1h204.09c0.36,0,0.65,0.29,0.65,0.65H1900.32z"
	/>
<g id="h2">
	<path id="h2_path" style="fill:none;" d="M1472.22,981.04h409.34v331.28h-409.34V981.04z"/>
	<text id="h2_text" transform="matrix(1 0 0 1 1672.7072 1215.1355)" style="font-family:'GraphikLCG-Regular'; font-size:40px;"></text>
</g>
<g id="h1">
	<path id="h1_path" style="fill:none;" d="M858.59,798.54h343.72v182.5H858.59V798.54z"/>
	<text id="h1_text" transform="matrix(1 0 0 1 976.85 896.1561)" style="font-family:'GraphikLCG-Regular'; font-size:40px;"></text>
</g>
<g id="c1">
	<path id="c1_path" style="fill:none;" d="M1881.56,193.4v620.88v166.76h-679.25v-182.5h-126.64V193.4H1881.56z"/>
	<text id="c1_text" transform="matrix(1 0 0 1 1489.5756 518.6838)" style="font-family:'GraphikLCG-Regular'; font-size:40px;"></text>
</g>
<g id="s2">
	<path id="s2_path" style="fill:none;" d="M975.38,981.04h312.63v331.28H975.38V981.04z"/>
	<text id="s2_text" transform="matrix(1 0 0 1 1117.6063 1086.7123)" style="font-family:'GraphikLCG-Regular'; font-size:40px;"></text>
</g>
<g id="s1">
	<path id="s1_path" style="fill:none;" d="M1472.22,1312.32h-184.2V981.04h184.2V1312.32z"/>
	<text id="s1_text" transform="matrix(1 0 0 1 1395.5924 1086.7123)" style="font-family:'GraphikLCG-Regular'; font-size:40px;"></text>
</g>
<g id="r2">
	<path id="r2_path" style="fill:none;" d="M193.07,193.4h882.6v605.14h-882.6V193.4z"/>
	<text id="r2_text" transform="matrix(1 0 0 1 572.9772 518.6838)" style="font-family:'GraphikLCG-Regular'; font-size:40px;"></text>
</g>
<g id="r1">
	<path id="r1_path" style="fill:none;" d="M975.38,981.04v331.28H193.07V995.06V798.54h665.52v182.5H975.38z"/>
	<text id="r1_text" transform="matrix(1 0 0 1 572.9771 1079.9757)" style="font-family:'GraphikLCG-Regular'; font-size:40px;"></text>
</g>
<g id="floor">
	<g>
		<g id="LWPOLYLINE_716_">
			
				<rect x="1768.51" y="990.65" style="fill:none;stroke:#000000;stroke-width:1.3;stroke-linecap:round;stroke-linejoin:round;stroke-miterlimit:10;" width="90.54" height="25.11"/>
		</g>
		<g id="LWPOLYLINE_715_">
			
				<polyline style="fill:none;stroke:#000000;stroke-width:1.3;stroke-linecap:round;stroke-linejoin:round;stroke-miterlimit:10;" points="
				1768.51,990.65 1784.71,1011.46 1859.06,1015.77 			"/>
		</g>
	</g>
	<g id="LINE_410_">
		
			<line style="fill:none;stroke:#000000;stroke-width:1.3;stroke-linecap:round;stroke-linejoin:round;stroke-miterlimit:10;" x1="100.32" y1="1363.51" x2="100.32" y2="1158.84"/>
	</g>
	<g id="LINE_409_">
		
			<line style="fill:none;stroke:#000000;stroke-width:1.3;stroke-linecap:round;stroke-linejoin:round;stroke-miterlimit:10;" x1="100.32" y1="1158.84" x2="193.07" y2="1158.84"/>
	</g>
	<g id="LINE_408_">
		
			<line style="fill:none;stroke:#000000;stroke-width:1.3;stroke-linecap:round;stroke-linejoin:round;stroke-miterlimit:10;" x1="193.07" y1="1363.51" x2="100.32" y2="1363.51"/>
	</g>
	<g id="LWPOLYLINE_712_">
		
			<line style="fill:none;stroke:#000000;stroke-width:1.3;stroke-linecap:round;stroke-linejoin:round;stroke-miterlimit:10;" x1="193.07" y1="1158.84" x2="100.32" y2="1363.51"/>
	</g>
	<g id="LWPOLYLINE_711_">
		
			<line style="fill:none;stroke:#000000;stroke-width:1.3;stroke-linecap:round;stroke-linejoin:round;stroke-miterlimit:10;" x1="193.07" y1="1363.51" x2="100.32" y2="1158.84"/>
	</g>
	<g id="LINE_407_">
		
			<line style="fill:none;stroke:#000000;stroke-width:1.3;stroke-linecap:round;stroke-linejoin:round;stroke-miterlimit:10;" x1="100.32" y1="909.82" x2="100.32" y2="705.15"/>
	</g>
	<g id="LINE_406_">
		
			<line style="fill:none;stroke:#000000;stroke-width:1.3;stroke-linecap:round;stroke-linejoin:round;stroke-miterlimit:10;" x1="100.32" y1="705.15" x2="193.07" y2="705.15"/>
	</g>
	<g id="LINE_405_">
		
			<line style="fill:none;stroke:#000000;stroke-width:1.3;stroke-linecap:round;stroke-linejoin:round;stroke-miterlimit:10;" x1="193.07" y1="909.82" x2="100.32" y2="909.82"/>
	</g>
	<g id="LWPOLYLINE_710_">
		
			<line style="fill:none;stroke:#000000;stroke-width:1.3;stroke-linecap:round;stroke-linejoin:round;stroke-miterlimit:10;" x1="193.07" y1="705.15" x2="100.32" y2="909.82"/>
	</g>
	<g id="LWPOLYLINE_709_">
		
			<line style="fill:none;stroke:#000000;stroke-width:1.3;stroke-linecap:round;stroke-linejoin:round;stroke-miterlimit:10;" x1="193.07" y1="909.82" x2="100.32" y2="705.15"/>
	</g>
	<g id="LINE_404_">
		
			<line style="fill:none;stroke:#000000;stroke-width:1.3;stroke-linecap:round;stroke-linejoin:round;stroke-miterlimit:10;" x1="960.51" y1="100.65" x2="1165.18" y2="100.65"/>
	</g>
	<g id="LINE_403_">
		
			<line style="fill:none;stroke:#000000;stroke-width:1.3;stroke-linecap:round;stroke-linejoin:round;stroke-miterlimit:10;" x1="1165.18" y1="100.65" x2="1165.18" y2="193.4"/>
	</g>
	<g id="LINE_402_">
		
			<line style="fill:none;stroke:#000000;stroke-width:1.3;stroke-linecap:round;stroke-linejoin:round;stroke-miterlimit:10;" x1="960.51" y1="193.4" x2="960.51" y2="100.65"/>
	</g>
	<g id="LWPOLYLINE_708_">
		
			<line style="fill:none;stroke:#000000;stroke-width:1.3;stroke-linecap:round;stroke-linejoin:round;stroke-miterlimit:10;" x1="1165.18" y1="193.4" x2="960.51" y2="100.65"/>
	</g>
	<g id="LWPOLYLINE_707_">
		
			<line style="fill:none;stroke:#000000;stroke-width:1.3;stroke-linecap:round;stroke-linejoin:round;stroke-miterlimit:10;" x1="960.51" y1="193.4" x2="1165.18" y2="100.65"/>
	</g>
	<g id="LINE_401_">
		
			<line style="fill:none;stroke:#000000;stroke-width:1.3;stroke-linecap:round;stroke-linejoin:round;stroke-miterlimit:10;" x1="1369.86" y1="100.65" x2="1574.53" y2="100.65"/>
	</g>
	<g id="LINE_400_">
		
			<line style="fill:none;stroke:#000000;stroke-width:1.3;stroke-linecap:round;stroke-linejoin:round;stroke-miterlimit:10;" x1="1574.53" y1="100.65" x2="1574.53" y2="193.4"/>
	</g>
	<g id="LINE_399_">
		
			<line style="fill:none;stroke:#000000;stroke-width:1.3;stroke-linecap:round;stroke-linejoin:round;stroke-miterlimit:10;" x1="1369.86" y1="193.4" x2="1369.86" y2="100.65"/>
	</g>
	<g id="LWPOLYLINE_706_">
		
			<line style="fill:none;stroke:#000000;stroke-width:1.3;stroke-linecap:round;stroke-linejoin:round;stroke-miterlimit:10;" x1="1574.53" y1="193.4" x2="1369.86" y2="100.65"/>
	</g>
	<g id="LWPOLYLINE_705_">
		
			<line style="fill:none;stroke:#000000;stroke-width:1.3;stroke-linecap:round;stroke-linejoin:round;stroke-miterlimit:10;" x1="1369.86" y1="193.4" x2="1574.53" y2="100.65"/>
	</g>
	<g id="LWPOLYLINE_682_">
		
			<rect x="1187.6" y="975.72" style="fill:none;stroke:#000000;stroke-width:1.3;stroke-linecap:round;stroke-linejoin:round;stroke-miterlimit:10;" width="8.53" height="13.64"/>
	</g>
	<g id="LWPOLYLINE_681_">
		
			<rect x="1059.68" y="975.63" style="fill:none;stroke:#000000;stroke-width:1.3;stroke-linecap:round;stroke-linejoin:round;stroke-miterlimit:10;" width="8.53" height="13.64"/>
	</g>
	<g id="LINE_365_">
		
			<line style="fill:none;stroke:#000000;stroke-width:1.3;stroke-linecap:round;stroke-linejoin:round;stroke-miterlimit:10;" x1="1196.14" y1="975.72" x2="1196.13" y2="989.37"/>
	</g>
	<g id="LINE_364_">
		
			<line style="fill:none;stroke:#000000;stroke-width:1.3;stroke-linecap:round;stroke-linejoin:round;stroke-miterlimit:10;" x1="1059.69" y1="975.62" x2="1059.68" y2="989.27"/>
	</g>
	<g id="LINE_363_">
		
			<line style="fill:none;stroke:#000000;stroke-width:1.3;stroke-linecap:round;stroke-linejoin:round;stroke-miterlimit:10;" x1="1187.61" y1="975.72" x2="1187.69" y2="856.33"/>
	</g>
	<g id="ARC_22_">
		<path style="fill:none;stroke:#000000;stroke-width:1.3;stroke-linecap:round;stroke-linejoin:round;stroke-miterlimit:10;" d="
			M1068.22,975.63c0.09-63.95,50.47-116.51,114.36-119.31"/>
	</g>
	<g id="LINE_362_">
		
			<line style="fill:none;stroke:#000000;stroke-width:1.3;stroke-linecap:round;stroke-linejoin:round;stroke-miterlimit:10;" x1="1187.69" y1="856.33" x2="1182.58" y2="856.32"/>
	</g>
	<g id="LWPOLYLINE_680_">
		
			<rect x="1465.3" y="1126.78" style="fill:none;stroke:#000000;stroke-width:1.3;stroke-linecap:round;stroke-linejoin:round;stroke-miterlimit:10;" width="13.64" height="8.53"/>
	</g>
	<g id="LWPOLYLINE_679_">
		
			<rect x="1465.4" y="998.86" style="fill:none;stroke:#000000;stroke-width:1.3;stroke-linecap:round;stroke-linejoin:round;stroke-miterlimit:10;" width="13.64" height="8.53"/>
	</g>
	<g id="LINE_361_">
		
			<line style="fill:none;stroke:#000000;stroke-width:1.3;stroke-linecap:round;stroke-linejoin:round;stroke-miterlimit:10;" x1="1478.95" y1="1135.31" x2="1465.3" y2="1135.3"/>
	</g>
	<g id="LINE_360_">
		
			<line style="fill:none;stroke:#000000;stroke-width:1.3;stroke-linecap:round;stroke-linejoin:round;stroke-miterlimit:10;" x1="1479.04" y1="998.87" x2="1465.4" y2="998.86"/>
	</g>
	<g id="LINE_359_">
		
			<line style="fill:none;stroke:#000000;stroke-width:1.3;stroke-linecap:round;stroke-linejoin:round;stroke-miterlimit:10;" x1="1478.95" y1="1126.79" x2="1598.34" y2="1126.87"/>
	</g>
	<g id="ARC_21_">
		<path style="fill:none;stroke:#000000;stroke-width:1.3;stroke-linecap:round;stroke-linejoin:round;stroke-miterlimit:10;" d="
			M1479.04,1007.4c63.95,0.09,116.51,50.47,119.31,114.36"/>
	</g>
	<g id="LINE_358_">
		
			<line style="fill:none;stroke:#000000;stroke-width:1.3;stroke-linecap:round;stroke-linejoin:round;stroke-miterlimit:10;" x1="1598.34" y1="1126.87" x2="1598.35" y2="1121.76"/>
	</g>
	<g id="LWPOLYLINE_666_">
		
			<rect x="1050.94" y="791.72" style="fill:none;stroke:#000000;stroke-width:1.3;stroke-linecap:round;stroke-linejoin:round;stroke-miterlimit:10;" width="8.53" height="13.64"/>
	</g>
	<g id="LWPOLYLINE_665_">
		
			<rect x="905.97" y="791.72" style="fill:none;stroke:#000000;stroke-width:1.3;stroke-linecap:round;stroke-linejoin:round;stroke-miterlimit:10;" width="8.53" height="13.64"/>
	</g>
	<g id="LINE_333_">
		
			<line style="fill:none;stroke:#000000;stroke-width:1.3;stroke-linecap:round;stroke-linejoin:round;stroke-miterlimit:10;" x1="1059.47" y1="791.72" x2="1059.47" y2="805.36"/>
	</g>
	<g id="LINE_332_">
		
			<line style="fill:none;stroke:#000000;stroke-width:1.3;stroke-linecap:round;stroke-linejoin:round;stroke-miterlimit:10;" x1="905.97" y1="791.72" x2="905.97" y2="805.36"/>
	</g>
	<g id="LINE_331_">
		
			<line style="fill:none;stroke:#000000;stroke-width:1.3;stroke-linecap:round;stroke-linejoin:round;stroke-miterlimit:10;" x1="1050.94" y1="791.72" x2="1050.94" y2="655.27"/>
	</g>
	<g id="LINE_330_">
		
			<line style="fill:none;stroke:#000000;stroke-width:1.3;stroke-linecap:round;stroke-linejoin:round;stroke-miterlimit:10;" x1="1045.83" y1="655.27" x2="1050.94" y2="655.27"/>
	</g>
	<g id="ARC_14_">
		<path style="fill:none;stroke:#000000;stroke-width:1.3;stroke-linecap:round;stroke-linejoin:round;stroke-miterlimit:10;" d="
			M914.5,791.72c0.04-73.37,58.02-133.61,131.33-136.45"/>
	</g>
	<g id="LWPOLYLINE_664_">
		
			<rect x="851.77" y="813.04" style="fill:none;stroke:#000000;stroke-width:1.3;stroke-linecap:round;stroke-linejoin:round;stroke-miterlimit:10;" width="13.64" height="8.53"/>
	</g>
	<g id="LWPOLYLINE_663_">
		
			<rect x="851.77" y="958.01" style="fill:none;stroke:#000000;stroke-width:1.3;stroke-linecap:round;stroke-linejoin:round;stroke-miterlimit:10;" width="13.64" height="8.53"/>
	</g>
	<g id="LINE_329_">
		
			<line style="fill:none;stroke:#000000;stroke-width:1.3;stroke-linecap:round;stroke-linejoin:round;stroke-miterlimit:10;" x1="851.77" y1="813.04" x2="865.42" y2="813.04"/>
	</g>
	<g id="LINE_328_">
		
			<line style="fill:none;stroke:#000000;stroke-width:1.3;stroke-linecap:round;stroke-linejoin:round;stroke-miterlimit:10;" x1="851.77" y1="966.54" x2="865.42" y2="966.54"/>
	</g>
	<g id="LINE_327_">
		
			<line style="fill:none;stroke:#000000;stroke-width:1.3;stroke-linecap:round;stroke-linejoin:round;stroke-miterlimit:10;" x1="851.77" y1="821.57" x2="715.33" y2="821.57"/>
	</g>
	<g id="LINE_326_">
		
			<line style="fill:none;stroke:#000000;stroke-width:1.3;stroke-linecap:round;stroke-linejoin:round;stroke-miterlimit:10;" x1="715.33" y1="826.68" x2="715.33" y2="821.57"/>
	</g>
	<g id="ARC_13_">
		<path style="fill:none;stroke:#000000;stroke-width:1.3;stroke-linecap:round;stroke-linejoin:round;stroke-miterlimit:10;" d="
			M851.77,958.01C778.4,957.98,718.17,900,715.33,826.68"/>
	</g>
	<g id="LINE_297_">
		
			<line style="fill:none;stroke:#000000;stroke-width:1.3;stroke-linecap:round;stroke-linejoin:round;stroke-miterlimit:10;" x1="1531.96" y1="1325.85" x2="1531.96" y2="1484.75"/>
	</g>
	<g id="LWPOLYLINE_648_">
		
			<rect x="1690.58" y="1312.32" style="fill:none;stroke:#000000;stroke-width:1.3;stroke-linecap:round;stroke-linejoin:round;stroke-miterlimit:10;" width="8.53" height="13.53"/>
	</g>
	<g id="ARC_5_">
		<path style="fill:none;stroke:#000000;stroke-width:1.3;stroke-linecap:round;stroke-linejoin:round;stroke-miterlimit:10;" d="
			M1690.58,1325.85c0.06,87.67-70.95,158.8-158.62,158.89"/>
	</g>
	<g id="LWPOLYLINE_647_">
		
			<rect x="1523.43" y="1312.32" style="fill:none;stroke:#000000;stroke-width:1.3;stroke-linecap:round;stroke-linejoin:round;stroke-miterlimit:10;" width="8.53" height="13.53"/>
	</g>
	<g id="LINE_285_">
		
			<line style="fill:none;stroke:#000000;stroke-width:1.3;stroke-linecap:round;stroke-linejoin:round;stroke-miterlimit:10;" x1="193.07" y1="1165.58" x2="193.07" y2="909.75"/>
	</g>
	<g id="LINE_284_">
		
			<line style="fill:none;stroke:#000000;stroke-width:1.3;stroke-linecap:round;stroke-linejoin:round;stroke-miterlimit:10;" x1="220.36" y1="901.24" x2="220.36" y2="1031.72"/>
	</g>
	<g id="LINE_283_">
		
			<line style="fill:none;stroke:#000000;stroke-width:1.3;stroke-linecap:round;stroke-linejoin:round;stroke-miterlimit:10;" x1="220.36" y1="1043.66" x2="220.36" y2="1174.14"/>
	</g>
	<g id="LINE_282_">
		
			<line style="fill:none;stroke:#000000;stroke-width:1.3;stroke-linecap:round;stroke-linejoin:round;stroke-miterlimit:10;" x1="205.01" y1="1165.61" x2="220.36" y2="1165.61"/>
	</g>
	<g id="LINE_281_">
		
			<line style="fill:none;stroke:#000000;stroke-width:1.3;stroke-linecap:round;stroke-linejoin:round;stroke-miterlimit:10;" x1="205.01" y1="909.77" x2="220.36" y2="909.77"/>
	</g>
	<g id="LINE_280_">
		
			<line style="fill:none;stroke:#000000;stroke-width:1.3;stroke-linecap:round;stroke-linejoin:round;stroke-miterlimit:10;" x1="205.01" y1="901.24" x2="205.01" y2="1031.72"/>
	</g>
	<g id="LINE_279_">
		
			<line style="fill:none;stroke:#000000;stroke-width:1.3;stroke-linecap:round;stroke-linejoin:round;stroke-miterlimit:10;" x1="205.01" y1="1043.66" x2="205.01" y2="1174.14"/>
	</g>
	<g id="LINE_278_">
		
			<line style="fill:none;stroke:#000000;stroke-width:1.3;stroke-linecap:round;stroke-linejoin:round;stroke-miterlimit:10;" x1="212.26" y1="1043.66" x2="212.26" y2="1156.06"/>
	</g>
	<g id="LINE_277_">
		
			<line style="fill:none;stroke:#000000;stroke-width:1.3;stroke-linecap:round;stroke-linejoin:round;stroke-miterlimit:10;" x1="212.26" y1="919.32" x2="212.26" y2="1031.72"/>
	</g>
	<g id="LINE_276_">
		
			<line style="fill:none;stroke:#000000;stroke-width:1.3;stroke-linecap:round;stroke-linejoin:round;stroke-miterlimit:10;" x1="220.36" y1="919.32" x2="205.01" y2="919.32"/>
	</g>
	<g id="LINE_275_">
		
			<line style="fill:none;stroke:#000000;stroke-width:1.3;stroke-linecap:round;stroke-linejoin:round;stroke-miterlimit:10;" x1="205.01" y1="1165.61" x2="220.36" y2="1165.61"/>
	</g>
	<g id="LINE_274_">
		
			<line style="fill:none;stroke:#000000;stroke-width:1.3;stroke-linecap:round;stroke-linejoin:round;stroke-miterlimit:10;" x1="220.36" y1="1156.06" x2="205.01" y2="1156.06"/>
	</g>
	<g id="LINE_273_">
		
			<line style="fill:none;stroke:#000000;stroke-width:1.3;stroke-linecap:round;stroke-linejoin:round;stroke-miterlimit:10;" x1="220.36" y1="1006.14" x2="220.36" y2="1018.08"/>
	</g>
	<g id="LINE_272_">
		
			<line style="fill:none;stroke:#000000;stroke-width:1.3;stroke-linecap:round;stroke-linejoin:round;stroke-miterlimit:10;" x1="205.01" y1="1018.08" x2="205.01" y2="1006.14"/>
	</g>
	<g id="LINE_271_">
		
			<line style="fill:none;stroke:#000000;stroke-width:1.3;stroke-linecap:round;stroke-linejoin:round;stroke-miterlimit:10;" x1="239.13" y1="901.22" x2="239.13" y2="1174.11"/>
	</g>
	<g id="LWPOLYLINE_638_">
		
			<rect x="205.01" y="1031.72" style="fill:none;stroke:#000000;stroke-width:1.3;stroke-linecap:round;stroke-linejoin:round;stroke-miterlimit:10;" width="15.35" height="11.94"/>
	</g>
	<g id="LINE_270_">
		
			<line style="fill:none;stroke:#000000;stroke-width:1.3;stroke-linecap:round;stroke-linejoin:round;stroke-miterlimit:10;" x1="193.07" y1="705.08" x2="193.07" y2="551.57"/>
	</g>
	<g id="LINE_269_">
		
			<line style="fill:none;stroke:#000000;stroke-width:1.3;stroke-linecap:round;stroke-linejoin:round;stroke-miterlimit:10;" x1="220.36" y1="543.07" x2="220.36" y2="713.63"/>
	</g>
	<g id="LINE_268_">
		
			<line style="fill:none;stroke:#000000;stroke-width:1.3;stroke-linecap:round;stroke-linejoin:round;stroke-miterlimit:10;" x1="205.01" y1="705.1" x2="220.36" y2="705.1"/>
	</g>
	<g id="LINE_267_">
		
			<line style="fill:none;stroke:#000000;stroke-width:1.3;stroke-linecap:round;stroke-linejoin:round;stroke-miterlimit:10;" x1="205.01" y1="551.6" x2="220.36" y2="551.6"/>
	</g>
	<g id="LINE_266_">
		
			<line style="fill:none;stroke:#000000;stroke-width:1.3;stroke-linecap:round;stroke-linejoin:round;stroke-miterlimit:10;" x1="205.01" y1="543.07" x2="205.01" y2="713.63"/>
	</g>
	<g id="LINE_265_">
		
			<line style="fill:none;stroke:#000000;stroke-width:1.3;stroke-linecap:round;stroke-linejoin:round;stroke-miterlimit:10;" x1="212.69" y1="561.15" x2="212.26" y2="695.55"/>
	</g>
	<g id="LINE_264_">
		
			<line style="fill:none;stroke:#000000;stroke-width:1.3;stroke-linecap:round;stroke-linejoin:round;stroke-miterlimit:10;" x1="220.36" y1="561.15" x2="205.01" y2="561.15"/>
	</g>
	<g id="LINE_263_">
		
			<line style="fill:none;stroke:#000000;stroke-width:1.3;stroke-linecap:round;stroke-linejoin:round;stroke-miterlimit:10;" x1="205.01" y1="705.1" x2="220.36" y2="705.1"/>
	</g>
	<g id="LINE_262_">
		
			<line style="fill:none;stroke:#000000;stroke-width:1.3;stroke-linecap:round;stroke-linejoin:round;stroke-miterlimit:10;" x1="220.36" y1="695.55" x2="205.01" y2="695.55"/>
	</g>
	<g id="LINE_261_">
		
			<line style="fill:none;stroke:#000000;stroke-width:1.3;stroke-linecap:round;stroke-linejoin:round;stroke-miterlimit:10;" x1="220.36" y1="545.63" x2="220.36" y2="557.57"/>
	</g>
	<g id="LINE_260_">
		
			<line style="fill:none;stroke:#000000;stroke-width:1.3;stroke-linecap:round;stroke-linejoin:round;stroke-miterlimit:10;" x1="205.01" y1="557.57" x2="205.01" y2="545.63"/>
	</g>
	<g id="LINE_259_">
		
			<line style="fill:none;stroke:#000000;stroke-width:1.3;stroke-linecap:round;stroke-linejoin:round;stroke-miterlimit:10;" x1="239.13" y1="543.04" x2="239.13" y2="713.6"/>
	</g>
	<g id="LINE_258_">
		
			<line style="fill:none;stroke:#000000;stroke-width:1.3;stroke-linecap:round;stroke-linejoin:round;stroke-miterlimit:10;" x1="602.42" y1="193.4" x2="909.42" y2="193.4"/>
	</g>
	<g id="LINE_257_">
		
			<line style="fill:none;stroke:#000000;stroke-width:1.3;stroke-linecap:round;stroke-linejoin:round;stroke-miterlimit:10;" x1="917.92" y1="220.69" x2="761.84" y2="220.69"/>
	</g>
	<g id="LINE_256_">
		
			<line style="fill:none;stroke:#000000;stroke-width:1.3;stroke-linecap:round;stroke-linejoin:round;stroke-miterlimit:10;" x1="749.9" y1="220.69" x2="593.86" y2="220.69"/>
	</g>
	<g id="LINE_255_">
		
			<line style="fill:none;stroke:#000000;stroke-width:1.3;stroke-linecap:round;stroke-linejoin:round;stroke-miterlimit:10;" x1="602.39" y1="205.34" x2="602.39" y2="220.69"/>
	</g>
	<g id="LINE_254_">
		
			<line style="fill:none;stroke:#000000;stroke-width:1.3;stroke-linecap:round;stroke-linejoin:round;stroke-miterlimit:10;" x1="909.4" y1="205.34" x2="909.4" y2="220.69"/>
	</g>
	<g id="LINE_253_">
		
			<line style="fill:none;stroke:#000000;stroke-width:1.3;stroke-linecap:round;stroke-linejoin:round;stroke-miterlimit:10;" x1="917.92" y1="205.34" x2="761.84" y2="205.34"/>
	</g>
	<g id="LINE_252_">
		
			<line style="fill:none;stroke:#000000;stroke-width:1.3;stroke-linecap:round;stroke-linejoin:round;stroke-miterlimit:10;" x1="749.9" y1="205.34" x2="593.86" y2="205.34"/>
	</g>
	<g id="LINE_251_">
		
			<line style="fill:none;stroke:#000000;stroke-width:1.3;stroke-linecap:round;stroke-linejoin:round;stroke-miterlimit:10;" x1="749.9" y1="212.59" x2="611.94" y2="212.59"/>
	</g>
	<g id="LINE_250_">
		
			<line style="fill:none;stroke:#000000;stroke-width:1.3;stroke-linecap:round;stroke-linejoin:round;stroke-miterlimit:10;" x1="899.84" y1="212.59" x2="761.84" y2="212.59"/>
	</g>
	<g id="LINE_249_">
		
			<line style="fill:none;stroke:#000000;stroke-width:1.3;stroke-linecap:round;stroke-linejoin:round;stroke-miterlimit:10;" x1="899.84" y1="220.69" x2="899.84" y2="205.34"/>
	</g>
	<g id="LINE_248_">
		
			<line style="fill:none;stroke:#000000;stroke-width:1.3;stroke-linecap:round;stroke-linejoin:round;stroke-miterlimit:10;" x1="602.39" y1="205.34" x2="602.39" y2="220.69"/>
	</g>
	<g id="LINE_247_">
		
			<line style="fill:none;stroke:#000000;stroke-width:1.3;stroke-linecap:round;stroke-linejoin:round;stroke-miterlimit:10;" x1="611.94" y1="220.69" x2="611.94" y2="205.34"/>
	</g>
	<g id="LINE_246_">
		
			<line style="fill:none;stroke:#000000;stroke-width:1.3;stroke-linecap:round;stroke-linejoin:round;stroke-miterlimit:10;" x1="761.86" y1="220.69" x2="749.92" y2="220.69"/>
	</g>
	<g id="LINE_245_">
		
			<line style="fill:none;stroke:#000000;stroke-width:1.3;stroke-linecap:round;stroke-linejoin:round;stroke-miterlimit:10;" x1="749.92" y1="205.34" x2="761.86" y2="205.34"/>
	</g>
	<g id="LINE_244_">
		
			<line style="fill:none;stroke:#000000;stroke-width:1.3;stroke-linecap:round;stroke-linejoin:round;stroke-miterlimit:10;" x1="917.95" y1="239.45" x2="593.89" y2="239.45"/>
	</g>
	<g id="LWPOLYLINE_637_">
		
			<rect x="749.9" y="205.34" style="fill:none;stroke:#000000;stroke-width:1.3;stroke-linecap:round;stroke-linejoin:round;stroke-miterlimit:10;" width="11.94" height="15.35"/>
	</g>
	<g id="LINE_70_">
		
			<line style="fill:none;stroke:#000000;stroke-width:1.3;stroke-linecap:round;stroke-linejoin:round;stroke-miterlimit:10;" x1="1165.26" y1="193.4" x2="1369.93" y2="193.4"/>
	</g>
	<g id="LINE_69_">
		
			<line style="fill:none;stroke:#000000;stroke-width:1.3;stroke-linecap:round;stroke-linejoin:round;stroke-miterlimit:10;" x1="1378.43" y1="220.69" x2="1156.71" y2="220.69"/>
	</g>
	<g id="LINE_68_">
		
			<line style="fill:none;stroke:#000000;stroke-width:1.3;stroke-linecap:round;stroke-linejoin:round;stroke-miterlimit:10;" x1="1165.23" y1="205.34" x2="1165.23" y2="220.69"/>
	</g>
	<g id="LINE_39_">
		
			<line style="fill:none;stroke:#000000;stroke-width:1.3;stroke-linecap:round;stroke-linejoin:round;stroke-miterlimit:10;" x1="1369.9" y1="205.34" x2="1369.9" y2="220.69"/>
	</g>
	<g id="LINE_38_">
		
			<line style="fill:none;stroke:#000000;stroke-width:1.3;stroke-linecap:round;stroke-linejoin:round;stroke-miterlimit:10;" x1="1378.43" y1="205.34" x2="1156.71" y2="205.34"/>
	</g>
	<g id="LINE_37_">
		
			<line style="fill:none;stroke:#000000;stroke-width:1.3;stroke-linecap:round;stroke-linejoin:round;stroke-miterlimit:10;" x1="1360.35" y1="213.01" x2="1174.79" y2="212.59"/>
	</g>
	<g id="LINE_36_">
		
			<line style="fill:none;stroke:#000000;stroke-width:1.3;stroke-linecap:round;stroke-linejoin:round;stroke-miterlimit:10;" x1="1360.35" y1="220.69" x2="1360.35" y2="205.34"/>
	</g>
	<g id="LINE_35_">
		
			<line style="fill:none;stroke:#000000;stroke-width:1.3;stroke-linecap:round;stroke-linejoin:round;stroke-miterlimit:10;" x1="1165.23" y1="205.34" x2="1165.23" y2="220.69"/>
	</g>
	<g id="LINE_34_">
		
			<line style="fill:none;stroke:#000000;stroke-width:1.3;stroke-linecap:round;stroke-linejoin:round;stroke-miterlimit:10;" x1="1174.79" y1="220.69" x2="1174.79" y2="205.34"/>
	</g>
	<g id="LINE_33_">
		
			<line style="fill:none;stroke:#000000;stroke-width:1.3;stroke-linecap:round;stroke-linejoin:round;stroke-miterlimit:10;" x1="1324.71" y1="220.69" x2="1312.77" y2="220.69"/>
	</g>
	<g id="LINE_32_">
		
			<line style="fill:none;stroke:#000000;stroke-width:1.3;stroke-linecap:round;stroke-linejoin:round;stroke-miterlimit:10;" x1="1312.77" y1="205.34" x2="1324.71" y2="205.34"/>
	</g>
	<g id="LINE_31_">
		
			<line style="fill:none;stroke:#000000;stroke-width:1.3;stroke-linecap:round;stroke-linejoin:round;stroke-miterlimit:10;" x1="1378.46" y1="239.45" x2="1156.73" y2="239.45"/>
	</g>
	<g id="LINE_30_">
		
			<line style="fill:none;stroke:#000000;stroke-width:1.3;stroke-linecap:round;stroke-linejoin:round;stroke-miterlimit:10;" x1="1574.6" y1="193.4" x2="1779.27" y2="193.4"/>
	</g>
	<g id="LINE_29_">
		
			<line style="fill:none;stroke:#000000;stroke-width:1.3;stroke-linecap:round;stroke-linejoin:round;stroke-miterlimit:10;" x1="1787.77" y1="220.69" x2="1566.05" y2="220.69"/>
	</g>
	<g id="LINE_28_">
		
			<line style="fill:none;stroke:#000000;stroke-width:1.3;stroke-linecap:round;stroke-linejoin:round;stroke-miterlimit:10;" x1="1574.57" y1="205.34" x2="1574.57" y2="220.69"/>
	</g>
	<g id="LINE_27_">
		
			<line style="fill:none;stroke:#000000;stroke-width:1.3;stroke-linecap:round;stroke-linejoin:round;stroke-miterlimit:10;" x1="1779.24" y1="205.34" x2="1779.24" y2="220.69"/>
	</g>
	<g id="LINE_26_">
		
			<line style="fill:none;stroke:#000000;stroke-width:1.3;stroke-linecap:round;stroke-linejoin:round;stroke-miterlimit:10;" x1="1787.77" y1="205.34" x2="1566.05" y2="205.34"/>
	</g>
	<g id="LINE_25_">
		
			<line style="fill:none;stroke:#000000;stroke-width:1.3;stroke-linecap:round;stroke-linejoin:round;stroke-miterlimit:10;" x1="1769.69" y1="213.01" x2="1584.13" y2="212.59"/>
	</g>
	<g id="LINE_24_">
		
			<line style="fill:none;stroke:#000000;stroke-width:1.3;stroke-linecap:round;stroke-linejoin:round;stroke-miterlimit:10;" x1="1769.69" y1="220.69" x2="1769.69" y2="205.34"/>
	</g>
	<g id="LINE_23_">
		
			<line style="fill:none;stroke:#000000;stroke-width:1.3;stroke-linecap:round;stroke-linejoin:round;stroke-miterlimit:10;" x1="1574.57" y1="205.34" x2="1574.57" y2="220.69"/>
	</g>
	<g id="LINE_22_">
		
			<line style="fill:none;stroke:#000000;stroke-width:1.3;stroke-linecap:round;stroke-linejoin:round;stroke-miterlimit:10;" x1="1584.13" y1="220.69" x2="1584.13" y2="205.34"/>
	</g>
	<g id="LINE_21_">
		
			<line style="fill:none;stroke:#000000;stroke-width:1.3;stroke-linecap:round;stroke-linejoin:round;stroke-miterlimit:10;" x1="1734.05" y1="220.69" x2="1722.11" y2="220.69"/>
	</g>
	<g id="LINE_20_">
		
			<line style="fill:none;stroke:#000000;stroke-width:1.3;stroke-linecap:round;stroke-linejoin:round;stroke-miterlimit:10;" x1="1722.11" y1="205.34" x2="1734.05" y2="205.34"/>
	</g>
	<g id="LINE_19_">
		
			<line style="fill:none;stroke:#000000;stroke-width:1.3;stroke-linecap:round;stroke-linejoin:round;stroke-miterlimit:10;" x1="1787.8" y1="239.45" x2="1566.07" y2="239.45"/>
	</g>
	<g id="LINE_18_">
		<g>
			<g>
				
					<line style="fill:none;stroke:#000000;stroke-width:1.3;stroke-linecap:round;stroke-linejoin:round;" x1="1480.11" y1="981.04" x2="1485.11" y2="981.04"/>
				
					<line style="fill:none;stroke:#000000;stroke-width:1.3;stroke-linecap:round;stroke-linejoin:round;stroke-dasharray:9.92,9.92;" x1="1495.03" y1="981.04" x2="1747.99" y2="981.04"/>
				
					<line style="fill:none;stroke:#000000;stroke-width:1.3;stroke-linecap:round;stroke-linejoin:round;" x1="1752.95" y1="981.04" x2="1757.95" y2="981.04"/>
			</g>
		</g>
	</g>
	<g id="LINE_17_">
		<g>
			<g>
				
					<line style="fill:none;stroke:#000000;stroke-width:1.3;stroke-linecap:round;stroke-linejoin:round;" x1="1202.32" y1="974.56" x2="1202.32" y2="969.56"/>
				
					<line style="fill:none;stroke:#000000;stroke-width:1.3;stroke-linecap:round;stroke-linejoin:round;stroke-dasharray:9.7657,9.7657;" x1="1202.32" y1="959.79" x2="1202.32" y2="808.42"/>
				
					<line style="fill:none;stroke:#000000;stroke-width:1.3;stroke-linecap:round;stroke-linejoin:round;" x1="1202.32" y1="803.54" x2="1202.32" y2="798.54"/>
			</g>
		</g>
	</g>
	<g id="LINE_16_">
		<g>
			<g>
				
					<line style="fill:none;stroke:#000000;stroke-width:1.3;stroke-linecap:round;stroke-linejoin:round;" x1="1202.32" y1="798.54" x2="1197.32" y2="798.54"/>
				
					<line style="fill:none;stroke:#000000;stroke-width:1.3;stroke-linecap:round;stroke-linejoin:round;stroke-dasharray:10.0613,10.0613;" x1="1187.26" y1="798.54" x2="1091.67" y2="798.54"/>
				
					<line style="fill:none;stroke:#000000;stroke-width:1.3;stroke-linecap:round;stroke-linejoin:round;" x1="1086.64" y1="798.54" x2="1081.64" y2="798.54"/>
			</g>
		</g>
	</g>
	<g id="LWPOLYLINE_625_">
		
			<rect x="1762.3" y="591.63" style="fill:none;stroke:#000000;stroke-width:1.3;stroke-linecap:round;stroke-linejoin:round;stroke-miterlimit:10;" width="100.5" height="100.5"/>
	</g>
	<g id="LWPOLYLINE_624_">
		
			<line style="fill:none;stroke:#000000;stroke-width:1.3;stroke-linecap:round;stroke-linejoin:round;stroke-miterlimit:10;" x1="1804.18" y1="667" x2="1770.68" y2="667"/>
	</g>
	<g id="LWPOLYLINE_623_">
		
			<line style="fill:none;stroke:#000000;stroke-width:1.3;stroke-linecap:round;stroke-linejoin:round;stroke-miterlimit:10;" x1="1787.43" y1="650.25" x2="1787.43" y2="683.75"/>
	</g>
	<g id="CIRCLE_24_">
		
			<circle style="fill:none;stroke:#000000;stroke-width:1.3;stroke-linecap:round;stroke-linejoin:round;stroke-miterlimit:10;" cx="1787.43" cy="667" r="13.4"/>
	</g>
	<g id="LWPOLYLINE_622_">
		
			<line style="fill:none;stroke:#000000;stroke-width:1.3;stroke-linecap:round;stroke-linejoin:round;stroke-miterlimit:10;" x1="1854.43" y1="667" x2="1820.93" y2="667"/>
	</g>
	<g id="LWPOLYLINE_621_">
		
			<line style="fill:none;stroke:#000000;stroke-width:1.3;stroke-linecap:round;stroke-linejoin:round;stroke-miterlimit:10;" x1="1837.68" y1="650.25" x2="1837.68" y2="683.75"/>
	</g>
	<g id="CIRCLE_23_">
		
			<circle style="fill:none;stroke:#000000;stroke-width:1.3;stroke-linecap:round;stroke-linejoin:round;stroke-miterlimit:10;" cx="1837.68" cy="666.99" r="13.41"/>
	</g>
	<g id="LWPOLYLINE_620_">
		
			<line style="fill:none;stroke:#000000;stroke-width:1.3;stroke-linecap:round;stroke-linejoin:round;stroke-miterlimit:10;" x1="1854.43" y1="616.75" x2="1820.93" y2="616.75"/>
	</g>
	<g id="LWPOLYLINE_619_">
		
			<line style="fill:none;stroke:#000000;stroke-width:1.3;stroke-linecap:round;stroke-linejoin:round;stroke-miterlimit:10;" x1="1837.68" y1="600" x2="1837.68" y2="633.5"/>
	</g>
	<g id="CIRCLE_22_">
		
			<circle style="fill:none;stroke:#000000;stroke-width:1.3;stroke-linecap:round;stroke-linejoin:round;stroke-miterlimit:10;" cx="1837.68" cy="616.74" r="13.41"/>
	</g>
	<g id="LWPOLYLINE_618_">
		
			<line style="fill:none;stroke:#000000;stroke-width:1.3;stroke-linecap:round;stroke-linejoin:round;stroke-miterlimit:10;" x1="1804.18" y1="616.75" x2="1770.68" y2="616.75"/>
	</g>
	<g id="LWPOLYLINE_617_">
		
			<line style="fill:none;stroke:#000000;stroke-width:1.3;stroke-linecap:round;stroke-linejoin:round;stroke-miterlimit:10;" x1="1787.43" y1="600" x2="1787.43" y2="633.5"/>
	</g>
	<g id="CIRCLE_21_">
		
			<circle style="fill:none;stroke:#000000;stroke-width:1.3;stroke-linecap:round;stroke-linejoin:round;stroke-miterlimit:10;" cx="1787.43" cy="616.75" r="13.4"/>
	</g>
	<g id="LWPOLYLINE_571_">
		
			<rect x="1762.3" y="874.57" style="fill:none;stroke:#000000;stroke-width:1.3;stroke-linecap:round;stroke-linejoin:round;stroke-miterlimit:10;" width="100.5" height="100.5"/>
	</g>
	<g id="LWPOLYLINE_570_">
		<path style="fill:none;stroke:#000000;stroke-width:1.3;stroke-linecap:round;stroke-linejoin:round;stroke-miterlimit:10;" d="
			M1776.53,966.7l63.61,0c3.24,0,5.86-2.62,5.86-5.86c0,0,0,0,0,0l0-72.03c0-3.24-2.62-5.86-5.86-5.86c0,0,0,0,0,0h-63.61
			c-3.24,0-5.86,2.62-5.86,5.86c0,0,0,0,0,0v72.03C1770.67,964.07,1773.3,966.69,1776.53,966.7z"/>
	</g>
	<g id="LWPOLYLINE_569_">
		<path style="fill:none;stroke:#000000;stroke-width:1.3;stroke-linecap:round;stroke-linejoin:round;stroke-miterlimit:10;" d="
			M1823.84,941.57c0,3.25,2.63,5.88,5.88,5.88c0,0,0,0,0,0c3.25,0,5.88-2.63,5.88-5.88c0,0,0,0,0,0c0-3.25-2.63-5.88-5.88-5.88
			c0,0,0,0,0,0C1826.47,935.69,1823.84,938.32,1823.84,941.57C1823.84,941.57,1823.84,941.57,1823.84,941.57z"/>
	</g>
	<g id="LWPOLYLINE_219_">
		
			<line style="fill:none;stroke:#000000;stroke-width:1.3;stroke-linecap:round;stroke-linejoin:round;stroke-miterlimit:10;" x1="1464.33" y1="1242.1" x2="1298.89" y2="1242.1"/>
	</g>
	<g id="LWPOLYLINE_218_">
		
			<line style="fill:none;stroke:#000000;stroke-width:1.3;stroke-linecap:round;stroke-linejoin:round;stroke-miterlimit:10;" x1="1464.33" y1="1233.72" x2="1298.89" y2="1233.72"/>
	</g>
	<g id="LWPOLYLINE_217_">
		
			<rect x="1344.91" y="1259.16" style="fill:none;stroke:#000000;stroke-width:1.3;stroke-linecap:round;stroke-linejoin:round;stroke-miterlimit:10;" width="70.09" height="23.1"/>
	</g>
	<g id="LWPOLYLINE_216_">
		
			<polyline style="fill:none;stroke:#000000;stroke-width:1.3;stroke-linecap:round;stroke-linejoin:round;stroke-miterlimit:10;" points="
			1344.9,1282.27 1350.26,1264.97 1415,1259.16 		"/>
	</g>
	<g id="LWPOLYLINE_215_">
		
			<line style="fill:none;stroke:#000000;stroke-width:1.3;stroke-linecap:round;stroke-linejoin:round;stroke-miterlimit:10;" x1="1298.89" y1="1026.16" x2="1298.89" y2="1103.69"/>
	</g>
	<g id="LWPOLYLINE_214_">
		<path style="fill:none;stroke:#000000;stroke-width:1.3;stroke-linecap:round;stroke-linejoin:round;stroke-miterlimit:10;" d="
			M1298.89,1103.69l39.83,0c5.61,0,10.58-3.62,12.3-8.96c6.24-19.38,6.24-40.23,0-59.61c-1.72-5.34-6.69-8.96-12.3-8.96h-39.83"/>
	</g>
	<g id="LWPOLYLINE_213_">
		<path style="fill:none;stroke:#000000;stroke-width:1.3;stroke-linecap:round;stroke-linejoin:round;stroke-miterlimit:10;" d="
			M1310.04,1044.25C1310.04,1044.25,1310.04,1044.25,1310.04,1044.25c0-4.28,3.47-7.75,7.75-7.75h12.41c2.84,0,5.34,1.85,6.18,4.57
			c4.76,15.55,4.76,32.17,0,47.72c-0.83,2.72-3.34,4.57-6.18,4.57h-12.41c-4.28,0-7.76-3.47-7.76-7.76"/>
	</g>
	<g id="LWPOLYLINE_212_">
		<path style="fill:none;stroke:#000000;stroke-width:1.3;stroke-linecap:round;stroke-linejoin:round;stroke-miterlimit:10;" d="
			M1317.79,1098.52c-4.28,0-7.75-3.47-7.75-7.75v-51.69c0,0,0,0,0-0.01c0-4.28,3.47-7.75,7.75-7.75h20.93
			c3.37,0,6.35,2.17,7.38,5.38c5.91,18.35,5.91,38.09,0,56.44c-1.03,3.2-4.01,5.38-7.38,5.38H1317.79z"/>
	</g>
	<g id="LWPOLYLINE_211_">
		<path style="fill:none;stroke:#000000;stroke-width:1.3;stroke-linecap:round;stroke-linejoin:round;stroke-miterlimit:10;" d="
			M1312.35,1064.93c0-1.92,1.55-3.48,3.48-3.48c1.92,0,3.48,1.56,3.48,3.48c0,1.92-1.56,3.48-3.48,3.48
			C1313.9,1068.4,1312.35,1066.85,1312.35,1064.93z"/>
	</g>
	<g id="LWPOLYLINE_210_">
		
			<line style="fill:none;stroke:#000000;stroke-width:1.3;stroke-linecap:round;stroke-linejoin:round;stroke-miterlimit:10;" x1="1401.41" y1="1210.55" x2="1356.16" y2="1210.55"/>
	</g>
	<g id="LWPOLYLINE_209_">
		<path style="fill:none;stroke:#000000;stroke-width:1.3;stroke-linecap:round;stroke-linejoin:round;stroke-miterlimit:10;" d="
			M1352.6,1203.01v-31.68c0-16.66,13.51-30.16,30.16-30.16c16.66,0,30.16,13.5,30.16,30.16v31.68c0,4.16-3.38,7.54-7.54,7.54h-45.25
			c0,0,0,0-0.01,0C1355.97,1210.55,1352.6,1207.18,1352.6,1203.01z"/>
	</g>
	<g id="LWPOLYLINE_208_">
		<path style="fill:none;stroke:#000000;stroke-width:1.3;stroke-linecap:round;stroke-linejoin:round;stroke-miterlimit:10;" d="
			M1406.9,1171.34v10.58c0,13.33-10.8,24.13-24.13,24.13c-13.33,0-24.13-10.8-24.14-24.13v-10.58c0-13.33,10.8-24.13,24.13-24.13
			C1396.09,1147.21,1406.89,1158.01,1406.9,1171.34z"/>
	</g>
	<g id="LWPOLYLINE_207_">
		<path style="fill:none;stroke:#000000;stroke-width:1.3;stroke-linecap:round;stroke-linejoin:round;stroke-miterlimit:10;" d="
			M1391.81,1181.05v10.58c0,0,0,0,0,0c0,5-4.05,9.05-9.05,9.05s-9.05-4.05-9.05-9.05v-10.58c0-5,4.05-9.05,9.05-9.05
			C1387.76,1172,1391.81,1176.05,1391.81,1181.05z"/>
	</g>
	<g id="LWPOLYLINE_206_">
		
			<rect x="1334.67" y="1210.55" style="fill:none;stroke:#000000;stroke-width:1.3;stroke-linecap:round;stroke-linejoin:round;stroke-miterlimit:10;" width="96.18" height="23.17"/>
	</g>
	<g id="LWPOLYLINE_190_">
		
			<rect x="987.28" y="1165.53" style="fill:none;stroke:#000000;stroke-width:1.3;stroke-linecap:round;stroke-linejoin:round;stroke-miterlimit:10;" width="289.86" height="119.36"/>
	</g>
	<g id="LWPOLYLINE_189_">
		<path style="fill:none;stroke:#000000;stroke-width:1.3;stroke-linecap:round;stroke-linejoin:round;stroke-miterlimit:10;" d="
			M1027.51,1175.08h189.25c27.68,0,50.12,22.44,50.12,50.12c0,27.68-22.44,50.13-50.12,50.13h-189.25c-13.23,0-24-10.64-24.16-23.87
			v-52.52c0-13.18,10.69-23.87,23.87-23.87"/>
	</g>
	<g id="SPLINE_3_">
		<path style="fill:none;stroke:#000000;stroke-width:1.3;stroke-linecap:round;stroke-linejoin:round;stroke-miterlimit:10;" d="
			M1027.23,1175.08c0.09,0,0.19,0,0.28,0"/>
	</g>
	<g id="LWPOLYLINE_188_">
		<path style="fill:none;stroke:#000000;stroke-width:1.3;stroke-linecap:round;stroke-linejoin:round;stroke-miterlimit:10;" d="
			M1087.11,1188.72h129.65c0,0,0,0,0,0c20.15,0,36.49,16.34,36.49,36.49s-16.34,36.49-36.49,36.49h-127.77
			c-19.41-0.01-35.42-15.22-36.44-34.61C1051.5,1206.96,1066.97,1189.78,1087.11,1188.72z"/>
	</g>
	<g id="LWPOLYLINE_187_">
		
			<line style="fill:none;stroke:#000000;stroke-width:1.3;stroke-linecap:round;stroke-linejoin:round;stroke-miterlimit:10;" x1="1052.5" y1="1225.21" x2="1052.5" y2="1225.17"/>
	</g>
	<g id="LWPOLYLINE_186_">
		<path style="fill:none;stroke:#000000;stroke-width:1.3;stroke-linecap:round;stroke-linejoin:round;stroke-miterlimit:10;" d="
			M1223.44,1225.21c0,3.69-2.99,6.68-6.68,6.68c0,0,0,0-0.01,0c-3.69,0-6.68-2.99-6.67-6.68c0,0,0,0,0-0.01
			c0-3.69,2.99-6.68,6.68-6.67C1220.45,1218.53,1223.44,1221.52,1223.44,1225.21z"/>
	</g>
	<g id="LWPOLYLINE_185_">
		<path style="fill:none;stroke:#000000;stroke-width:1.3;stroke-linecap:round;stroke-linejoin:round;stroke-miterlimit:10;" d="
			M1216.76,1188.72C1216.76,1188.72,1216.76,1188.72,1216.76,1188.72c20.16,0,36.49,16.34,36.49,36.49c0,0,0,0,0,0
			c0,20.15-16.34,36.49-36.49,36.48"/>
	</g>
	<g id="LWPOLYLINE_184_">
		
			<line style="fill:none;stroke:#000000;stroke-width:1.3;stroke-linecap:round;stroke-linejoin:round;stroke-miterlimit:10;" x1="990.61" y1="1114.73" x2="990.61" y2="1037.19"/>
	</g>
	<g id="LWPOLYLINE_183_">
		<path style="fill:none;stroke:#000000;stroke-width:1.3;stroke-linecap:round;stroke-linejoin:round;stroke-miterlimit:10;" d="
			M990.61,1037.19l39.83,0c5.61,0,10.58,3.62,12.3,8.96c6.24,19.38,6.24,40.23,0,59.61c-1.72,5.34-6.69,8.96-12.3,8.96h-39.83"/>
	</g>
	<g id="LWPOLYLINE_182_">
		<path style="fill:none;stroke:#000000;stroke-width:1.3;stroke-linecap:round;stroke-linejoin:round;stroke-miterlimit:10;" d="
			M1001.75,1096.64c0,4.28,3.47,7.75,7.75,7.75c0,0,0,0,0,0h12.41c2.84,0,5.34-1.85,6.18-4.57c4.76-15.55,4.76-32.17,0-47.72
			c-0.83-2.71-3.34-4.57-6.18-4.57h-12.41c-4.28,0-7.76,3.47-7.76,7.76"/>
	</g>
	<g id="LWPOLYLINE_181_">
		<path style="fill:none;stroke:#000000;stroke-width:1.3;stroke-linecap:round;stroke-linejoin:round;stroke-miterlimit:10;" d="
			M1009.51,1042.36c-4.28,0-7.75,3.47-7.75,7.75v51.69c0,4.28,3.47,7.75,7.75,7.75c0,0,0,0,0.01,0h20.93c3.37,0,6.35-2.17,7.38-5.38
			c5.91-18.35,5.91-38.09,0-56.44c-1.03-3.2-4.01-5.38-7.38-5.38H1009.51z"/>
	</g>
	<g id="LWPOLYLINE_180_">
		<path style="fill:none;stroke:#000000;stroke-width:1.3;stroke-linecap:round;stroke-linejoin:round;stroke-miterlimit:10;" d="
			M1004.06,1075.96c0,1.92,1.55,3.48,3.48,3.48c1.92,0,3.48-1.56,3.48-3.48c0-1.92-1.56-3.48-3.48-3.48
			C1005.62,1072.48,1004.06,1074.04,1004.06,1075.96z"/>
	</g>
	<g id="LWPOLYLINE_149_">
		
			<rect x="1196.75" y="1012.41" style="fill:none;stroke:#000000;stroke-width:1.3;stroke-linecap:round;stroke-linejoin:round;stroke-miterlimit:10;" width="80.4" height="100.55"/>
	</g>
	<g id="LWPOLYLINE_148_">
		
			<polyline style="fill:none;stroke:#000000;stroke-width:1.3;stroke-linecap:round;stroke-linejoin:round;stroke-miterlimit:10;" points="
			1262.96,1028.22 1222.97,1062.68 1250.11,1062.68 1210.13,1097.14 		"/>
	</g>
	<g id="LWPOLYLINE_147_">
		<path style="fill:none;stroke:#000000;stroke-width:1.3;stroke-linecap:round;stroke-linejoin:round;stroke-miterlimit:10;" d="
			M1266.71,1062.69c0,16.66-13.5,30.16-30.16,30.16c-16.66,0-30.16-13.5-30.17-30.16c0-16.66,13.51-30.17,30.17-30.17
			C1253.2,1032.52,1266.71,1046.03,1266.71,1062.69z"/>
	</g>
	<g>
		<polygon points="205.01,901.22 239.13,901.22 239.13,804.51 852.63,804.51 852.63,813.04 864.56,813.04 864.56,804.51 
			905.97,804.51 905.97,792.57 239.13,792.57 239.13,713.6 205.01,713.63 205.01,705.1 193.07,705.1 193.07,909.75 205.01,909.75 		
			"/>
		<path d="M205.01,543.04h34.11V498.7h40.93V239.45h313.83v-34.11h8.53V193.4H239.13l-34.11,0.03v-0.03h-11.94v358.17h11.94V543.04z
			 M239.14,205.34l-0.01,17.06v-17.06H239.14z"/>
		<polygon points="1480.11,1135.31 1464.33,1135.31 1464.33,1300.33 1298.89,1300.33 1298.89,990.34 1464.33,990.34 1464.33,998.86 
			1480.11,998.86 1480.11,990.34 1480.11,974.56 1196.13,974.56 1196.13,990.34 1277.14,990.34 1277.14,1300.33 987.28,1300.33 
			987.28,990.34 1059.68,990.34 1059.68,974.56 963.49,974.56 864.56,974.56 864.56,966.54 852.63,966.54 852.63,986.5 
			864.56,986.5 963.49,986.5 963.49,990.34 963.49,1300.33 239.13,1300.33 239.13,1174.11 205.01,1174.14 205.01,1165.61 
			193.07,1165.61 193.07,1363.51 205.01,1363.51 239.13,1363.51 239.13,1337.85 1523.43,1337.85 1523.43,1300.33 1480.11,1300.33 		
			"/>
		<polygon points="917.95,239.45 1044.12,239.45 1044.12,549.87 1069.7,549.87 1069.7,792.57 1059.47,792.57 1059.47,804.51 
			1069.7,804.51 1081.64,804.51 1081.64,549.87 1081.64,239.45 1156.73,239.45 1156.71,205.34 1165.23,205.34 1165.23,193.4 
			909.42,193.4 909.42,205.34 917.95,205.34 		"/>
		<polygon points="1369.93,205.34 1378.46,205.34 1378.46,239.45 1566.07,239.45 1566.05,205.34 1574.57,205.34 1574.57,193.4 
			1369.93,193.4 		"/>
		<path d="M1779.27,193.4v11.94h8.53v34.11h75v735.62h-104.85v11.94v39.23h6.82h98.03v274.09h-163.69v37.52h163.69h37.52V239.45
			v-34.11V193.4H1779.27z M1862.8,1019.42h-98.03v-32.41h98.03V1019.42z"/>
	</g>
</g>
</svg>
