<?xml version="1.0" encoding="utf-8"?>
<!-- Generator: Adobe Illustrator 24.3.0, SVG Export Plug-In . SVG Version: 6.00 Build 0)  -->
<svg version="1.1" id="Layer_1" xmlns="http://www.w3.org/2000/svg" xmlns:xlink="http://www.w3.org/1999/xlink" x="0px" y="0px"
	 width="2000px" height="1455.54px" viewBox="0 0 2000 1455.54" style="enable-background:new 0 0 2000 1455.54;"
	 xml:space="preserve">
<path id="background" style="fill:#FFFFFF;" d="M1900.33,1273.99v80.9c0,0,0,0.01,0,0.01c0,0.04-0.02,0.07-0.02,0.11
	c-0.01,0.05-0.01,0.1-0.03,0.15c0,0,0,0,0,0.01c0,0.01-0.01,0.01-0.01,0.01c-0.05,0.1-0.12,0.17-0.2,0.23
	c-0.02,0.02-0.04,0.03-0.06,0.04c-0.09,0.05-0.2,0.09-0.31,0.09h-178.51c-0.12,0-0.22-0.04-0.31-0.09
	c-0.02-0.01-0.04-0.03-0.06-0.04c-0.08-0.06-0.16-0.14-0.2-0.23c0-0.01-0.01-0.01-0.01-0.01c0,0,0,0,0-0.01
	c-0.02-0.04-0.02-0.1-0.03-0.15c-0.01-0.04-0.02-0.07-0.02-0.11c0,0,0-0.01,0-0.01v-53.71v-27.18v-0.27h-267.12
	c-0.36,0-0.65-0.29-0.65-0.65c0,0,0,0,0,0h-43.33v0.92v13.18v67.71c0,0,0,0.01,0,0.01c0,0.04-0.02,0.07-0.02,0.11
	c-0.01,0.05-0.01,0.1-0.03,0.15c0,0,0,0,0,0.01c0,0.01-0.01,0.01-0.01,0.01c-0.05,0.1-0.12,0.17-0.2,0.23
	c-0.02,0.02-0.04,0.03-0.06,0.04c-0.09,0.05-0.2,0.09-0.31,0.09h-178.51c-0.12,0-0.22-0.04-0.31-0.09
	c-0.02-0.01-0.04-0.03-0.06-0.04c-0.08-0.06-0.16-0.14-0.2-0.23c0-0.01-0.01-0.01-0.01-0.01c0,0,0,0,0-0.01
	c-0.02-0.04-0.02-0.1-0.03-0.15c-0.01-0.04-0.02-0.07-0.02-0.11c0,0,0-0.01,0-0.01v-80.9c0,0,0-0.01,0-0.01
	c0-0.04,0.02-0.07,0.02-0.11c0.01-0.05,0.01-0.1,0.03-0.15c0,0,0,0,0-0.01c0,0,0,0,0,0H963.07c0,0,0,0,0,0c0,0,0,0.01,0,0.01
	c0.02,0.04,0.02,0.09,0.03,0.13c0.01,0.04,0.02,0.08,0.03,0.12c0,0,0,0.01,0,0.01v80.9c0,0,0,0.01,0,0.01
	c0,0.04-0.02,0.08-0.03,0.12c-0.01,0.04-0.01,0.09-0.03,0.13c0,0,0,0.01,0,0.01c0,0.01-0.01,0.01-0.01,0.02
	c-0.05,0.09-0.12,0.17-0.2,0.23c-0.02,0.02-0.04,0.03-0.07,0.04c-0.09,0.05-0.2,0.09-0.31,0.09H783.97c-0.12,0-0.22-0.04-0.31-0.09
	c-0.02-0.01-0.04-0.03-0.07-0.04c-0.08-0.06-0.15-0.14-0.2-0.23c0-0.01-0.01-0.01-0.01-0.02c0,0,0-0.01,0-0.01
	c-0.02-0.04-0.02-0.09-0.03-0.13c-0.01-0.04-0.02-0.08-0.03-0.12c0,0,0-0.01,0-0.01v-80.9c0,0,0-0.01,0-0.01
	c0-0.04,0.02-0.08,0.03-0.12c0.01-0.04,0.01-0.09,0.03-0.13c0,0,0-0.01,0-0.01c0,0,0,0,0,0H516.2c-0.36,0-0.65-0.29-0.65-0.65
	c0,0,0,0,0,0h-88.61h-10.41h-29.75h-35.7v-40.18v-35.69V886.29H129.43H99.68V231.75h29.75h94.46v6.84h6.8
	c0.3-76.4,62.51-138.51,138.99-138.59h0c0.18,0,0.34,0.07,0.46,0.19c0.01,0.01,0.01,0.02,0.02,0.03c0.05,0.05,0.09,0.11,0.12,0.18
	c0.02,0.04,0.02,0.08,0.03,0.13c0.01,0.04,0.03,0.08,0.03,0.13c0,0,0,0,0,0s0,0,0,0v137.94h6.79v-6.84h311.65h223.14v32.73v25.29
	h391.24v-58.02h32.73h458.18h32.73v1001.16h72.89v29.75v10.41h-0.12v0.3c0.04-0.01,0.08-0.02,0.11-0.02c0,0,0,0,0.01,0
	c0.03,0,0.06,0.01,0.09,0.02c0.05,0.01,0.1,0.01,0.15,0.03c0.04,0.02,0.08,0.05,0.12,0.07c0.03,0.02,0.06,0.03,0.09,0.06
	c0.04,0.04,0.07,0.09,0.1,0.14c0.01,0.02,0.03,0.04,0.04,0.06c0,0,0,0,0,0.01c0.02,0.04,0.02,0.1,0.03,0.15
	C1900.31,1273.91,1900.32,1273.95,1900.33,1273.99C1900.32,1273.99,1900.33,1273.99,1900.33,1273.99z"/>
<g id="h2">
	<path id="h2_path" style="fill:none;" d="M1330.69,582.43H890.33V303.15h440.36V582.43z"/>
	<text id="h2_text" transform="matrix(1 0 0 1 1111.6827 459.4707)" style="font-family:'GraphikLCG-Regular'; font-size:40px;"></text>
</g>
<g id="h1">
	<path id="h1_path" style="fill:none;" d="M399.15,589.92H114.57V251.04h284.58V589.92z"/>
	<text id="h1_text" transform="matrix(1 0 0 1 264.1813 374.7361)" style="font-family:'GraphikLCG-Regular'; font-size:40px;"></text>
</g>
<g id="c1">
	<path id="c1_path" style="fill:none;" d="M890.33,251.04v577.67v381.42v62.94H397.71l0,0h-34.17V863.2h35.61V251.04H890.33z"/>
	<text id="c1_text" transform="matrix(1 0 0 1 633.1157 934.0459)" style="font-family:'GraphikLCG-Regular'; font-size:40px;"></text>
</g>
<g id="s2">
	<path id="s2_path" style="fill:none;" d="M1810.44,638.27h-285.95V251.04h285.95V638.27z"/>
	<text id="s2_text" transform="matrix(1 0 0 1 1627.108 476.7344)" style="font-family:'GraphikLCG-Regular'; font-size:40px;"></text>
</g>
<g id="s1">
	<path id="s1_path" style="fill:none;" d="M399.15,863.2H114.57V589.92h284.58V863.2z"/>
	<text id="s1_text" transform="matrix(1 0 0 1 311.22 670.1416)" style="font-family:'GraphikLCG-Regular'; font-size:40px;"></text>
</g>
<g id="r2">
	<path id="r2_path" style="fill:none;" d="M1810.44,638.27v634.8h-479.75V611.31V251.04h193.8v387.24H1810.44z"/>
	<text id="r2_text" transform="matrix(1 0 0 1 1576.1465 934.0458)" style="font-family:'GraphikLCG-Regular'; font-size:40px;"></text>
</g>
<g id="r1">
	<path id="r1_path" style="fill:none;" d="M1330.69,1273.07H890.33V582.43h440.36V1273.07z"/>
	<text id="r1_text" transform="matrix(1 0 0 1 1111.6823 934.0458)" style="font-family:'GraphikLCG-Regular'; font-size:40px;"></text>
</g>
<g id="floor">
	<g id="LINE_267_">
		
			<line style="fill:none;stroke:#000000;stroke-width:1.3;stroke-linecap:round;stroke-linejoin:round;stroke-miterlimit:10;" x1="1899.68" y1="1354.89" x2="1721.16" y2="1354.89"/>
	</g>
	<g id="LINE_266_">
		
			<line style="fill:none;stroke:#000000;stroke-width:1.3;stroke-linecap:round;stroke-linejoin:round;stroke-miterlimit:10;" x1="1721.16" y1="1354.89" x2="1721.16" y2="1273.99"/>
	</g>
	<g id="LINE_265_">
		
			<line style="fill:none;stroke:#000000;stroke-width:1.3;stroke-linecap:round;stroke-linejoin:round;stroke-miterlimit:10;" x1="1899.68" y1="1273.99" x2="1899.68" y2="1354.89"/>
	</g>
	<g id="LWPOLYLINE_748_">
		
			<line style="fill:none;stroke:#000000;stroke-width:1.3;stroke-linecap:round;stroke-linejoin:round;stroke-miterlimit:10;" x1="1721.16" y1="1273.99" x2="1899.68" y2="1354.89"/>
	</g>
	<g id="LWPOLYLINE_747_">
		
			<line style="fill:none;stroke:#000000;stroke-width:1.3;stroke-linecap:round;stroke-linejoin:round;stroke-miterlimit:10;" x1="1899.68" y1="1273.99" x2="1721.16" y2="1354.89"/>
	</g>
	<g id="LINE_264_">
		
			<line style="fill:none;stroke:#000000;stroke-width:1.3;stroke-linecap:round;stroke-linejoin:round;stroke-miterlimit:10;" x1="1408.77" y1="1354.89" x2="1230.25" y2="1354.89"/>
	</g>
	<g id="LINE_263_">
		
			<line style="fill:none;stroke:#000000;stroke-width:1.3;stroke-linecap:round;stroke-linejoin:round;stroke-miterlimit:10;" x1="1230.25" y1="1354.89" x2="1230.25" y2="1273.99"/>
	</g>
	<g id="LINE_262_">
		
			<line style="fill:none;stroke:#000000;stroke-width:1.3;stroke-linecap:round;stroke-linejoin:round;stroke-miterlimit:10;" x1="1408.77" y1="1273.99" x2="1408.77" y2="1354.89"/>
	</g>
	<g id="LWPOLYLINE_746_">
		
			<line style="fill:none;stroke:#000000;stroke-width:1.3;stroke-linecap:round;stroke-linejoin:round;stroke-miterlimit:10;" x1="1230.25" y1="1273.99" x2="1408.77" y2="1354.89"/>
	</g>
	<g id="LWPOLYLINE_745_">
		
			<line style="fill:none;stroke:#000000;stroke-width:1.3;stroke-linecap:round;stroke-linejoin:round;stroke-miterlimit:10;" x1="1408.77" y1="1273.99" x2="1230.25" y2="1354.89"/>
	</g>
	<g id="LINE_261_">
		
			<line style="fill:none;stroke:#000000;stroke-width:1.3;stroke-linecap:round;stroke-linejoin:round;stroke-miterlimit:10;" x1="962.48" y1="1354.89" x2="783.97" y2="1354.89"/>
	</g>
	<g id="LINE_260_">
		
			<line style="fill:none;stroke:#000000;stroke-width:1.3;stroke-linecap:round;stroke-linejoin:round;stroke-miterlimit:10;" x1="783.97" y1="1354.89" x2="783.97" y2="1273.99"/>
	</g>
	<g id="LINE_259_">
		
			<line style="fill:none;stroke:#000000;stroke-width:1.3;stroke-linecap:round;stroke-linejoin:round;stroke-miterlimit:10;" x1="962.48" y1="1273.99" x2="962.48" y2="1354.89"/>
	</g>
	<g id="LWPOLYLINE_744_">
		
			<line style="fill:none;stroke:#000000;stroke-width:1.3;stroke-linecap:round;stroke-linejoin:round;stroke-miterlimit:10;" x1="783.97" y1="1273.99" x2="962.48" y2="1354.89"/>
	</g>
	<g id="LWPOLYLINE_743_">
		
			<line style="fill:none;stroke:#000000;stroke-width:1.3;stroke-linecap:round;stroke-linejoin:round;stroke-miterlimit:10;" x1="962.48" y1="1273.99" x2="783.97" y2="1354.89"/>
	</g>
	<g id="LWPOLYLINE_742_">
		
			<rect x="1518.51" y="401.26" style="fill:none;stroke:#000000;stroke-width:1.3;stroke-linecap:round;stroke-linejoin:round;stroke-miterlimit:10;" width="11.9" height="7.44"/>
	</g>
	<g id="LWPOLYLINE_741_">
		
			<rect x="1518.51" y="512.83" style="fill:none;stroke:#000000;stroke-width:1.3;stroke-linecap:round;stroke-linejoin:round;stroke-miterlimit:10;" width="11.9" height="7.44"/>
	</g>
	<g id="LINE_258_">
		
			<line style="fill:none;stroke:#000000;stroke-width:1.3;stroke-linecap:round;stroke-linejoin:round;stroke-miterlimit:10;" x1="1518.51" y1="401.26" x2="1530.41" y2="401.26"/>
	</g>
	<g id="LINE_257_">
		
			<line style="fill:none;stroke:#000000;stroke-width:1.3;stroke-linecap:round;stroke-linejoin:round;stroke-miterlimit:10;" x1="1518.51" y1="520.27" x2="1530.41" y2="520.27"/>
	</g>
	<g id="LINE_256_">
		
			<line style="fill:none;stroke:#000000;stroke-width:1.3;stroke-linecap:round;stroke-linejoin:round;stroke-miterlimit:10;" x1="1518.51" y1="408.7" x2="1414.38" y2="408.7"/>
	</g>
	<g id="ARC_21_">
		<path style="fill:none;stroke:#000000;stroke-width:1.3;stroke-linecap:round;stroke-linejoin:round;stroke-miterlimit:10;" d="
			M1518.51,512.83c-55.78-0.04-101.65-43.95-104.13-99.67"/>
	</g>
	<g id="LINE_255_">
		
			<line style="fill:none;stroke:#000000;stroke-width:1.3;stroke-linecap:round;stroke-linejoin:round;stroke-miterlimit:10;" x1="1414.38" y1="408.7" x2="1414.38" y2="413.16"/>
	</g>
	<g id="LWPOLYLINE_740_">
		
			<rect x="333.82" y="583.98" style="fill:none;stroke:#000000;stroke-width:1.3;stroke-linecap:round;stroke-linejoin:round;stroke-miterlimit:10;" width="7.44" height="11.9"/>
	</g>
	<g id="LWPOLYLINE_739_">
		
			<rect x="222.25" y="583.97" style="fill:none;stroke:#000000;stroke-width:1.3;stroke-linecap:round;stroke-linejoin:round;stroke-miterlimit:10;" width="7.44" height="11.9"/>
	</g>
	<g id="LINE_254_">
		
			<line style="fill:none;stroke:#000000;stroke-width:1.3;stroke-linecap:round;stroke-linejoin:round;stroke-miterlimit:10;" x1="341.26" y1="583.98" x2="341.26" y2="595.88"/>
	</g>
	<g id="LINE_253_">
		
			<line style="fill:none;stroke:#000000;stroke-width:1.3;stroke-linecap:round;stroke-linejoin:round;stroke-miterlimit:10;" x1="222.25" y1="583.97" x2="222.25" y2="595.88"/>
	</g>
	<g id="LINE_252_">
		
			<line style="fill:none;stroke:#000000;stroke-width:1.3;stroke-linecap:round;stroke-linejoin:round;stroke-miterlimit:10;" x1="333.82" y1="583.98" x2="333.82" y2="479.84"/>
	</g>
	<g id="ARC_20_">
		<path style="fill:none;stroke:#000000;stroke-width:1.3;stroke-linecap:round;stroke-linejoin:round;stroke-miterlimit:10;" d="
			M229.69,583.97c0.04-55.78,43.95-101.65,99.67-104.13"/>
	</g>
	<g id="LINE_251_">
		
			<line style="fill:none;stroke:#000000;stroke-width:1.3;stroke-linecap:round;stroke-linejoin:round;stroke-miterlimit:10;" x1="333.82" y1="479.84" x2="329.36" y2="479.84"/>
	</g>
	<g id="LWPOLYLINE_738_">
		
			<rect x="1324.72" y="428.48" style="fill:none;stroke:#000000;stroke-width:1.3;stroke-linecap:round;stroke-linejoin:round;stroke-miterlimit:10;" width="11.9" height="7.44"/>
	</g>
	<g id="LWPOLYLINE_737_">
		
			<rect x="1324.72" y="554.93" style="fill:none;stroke:#000000;stroke-width:1.3;stroke-linecap:round;stroke-linejoin:round;stroke-miterlimit:10;" width="11.9" height="7.44"/>
	</g>
	<g id="LINE_250_">
		
			<line style="fill:none;stroke:#000000;stroke-width:1.3;stroke-linecap:round;stroke-linejoin:round;stroke-miterlimit:10;" x1="1324.72" y1="428.48" x2="1336.62" y2="428.48"/>
	</g>
	<g id="LINE_249_">
		
			<line style="fill:none;stroke:#000000;stroke-width:1.3;stroke-linecap:round;stroke-linejoin:round;stroke-miterlimit:10;" x1="1324.72" y1="562.37" x2="1336.62" y2="562.37"/>
	</g>
	<g id="LINE_248_">
		
			<line style="fill:none;stroke:#000000;stroke-width:1.3;stroke-linecap:round;stroke-linejoin:round;stroke-miterlimit:10;" x1="1324.72" y1="435.92" x2="1205.71" y2="435.92"/>
	</g>
	<g id="LINE_247_">
		
			<line style="fill:none;stroke:#000000;stroke-width:1.3;stroke-linecap:round;stroke-linejoin:round;stroke-miterlimit:10;" x1="1205.71" y1="440.38" x2="1205.71" y2="435.92"/>
	</g>
	<g id="ARC_19_">
		<path style="fill:none;stroke:#000000;stroke-width:1.3;stroke-linecap:round;stroke-linejoin:round;stroke-miterlimit:10;" d="
			M1324.72,554.93c-63.99-0.03-116.53-50.6-119.01-114.55"/>
	</g>
	<g id="LWPOLYLINE_736_">
		
			<rect x="1300.17" y="576.48" style="fill:none;stroke:#000000;stroke-width:1.3;stroke-linecap:round;stroke-linejoin:round;stroke-miterlimit:10;" width="7.44" height="11.9"/>
	</g>
	<g id="LWPOLYLINE_735_">
		
			<rect x="1173.72" y="576.5" style="fill:none;stroke:#000000;stroke-width:1.3;stroke-linecap:round;stroke-linejoin:round;stroke-miterlimit:10;" width="7.44" height="11.9"/>
	</g>
	<g id="LINE_246_">
		
			<line style="fill:none;stroke:#000000;stroke-width:1.3;stroke-linecap:round;stroke-linejoin:round;stroke-miterlimit:10;" x1="1307.61" y1="588.38" x2="1307.61" y2="576.48"/>
	</g>
	<g id="LINE_245_">
		
			<line style="fill:none;stroke:#000000;stroke-width:1.3;stroke-linecap:round;stroke-linejoin:round;stroke-miterlimit:10;" x1="1173.73" y1="588.4" x2="1173.72" y2="576.5"/>
	</g>
	<g id="LINE_244_">
		
			<line style="fill:none;stroke:#000000;stroke-width:1.3;stroke-linecap:round;stroke-linejoin:round;stroke-miterlimit:10;" x1="1300.17" y1="588.38" x2="1300.19" y2="707.39"/>
	</g>
	<g id="LINE_243_">
		
			<line style="fill:none;stroke:#000000;stroke-width:1.3;stroke-linecap:round;stroke-linejoin:round;stroke-miterlimit:10;" x1="1295.73" y1="707.39" x2="1300.19" y2="707.39"/>
	</g>
	<g id="ARC_16_">
		<path style="fill:none;stroke:#000000;stroke-width:1.3;stroke-linecap:round;stroke-linejoin:round;stroke-miterlimit:10;" d="
			M1295.73,707.39c-63.94-2.47-114.52-55-114.57-118.99"/>
	</g>
	<g id="LINE_241_">
		
			<line style="fill:none;stroke:#000000;stroke-width:1.3;stroke-linecap:round;stroke-linejoin:round;stroke-miterlimit:10;" x1="369.67" y1="239.24" x2="369.67" y2="100.65"/>
	</g>
	<g id="LWPOLYLINE_733_">
		
			<rect x="223.89" y="239.24" style="fill:none;stroke:#000000;stroke-width:1.3;stroke-linecap:round;stroke-linejoin:round;stroke-miterlimit:10;" width="7.44" height="11.8"/>
	</g>
	<g id="ARC_5_">
		<path style="fill:none;stroke:#000000;stroke-width:1.3;stroke-linecap:round;stroke-linejoin:round;stroke-miterlimit:10;" d="
			M369.67,100.65c-76.47,0.08-138.4,62.12-138.35,138.59"/>
	</g>
	<g id="LWPOLYLINE_732_">
		
			<rect x="369.67" y="239.24" style="fill:none;stroke:#000000;stroke-width:1.3;stroke-linecap:round;stroke-linejoin:round;stroke-miterlimit:10;" width="7.44" height="11.8"/>
	</g>
	<g id="LINE_240_">
		
			<line style="fill:none;stroke:#000000;stroke-width:1.3;stroke-linecap:round;stroke-linejoin:round;stroke-miterlimit:10;" x1="1721.16" y1="1273.07" x2="1453.39" y2="1273.07"/>
	</g>
	<g id="LINE_239_">
		
			<line style="fill:none;stroke:#000000;stroke-width:1.3;stroke-linecap:round;stroke-linejoin:round;stroke-miterlimit:10;" x1="1445.98" y1="1249.27" x2="1582.11" y2="1249.27"/>
	</g>
	<g id="LINE_238_">
		
			<line style="fill:none;stroke:#000000;stroke-width:1.3;stroke-linecap:round;stroke-linejoin:round;stroke-miterlimit:10;" x1="1592.52" y1="1249.27" x2="1728.62" y2="1249.27"/>
	</g>
	<g id="LINE_237_">
		
			<line style="fill:none;stroke:#000000;stroke-width:1.3;stroke-linecap:round;stroke-linejoin:round;stroke-miterlimit:10;" x1="1721.18" y1="1262.66" x2="1721.18" y2="1249.27"/>
	</g>
	<g id="LINE_236_">
		
			<line style="fill:none;stroke:#000000;stroke-width:1.3;stroke-linecap:round;stroke-linejoin:round;stroke-miterlimit:10;" x1="1453.42" y1="1262.66" x2="1453.42" y2="1249.27"/>
	</g>
	<g id="LINE_214_">
		
			<line style="fill:none;stroke:#000000;stroke-width:1.3;stroke-linecap:round;stroke-linejoin:round;stroke-miterlimit:10;" x1="1445.98" y1="1262.66" x2="1582.11" y2="1262.66"/>
	</g>
	<g id="LINE_213_">
		
			<line style="fill:none;stroke:#000000;stroke-width:1.3;stroke-linecap:round;stroke-linejoin:round;stroke-miterlimit:10;" x1="1592.52" y1="1262.66" x2="1728.62" y2="1262.66"/>
	</g>
	<g id="LINE_212_">
		
			<line style="fill:none;stroke:#000000;stroke-width:1.3;stroke-linecap:round;stroke-linejoin:round;stroke-miterlimit:10;" x1="1592.52" y1="1256.34" x2="1712.85" y2="1256.34"/>
	</g>
	<g id="LINE_211_">
		
			<line style="fill:none;stroke:#000000;stroke-width:1.3;stroke-linecap:round;stroke-linejoin:round;stroke-miterlimit:10;" x1="1461.75" y1="1256.34" x2="1582.11" y2="1256.34"/>
	</g>
	<g id="LINE_210_">
		
			<line style="fill:none;stroke:#000000;stroke-width:1.3;stroke-linecap:round;stroke-linejoin:round;stroke-miterlimit:10;" x1="1461.75" y1="1249.27" x2="1461.75" y2="1262.66"/>
	</g>
	<g id="LINE_209_">
		
			<line style="fill:none;stroke:#000000;stroke-width:1.3;stroke-linecap:round;stroke-linejoin:round;stroke-miterlimit:10;" x1="1721.18" y1="1262.66" x2="1721.18" y2="1249.27"/>
	</g>
	<g id="LINE_208_">
		
			<line style="fill:none;stroke:#000000;stroke-width:1.3;stroke-linecap:round;stroke-linejoin:round;stroke-miterlimit:10;" x1="1712.85" y1="1249.27" x2="1712.85" y2="1262.66"/>
	</g>
	<g id="LINE_207_">
		
			<line style="fill:none;stroke:#000000;stroke-width:1.3;stroke-linecap:round;stroke-linejoin:round;stroke-miterlimit:10;" x1="1582.09" y1="1249.27" x2="1592.51" y2="1249.27"/>
	</g>
	<g id="LINE_206_">
		
			<line style="fill:none;stroke:#000000;stroke-width:1.3;stroke-linecap:round;stroke-linejoin:round;stroke-miterlimit:10;" x1="1592.51" y1="1262.66" x2="1582.09" y2="1262.66"/>
	</g>
	<g id="LINE_205_">
		
			<line style="fill:none;stroke:#000000;stroke-width:1.3;stroke-linecap:round;stroke-linejoin:round;stroke-miterlimit:10;" x1="1445.96" y1="1232.91" x2="1728.6" y2="1232.91"/>
	</g>
	<g id="LWPOLYLINE_731_">
		
			<rect x="1582.11" y="1249.27" style="fill:none;stroke:#000000;stroke-width:1.3;stroke-linecap:round;stroke-linejoin:round;stroke-miterlimit:10;" width="10.41" height="13.39"/>
	</g>
	<g id="LINE_204_">
		
			<line style="fill:none;stroke:#000000;stroke-width:1.3;stroke-linecap:round;stroke-linejoin:round;stroke-miterlimit:10;" x1="1230.25" y1="1273.07" x2="962.48" y2="1273.07"/>
	</g>
	<g id="LINE_203_">
		
			<line style="fill:none;stroke:#000000;stroke-width:1.3;stroke-linecap:round;stroke-linejoin:round;stroke-miterlimit:10;" x1="955.07" y1="1249.27" x2="1091.2" y2="1249.27"/>
	</g>
	<g id="LINE_202_">
		
			<line style="fill:none;stroke:#000000;stroke-width:1.3;stroke-linecap:round;stroke-linejoin:round;stroke-miterlimit:10;" x1="1101.61" y1="1249.27" x2="1237.71" y2="1249.27"/>
	</g>
	<g id="LINE_201_">
		
			<line style="fill:none;stroke:#000000;stroke-width:1.3;stroke-linecap:round;stroke-linejoin:round;stroke-miterlimit:10;" x1="1230.28" y1="1262.66" x2="1230.28" y2="1249.27"/>
	</g>
	<g id="LINE_200_">
		
			<line style="fill:none;stroke:#000000;stroke-width:1.3;stroke-linecap:round;stroke-linejoin:round;stroke-miterlimit:10;" x1="962.51" y1="1262.66" x2="962.51" y2="1249.27"/>
	</g>
	<g id="LINE_199_">
		
			<line style="fill:none;stroke:#000000;stroke-width:1.3;stroke-linecap:round;stroke-linejoin:round;stroke-miterlimit:10;" x1="955.07" y1="1262.66" x2="1091.2" y2="1262.66"/>
	</g>
	<g id="LINE_192_">
		
			<line style="fill:none;stroke:#000000;stroke-width:1.3;stroke-linecap:round;stroke-linejoin:round;stroke-miterlimit:10;" x1="1101.61" y1="1262.66" x2="1237.71" y2="1262.66"/>
	</g>
	<g id="LINE_191_">
		
			<line style="fill:none;stroke:#000000;stroke-width:1.3;stroke-linecap:round;stroke-linejoin:round;stroke-miterlimit:10;" x1="1101.61" y1="1256.34" x2="1221.94" y2="1256.34"/>
	</g>
	<g id="LINE_190_">
		
			<line style="fill:none;stroke:#000000;stroke-width:1.3;stroke-linecap:round;stroke-linejoin:round;stroke-miterlimit:10;" x1="970.84" y1="1256.34" x2="1091.2" y2="1256.34"/>
	</g>
	<g id="LINE_189_">
		
			<line style="fill:none;stroke:#000000;stroke-width:1.3;stroke-linecap:round;stroke-linejoin:round;stroke-miterlimit:10;" x1="970.84" y1="1249.27" x2="970.84" y2="1262.66"/>
	</g>
	<g id="LINE_188_">
		
			<line style="fill:none;stroke:#000000;stroke-width:1.3;stroke-linecap:round;stroke-linejoin:round;stroke-miterlimit:10;" x1="1230.28" y1="1262.66" x2="1230.28" y2="1249.27"/>
	</g>
	<g id="LINE_187_">
		
			<line style="fill:none;stroke:#000000;stroke-width:1.3;stroke-linecap:round;stroke-linejoin:round;stroke-miterlimit:10;" x1="1221.94" y1="1249.27" x2="1221.94" y2="1262.66"/>
	</g>
	<g id="LINE_186_">
		
			<line style="fill:none;stroke:#000000;stroke-width:1.3;stroke-linecap:round;stroke-linejoin:round;stroke-miterlimit:10;" x1="1091.19" y1="1249.27" x2="1101.6" y2="1249.27"/>
	</g>
	<g id="LINE_185_">
		
			<line style="fill:none;stroke:#000000;stroke-width:1.3;stroke-linecap:round;stroke-linejoin:round;stroke-miterlimit:10;" x1="1101.6" y1="1262.66" x2="1091.19" y2="1262.66"/>
	</g>
	<g id="LINE_184_">
		
			<line style="fill:none;stroke:#000000;stroke-width:1.3;stroke-linecap:round;stroke-linejoin:round;stroke-miterlimit:10;" x1="955.05" y1="1232.91" x2="1237.69" y2="1232.91"/>
	</g>
	<g id="LWPOLYLINE_730_">
		
			<rect x="1091.2" y="1249.27" style="fill:none;stroke:#000000;stroke-width:1.3;stroke-linecap:round;stroke-linejoin:round;stroke-miterlimit:10;" width="10.41" height="13.39"/>
	</g>
	<g id="LINE_175_">
		
			<line style="fill:none;stroke:#000000;stroke-width:1.3;stroke-linecap:round;stroke-linejoin:round;stroke-miterlimit:10;" x1="783.97" y1="1273.07" x2="516.2" y2="1273.07"/>
	</g>
	<g id="LINE_174_">
		
			<line style="fill:none;stroke:#000000;stroke-width:1.3;stroke-linecap:round;stroke-linejoin:round;stroke-miterlimit:10;" x1="508.79" y1="1249.27" x2="644.92" y2="1249.27"/>
	</g>
	<g id="LINE_173_">
		
			<line style="fill:none;stroke:#000000;stroke-width:1.3;stroke-linecap:round;stroke-linejoin:round;stroke-miterlimit:10;" x1="655.33" y1="1249.27" x2="791.43" y2="1249.27"/>
	</g>
	<g id="LINE_57_">
		
			<line style="fill:none;stroke:#000000;stroke-width:1.3;stroke-linecap:round;stroke-linejoin:round;stroke-miterlimit:10;" x1="783.99" y1="1262.66" x2="783.99" y2="1249.27"/>
	</g>
	<g id="LINE_26_">
		
			<line style="fill:none;stroke:#000000;stroke-width:1.3;stroke-linecap:round;stroke-linejoin:round;stroke-miterlimit:10;" x1="516.23" y1="1262.66" x2="516.23" y2="1249.27"/>
	</g>
	<g id="LINE_25_">
		
			<line style="fill:none;stroke:#000000;stroke-width:1.3;stroke-linecap:round;stroke-linejoin:round;stroke-miterlimit:10;" x1="508.79" y1="1262.66" x2="644.92" y2="1262.66"/>
	</g>
	<g id="LINE_23_">
		
			<line style="fill:none;stroke:#000000;stroke-width:1.3;stroke-linecap:round;stroke-linejoin:round;stroke-miterlimit:10;" x1="655.33" y1="1262.66" x2="791.43" y2="1262.66"/>
	</g>
	<g id="LINE_22_">
		
			<line style="fill:none;stroke:#000000;stroke-width:1.3;stroke-linecap:round;stroke-linejoin:round;stroke-miterlimit:10;" x1="655.33" y1="1256.34" x2="775.66" y2="1256.34"/>
	</g>
	<g id="LINE_21_">
		
			<line style="fill:none;stroke:#000000;stroke-width:1.3;stroke-linecap:round;stroke-linejoin:round;stroke-miterlimit:10;" x1="524.56" y1="1256.34" x2="644.92" y2="1256.34"/>
	</g>
	<g id="LINE_20_">
		
			<line style="fill:none;stroke:#000000;stroke-width:1.3;stroke-linecap:round;stroke-linejoin:round;stroke-miterlimit:10;" x1="524.56" y1="1249.27" x2="524.56" y2="1262.66"/>
	</g>
	<g id="LINE_19_">
		
			<line style="fill:none;stroke:#000000;stroke-width:1.3;stroke-linecap:round;stroke-linejoin:round;stroke-miterlimit:10;" x1="783.99" y1="1262.66" x2="783.99" y2="1249.27"/>
	</g>
	<g id="LINE_18_">
		
			<line style="fill:none;stroke:#000000;stroke-width:1.3;stroke-linecap:round;stroke-linejoin:round;stroke-miterlimit:10;" x1="775.66" y1="1249.27" x2="775.66" y2="1262.66"/>
	</g>
	<g id="LINE_17_">
		
			<line style="fill:none;stroke:#000000;stroke-width:1.3;stroke-linecap:round;stroke-linejoin:round;stroke-miterlimit:10;" x1="644.9" y1="1249.27" x2="655.32" y2="1249.27"/>
	</g>
	<g id="LINE_16_">
		
			<line style="fill:none;stroke:#000000;stroke-width:1.3;stroke-linecap:round;stroke-linejoin:round;stroke-miterlimit:10;" x1="655.32" y1="1262.66" x2="644.9" y2="1262.66"/>
	</g>
	<g id="LINE_15_">
		
			<line style="fill:none;stroke:#000000;stroke-width:1.3;stroke-linecap:round;stroke-linejoin:round;stroke-miterlimit:10;" x1="508.77" y1="1232.91" x2="791.41" y2="1232.91"/>
	</g>
	<g id="LWPOLYLINE_729_">
		
			<rect x="644.92" y="1249.27" style="fill:none;stroke:#000000;stroke-width:1.3;stroke-linecap:round;stroke-linejoin:round;stroke-miterlimit:10;" width="10.41" height="13.39"/>
	</g>
	<g id="LINE_12_">
		<g>
			<g>
				
					<line style="fill:none;stroke:#000000;stroke-width:1.3;stroke-linecap:round;stroke-linejoin:round;" x1="399.13" y1="412.19" x2="399.13" y2="417.19"/>
				
					<line style="fill:none;stroke:#000000;stroke-width:1.3;stroke-linecap:round;stroke-linejoin:round;stroke-dasharray:9.475,9.475;" x1="399.13" y1="426.67" x2="399.13" y2="573.53"/>
				
					<line style="fill:none;stroke:#000000;stroke-width:1.3;stroke-linecap:round;stroke-linejoin:round;" x1="399.13" y1="578.27" x2="399.13" y2="583.27"/>
			</g>
		</g>
	</g>
	<g>
		<g>
			
				<line style="fill:none;stroke:#000000;stroke-width:1.3;stroke-linecap:round;stroke-linejoin:round;" x1="890.34" y1="410.72" x2="890.34" y2="415.72"/>
			
				<line style="fill:none;stroke:#000000;stroke-width:1.3;stroke-linecap:round;stroke-linejoin:round;stroke-dasharray:10.1884,10.1884;" x1="890.34" y1="425.91" x2="890.34" y2="563.45"/>
			
				<line style="fill:none;stroke:#000000;stroke-width:1.3;stroke-linecap:round;stroke-linejoin:round;" x1="890.34" y1="568.55" x2="890.34" y2="573.55"/>
		</g>
	</g>
	<g id="LWPOLYLINE_728_">
		
			<rect x="629.07" y="264.48" style="fill:none;stroke:#000000;stroke-width:1.3;stroke-linecap:round;stroke-linejoin:round;stroke-miterlimit:10;" width="87.66" height="87.66"/>
	</g>
	<g id="LWPOLYLINE_727_">
		
			<line style="fill:none;stroke:#000000;stroke-width:1.3;stroke-linecap:round;stroke-linejoin:round;stroke-miterlimit:10;" x1="650.99" y1="301" x2="650.99" y2="271.78"/>
	</g>
	<g id="LWPOLYLINE_726_">
		
			<line style="fill:none;stroke:#000000;stroke-width:1.3;stroke-linecap:round;stroke-linejoin:round;stroke-miterlimit:10;" x1="665.6" y1="286.39" x2="636.38" y2="286.39"/>
	</g>
	<g id="CIRCLE_26_">
		
			<circle style="fill:none;stroke:#000000;stroke-width:1.3;stroke-linecap:round;stroke-linejoin:round;stroke-miterlimit:10;" cx="650.99" cy="286.39" r="11.69"/>
	</g>
	<g id="LWPOLYLINE_725_">
		
			<line style="fill:none;stroke:#000000;stroke-width:1.3;stroke-linecap:round;stroke-linejoin:round;stroke-miterlimit:10;" x1="650.99" y1="344.83" x2="650.99" y2="315.61"/>
	</g>
	<g id="LWPOLYLINE_724_">
		
			<line style="fill:none;stroke:#000000;stroke-width:1.3;stroke-linecap:round;stroke-linejoin:round;stroke-miterlimit:10;" x1="665.6" y1="330.22" x2="636.38" y2="330.22"/>
	</g>
	<g id="CIRCLE_25_">
		
			<circle style="fill:none;stroke:#000000;stroke-width:1.3;stroke-linecap:round;stroke-linejoin:round;stroke-miterlimit:10;" cx="651" cy="330.22" r="11.69"/>
	</g>
	<g id="LWPOLYLINE_723_">
		
			<line style="fill:none;stroke:#000000;stroke-width:1.3;stroke-linecap:round;stroke-linejoin:round;stroke-miterlimit:10;" x1="694.82" y1="344.83" x2="694.82" y2="315.61"/>
	</g>
	<g id="LWPOLYLINE_722_">
		
			<line style="fill:none;stroke:#000000;stroke-width:1.3;stroke-linecap:round;stroke-linejoin:round;stroke-miterlimit:10;" x1="709.43" y1="330.22" x2="680.21" y2="330.22"/>
	</g>
	<g id="CIRCLE_24_">
		
			<circle style="fill:none;stroke:#000000;stroke-width:1.3;stroke-linecap:round;stroke-linejoin:round;stroke-miterlimit:10;" cx="694.83" cy="330.22" r="11.69"/>
	</g>
	<g id="LWPOLYLINE_721_">
		
			<line style="fill:none;stroke:#000000;stroke-width:1.3;stroke-linecap:round;stroke-linejoin:round;stroke-miterlimit:10;" x1="694.82" y1="301" x2="694.82" y2="271.78"/>
	</g>
	<g id="LWPOLYLINE_720_">
		
			<line style="fill:none;stroke:#000000;stroke-width:1.3;stroke-linecap:round;stroke-linejoin:round;stroke-miterlimit:10;" x1="709.43" y1="286.39" x2="680.21" y2="286.39"/>
	</g>
	<g id="CIRCLE_23_">
		
			<circle style="fill:none;stroke:#000000;stroke-width:1.3;stroke-linecap:round;stroke-linejoin:round;stroke-miterlimit:10;" cx="694.82" cy="286.39" r="11.69"/>
	</g>
	<g id="LWPOLYLINE_705_">
		
			<rect x="797.47" y="264.48" style="fill:none;stroke:#000000;stroke-width:1.3;stroke-linecap:round;stroke-linejoin:round;stroke-miterlimit:10;" width="87.66" height="87.66"/>
	</g>
	<g id="LWPOLYLINE_704_">
		<path style="fill:none;stroke:#000000;stroke-width:1.3;stroke-linecap:round;stroke-linejoin:round;stroke-miterlimit:10;" d="
			M804.78,339.72l0-55.48c0,0,0,0,0,0c0-2.82,2.29-5.11,5.11-5.11l62.82,0c0,0,0,0,0,0c2.82,0,5.11,2.29,5.11,5.12v55.48
			c0,0,0,0,0,0c0,2.82-2.29,5.11-5.11,5.11h-62.83C807.06,344.83,804.78,342.54,804.78,339.72z"/>
	</g>
	<g id="LWPOLYLINE_701_">
		<path style="fill:none;stroke:#000000;stroke-width:1.3;stroke-linecap:round;stroke-linejoin:round;stroke-miterlimit:10;" d="
			M826.69,298.46C826.69,298.46,826.69,298.46,826.69,298.46c-2.83,0-5.13-2.29-5.13-5.13c0,0,0,0,0,0c0-2.83,2.29-5.13,5.13-5.13
			c0,0,0,0,0,0c2.83,0,5.13,2.29,5.13,5.13c0,0,0,0,0,0C831.82,296.16,829.52,298.46,826.69,298.46z"/>
	</g>
	<g id="LWPOLYLINE_700_">
		
			<line style="fill:none;stroke:#000000;stroke-width:1.3;stroke-linecap:round;stroke-linejoin:round;stroke-miterlimit:10;" x1="1783.94" y1="271.99" x2="1783.94" y2="631.39"/>
	</g>
	<g id="LWPOLYLINE_699_">
		
			<line style="fill:none;stroke:#000000;stroke-width:1.3;stroke-linecap:round;stroke-linejoin:round;stroke-miterlimit:10;" x1="1783.94" y1="316.59" x2="1531.12" y2="316.64"/>
	</g>
	<g id="LWPOLYLINE_698_">
		
			<line style="fill:none;stroke:#000000;stroke-width:1.3;stroke-linecap:round;stroke-linejoin:round;stroke-miterlimit:10;" x1="1646.86" y1="316.64" x2="1646.86" y2="258.5"/>
	</g>
	<g id="LWPOLYLINE_665_">
		
			<line style="fill:none;stroke:#000000;stroke-width:1.3;stroke-linecap:round;stroke-linejoin:round;stroke-miterlimit:10;" x1="1639.55" y1="309.33" x2="1639.55" y2="258.5"/>
	</g>
	<g id="LWPOLYLINE_664_">
		
			<rect x="1556.13" y="274.03" style="fill:none;stroke:#000000;stroke-width:1.3;stroke-linecap:round;stroke-linejoin:round;stroke-miterlimit:10;" width="61.13" height="20.15"/>
	</g>
	<g id="LWPOLYLINE_663_">
		
			<polyline style="fill:none;stroke:#000000;stroke-width:1.3;stroke-linecap:round;stroke-linejoin:round;stroke-miterlimit:10;" points="
			1617.26,274.03 1612.59,289.12 1556.13,294.18 		"/>
	</g>
	<g id="LWPOLYLINE_662_">
		
			<line style="fill:none;stroke:#000000;stroke-width:1.3;stroke-linecap:round;stroke-linejoin:round;stroke-miterlimit:10;" x1="1603.79" y1="336.8" x2="1564.33" y2="336.8"/>
	</g>
	<g id="LWPOLYLINE_661_">
		<path style="fill:none;stroke:#000000;stroke-width:1.3;stroke-linecap:round;stroke-linejoin:round;stroke-miterlimit:10;" d="
			M1561.22,343.37V371c0,14.53,11.78,26.31,26.31,26.31c14.53,0,26.31-11.78,26.31-26.31v-27.63c0-3.63-2.94-6.58-6.58-6.58h-39.47
			C1564.17,336.8,1561.23,339.74,1561.22,343.37C1561.22,343.37,1561.22,343.37,1561.22,343.37z"/>
	</g>
	<g id="LWPOLYLINE_660_">
		<path style="fill:none;stroke:#000000;stroke-width:1.3;stroke-linecap:round;stroke-linejoin:round;stroke-miterlimit:10;" d="
			M1608.58,371v-9.22c0-11.62-9.43-21.05-21.05-21.05c-11.62,0-21.04,9.42-21.05,21.05V371c0,11.62,9.43,21.05,21.05,21.05
			C1599.16,392.04,1608.58,382.62,1608.58,371z"/>
	</g>
	<g id="LWPOLYLINE_659_">
		<path style="fill:none;stroke:#000000;stroke-width:1.3;stroke-linecap:round;stroke-linejoin:round;stroke-miterlimit:10;" d="
			M1595.43,362.53v-9.22c0-4.36-3.53-7.89-7.89-7.89c-4.36,0-7.89,3.53-7.89,7.89c0,0,0,0,0,0v9.22c0,4.36,3.53,7.89,7.89,7.89
			C1591.89,370.42,1595.42,366.89,1595.43,362.53z"/>
	</g>
	<g id="LWPOLYLINE_658_">
		
			<rect x="1545.59" y="316.59" style="fill:none;stroke:#000000;stroke-width:1.3;stroke-linecap:round;stroke-linejoin:round;stroke-miterlimit:10;" width="83.88" height="20.21"/>
	</g>
	<g id="LWPOLYLINE_657_">
		
			<line style="fill:none;stroke:#000000;stroke-width:1.3;stroke-linecap:round;stroke-linejoin:round;stroke-miterlimit:10;" x1="1783.94" y1="509.06" x2="1783.94" y2="422.24"/>
	</g>
	<g id="LWPOLYLINE_656_">
		<path style="fill:none;stroke:#000000;stroke-width:1.3;stroke-linecap:round;stroke-linejoin:round;stroke-miterlimit:10;" d="
			M1783.94,422.24l-44.6,0c-6.28,0-11.85,4.05-13.77,10.03c-6.99,21.7-6.99,45.05,0,66.75c1.93,5.98,7.49,10.03,13.77,10.03h44.6"/>
	</g>
	<g id="LWPOLYLINE_655_">
		<path style="fill:none;stroke:#000000;stroke-width:1.3;stroke-linecap:round;stroke-linejoin:round;stroke-miterlimit:10;" d="
			M1771.46,488.8c0,4.79-3.89,8.68-8.68,8.68h-13.9c-3.18,0-5.99-2.08-6.92-5.12c-5.33-17.41-5.33-36.02,0-53.44
			c0.93-3.04,3.74-5.11,6.92-5.12h13.9c4.8,0,8.68,3.89,8.68,8.68"/>
	</g>
	<g id="LWPOLYLINE_654_">
		<path style="fill:none;stroke:#000000;stroke-width:1.3;stroke-linecap:round;stroke-linejoin:round;stroke-miterlimit:10;" d="
			M1762.78,428.03l-23.43,0c-3.77,0-7.11,2.43-8.27,6.02c-6.62,20.55-6.62,42.66,0,63.21c1.16,3.59,4.5,6.02,8.26,6.02h23.44
			c4.8,0,8.68-3.89,8.68-8.68V436.7C1771.46,431.91,1767.57,428.02,1762.78,428.03z"/>
	</g>
	<g id="LWPOLYLINE_653_">
		<path style="fill:none;stroke:#000000;stroke-width:1.3;stroke-linecap:round;stroke-linejoin:round;stroke-miterlimit:10;" d="
			M1768.88,465.65c0-2.15-1.74-3.9-3.89-3.9c-2.15,0-3.89,1.75-3.89,3.9c0,2.15,1.74,3.89,3.89,3.89c0,0,0,0,0,0
			C1767.13,469.54,1768.88,467.8,1768.88,465.65C1768.88,465.65,1768.88,465.65,1768.88,465.65z"/>
	</g>
	<g id="LWPOLYLINE_652_">
		
			<rect x="1531.12" y="527.29" style="fill:none;stroke:#000000;stroke-width:1.3;stroke-linecap:round;stroke-linejoin:round;stroke-miterlimit:10;" width="252.82" height="104.1"/>
	</g>
	<g id="LWPOLYLINE_639_">
		<path style="fill:none;stroke:#000000;stroke-width:1.3;stroke-linecap:round;stroke-linejoin:round;stroke-miterlimit:10;" d="
			M1566.21,623.06h165.06c24.15,0,43.72-19.58,43.72-43.72c0-24.14-19.57-43.72-43.72-43.72h-165.06
			c-11.54,0-20.93,9.28-21.07,20.82v45.8c0,11.5,9.32,20.82,20.82,20.82"/>
	</g>
	<g id="SPLINE_2_">
		<path style="fill:none;stroke:#000000;stroke-width:1.3;stroke-linecap:round;stroke-linejoin:round;stroke-miterlimit:10;" d="
			M1565.96,623.06c0.08,0,0.16,0,0.25,0"/>
	</g>
	<g id="LWPOLYLINE_319_">
		<path style="fill:none;stroke:#000000;stroke-width:1.3;stroke-linecap:round;stroke-linejoin:round;stroke-miterlimit:10;" d="
			M1618.19,611.17h113.08c17.58,0,31.83-14.25,31.83-31.82c0-17.58-14.25-31.83-31.82-31.83c0,0,0,0,0,0h-111.44
			c-17.59,0.01-31.84,14.28-31.82,31.87C1588.02,596.32,1601.28,610.28,1618.19,611.17z"/>
	</g>
	<g id="LWPOLYLINE_318_">
		
			<line style="fill:none;stroke:#000000;stroke-width:1.3;stroke-linecap:round;stroke-linejoin:round;stroke-miterlimit:10;" x1="1588.01" y1="579.34" x2="1588.01" y2="579.38"/>
	</g>
	<g id="LWPOLYLINE_317_">
		<path style="fill:none;stroke:#000000;stroke-width:1.3;stroke-linecap:round;stroke-linejoin:round;stroke-miterlimit:10;" d="
			M1737.1,579.34c0-3.22-2.61-5.83-5.83-5.83c-3.22,0-5.83,2.6-5.83,5.82c0,0,0,0,0,0.01c0,3.22,2.6,5.83,5.82,5.83c0,0,0,0,0.01,0
			C1734.49,585.17,1737.1,582.56,1737.1,579.34z"/>
	</g>
	<g id="LWPOLYLINE_316_">
		<path style="fill:none;stroke:#000000;stroke-width:1.3;stroke-linecap:round;stroke-linejoin:round;stroke-miterlimit:10;" d="
			M1731.27,611.17c17.58,0,31.82-14.25,31.82-31.82c0,0,0,0,0,0c0-17.58-14.25-31.82-31.82-31.83c0,0,0,0,0,0"/>
	</g>
	<g id="LWPOLYLINE_315_">
		
			<rect x="1713.82" y="316.59" style="fill:none;stroke:#000000;stroke-width:1.3;stroke-linecap:round;stroke-linejoin:round;stroke-miterlimit:10;" width="70.12" height="87.7"/>
	</g>
	<g id="LWPOLYLINE_299_">
		
			<polyline style="fill:none;stroke:#000000;stroke-width:1.3;stroke-linecap:round;stroke-linejoin:round;stroke-miterlimit:10;" points="
			1771.56,390.49 1736.69,360.44 1760.36,360.44 1725.49,330.38 		"/>
	</g>
	<g id="LWPOLYLINE_298_">
		<path style="fill:none;stroke:#000000;stroke-width:1.3;stroke-linecap:round;stroke-linejoin:round;stroke-miterlimit:10;" d="
			M1774.83,360.44c0-14.53-11.78-26.31-26.31-26.31c-14.53,0-26.31,11.78-26.31,26.31c0,14.53,11.78,26.31,26.31,26.31
			C1763.06,386.75,1774.83,374.97,1774.83,360.44z"/>
	</g>
	<g id="LINE_11_">
		
			<line style="fill:none;stroke:#000000;stroke-width:1.3;stroke-linecap:round;stroke-linejoin:round;stroke-miterlimit:10;" x1="1639.55" y1="309.33" x2="1531.12" y2="309.33"/>
	</g>
	<g id="LINE_6_">
		
			<line style="fill:none;stroke:#000000;stroke-width:1.3;stroke-linecap:round;stroke-linejoin:round;stroke-miterlimit:10;" x1="1783.94" y1="271.99" x2="1646.86" y2="271.99"/>
	</g>
	<g id="LWPOLYLINE_293_">
		
			<polyline style="fill:none;stroke:#000000;stroke-width:1.3;stroke-linecap:round;stroke-linejoin:round;stroke-miterlimit:10;" points="
			279.64,859.52 279.64,808.73 390.99,808.73 		"/>
	</g>
	<g id="LWPOLYLINE_292_">
		
			<line style="fill:none;stroke:#000000;stroke-width:1.3;stroke-linecap:round;stroke-linejoin:round;stroke-miterlimit:10;" x1="272.39" y1="859.52" x2="272.39" y2="801.43"/>
	</g>
	<g id="LWPOLYLINE_291_">
		
			<line style="fill:none;stroke:#000000;stroke-width:1.3;stroke-linecap:round;stroke-linejoin:round;stroke-miterlimit:10;" x1="272.34" y1="801.43" x2="391.02" y2="801.43"/>
	</g>
	<g id="LWPOLYLINE_290_">
		
			<rect x="300.46" y="821.14" style="fill:none;stroke:#000000;stroke-width:1.3;stroke-linecap:round;stroke-linejoin:round;stroke-miterlimit:10;" width="71.94" height="24.96"/>
	</g>
	<g id="LWPOLYLINE_289_">
		
			<polyline style="fill:none;stroke:#000000;stroke-width:1.3;stroke-linecap:round;stroke-linejoin:round;stroke-miterlimit:10;" points="
			372.4,821.14 314.89,827.43 300.46,846.09 		"/>
	</g>
	<g id="LWPOLYLINE_288_">
		
			<line style="fill:none;stroke:#000000;stroke-width:1.3;stroke-linecap:round;stroke-linejoin:round;stroke-miterlimit:10;" x1="272.39" y1="846.05" x2="156.47" y2="846.05"/>
	</g>
	<g id="CIRCLE_14_">
		
			<circle style="fill:none;stroke:#000000;stroke-width:1.3;stroke-linecap:round;stroke-linejoin:round;stroke-miterlimit:10;" cx="172.89" cy="826.33" r="5.26"/>
	</g>
	<g id="LWPOLYLINE_283_">
		<path style="fill:none;stroke:#000000;stroke-width:1.3;stroke-linecap:round;stroke-linejoin:round;stroke-miterlimit:10;" d="
			M264.97,760.55c0-14.53-11.78-26.31-26.31-26.31c0,0,0,0,0,0H169.6c-5.45,0-9.87,4.42-9.87,9.87v85.51c0,5.45,4.42,9.87,9.87,9.87
			h85.51c5.45,0,9.86-4.42,9.87-9.87V760.55z"/>
	</g>
	<g id="LWPOLYLINE_282_">
		<path style="fill:none;stroke:#000000;stroke-width:1.3;stroke-linecap:round;stroke-linejoin:round;stroke-miterlimit:10;" d="
			M271.55,846.05l0-85.51c0-18.16-14.72-32.88-32.89-32.88c0,0,0,0,0,0h-85.51l0,118.39L271.55,846.05v-85.5
			c0-18.16-14.72-32.89-32.89-32.89c0,0,0,0,0,0h-85.51"/>
	</g>
	<g id="LWPOLYLINE_258_">
		
			<line style="fill:none;stroke:#000000;stroke-width:1.3;stroke-linecap:round;stroke-linejoin:round;stroke-miterlimit:10;" x1="315.98" y1="781.22" x2="355.44" y2="781.22"/>
	</g>
	<g id="LWPOLYLINE_201_">
		<path style="fill:none;stroke:#000000;stroke-width:1.3;stroke-linecap:round;stroke-linejoin:round;stroke-miterlimit:10;" d="
			M358.55,774.64v-27.63c0-14.53-11.78-26.31-26.31-26.31c-14.53,0-26.31,11.78-26.31,26.31v27.63c0,3.63,2.94,6.58,6.58,6.58h39.47
			C355.6,781.22,358.55,778.28,358.55,774.64C358.55,774.65,358.55,774.64,358.55,774.64z"/>
	</g>
	<g id="LWPOLYLINE_200_">
		<path style="fill:none;stroke:#000000;stroke-width:1.3;stroke-linecap:round;stroke-linejoin:round;stroke-miterlimit:10;" d="
			M311.19,747.02v9.22c0,11.62,9.43,21.05,21.05,21.05c11.62,0,21.04-9.42,21.05-21.05v-9.22c0-11.62-9.43-21.05-21.05-21.05
			C320.61,725.97,311.19,735.39,311.19,747.02z"/>
	</g>
	<g id="LWPOLYLINE_199_">
		<path style="fill:none;stroke:#000000;stroke-width:1.3;stroke-linecap:round;stroke-linejoin:round;stroke-miterlimit:10;" d="
			M324.35,755.48v9.22c0,4.36,3.53,7.89,7.89,7.89s7.89-3.53,7.89-7.89c0,0,0,0,0,0v-9.22c0-4.36-3.53-7.89-7.89-7.89
			C327.88,747.59,324.35,751.13,324.35,755.48z"/>
	</g>
	<g id="LWPOLYLINE_198_">
		
			<rect x="290.3" y="781.22" style="fill:none;stroke:#000000;stroke-width:1.3;stroke-linecap:round;stroke-linejoin:round;stroke-miterlimit:10;" width="83.88" height="20.21"/>
	</g>
	<g id="LWPOLYLINE_197_">
		
			<line style="fill:none;stroke:#000000;stroke-width:1.3;stroke-linecap:round;stroke-linejoin:round;stroke-miterlimit:10;" x1="153.16" y1="602.18" x2="153.16" y2="689"/>
	</g>
	<g id="LWPOLYLINE_196_">
		<path style="fill:none;stroke:#000000;stroke-width:1.3;stroke-linecap:round;stroke-linejoin:round;stroke-miterlimit:10;" d="
			M153.16,689l44.6,0c6.28,0,11.85-4.05,13.77-10.03c6.99-21.7,6.99-45.05,0-66.75c-1.93-5.98-7.49-10.03-13.77-10.03h-44.6"/>
	</g>
	<g id="LWPOLYLINE_195_">
		<path style="fill:none;stroke:#000000;stroke-width:1.3;stroke-linecap:round;stroke-linejoin:round;stroke-miterlimit:10;" d="
			M165.64,622.44c0-4.79,3.89-8.68,8.68-8.68h13.9c3.18,0,5.99,2.08,6.92,5.12c5.33,17.41,5.33,36.02,0,53.44
			c-0.93,3.04-3.74,5.11-6.92,5.12h-13.9c-4.8,0-8.68-3.89-8.68-8.68"/>
	</g>
	<g id="LWPOLYLINE_194_">
		<path style="fill:none;stroke:#000000;stroke-width:1.3;stroke-linecap:round;stroke-linejoin:round;stroke-miterlimit:10;" d="
			M174.32,683.21l23.43,0c3.77,0,7.11-2.43,8.27-6.02c6.62-20.55,6.62-42.66,0-63.21c-1.16-3.59-4.5-6.02-8.26-6.02h-23.44
			c-4.8,0-8.68,3.89-8.68,8.68v57.89C165.64,679.33,169.53,683.21,174.32,683.21z"/>
	</g>
	<g id="LWPOLYLINE_193_">
		<path style="fill:none;stroke:#000000;stroke-width:1.3;stroke-linecap:round;stroke-linejoin:round;stroke-miterlimit:10;" d="
			M168.22,645.59c0,2.15,1.74,3.9,3.89,3.9c2.15,0,3.89-1.75,3.89-3.9c0-2.15-1.74-3.89-3.89-3.89c0,0,0,0,0,0
			C169.96,641.7,168.22,643.44,168.22,645.59C168.22,645.59,168.22,645.59,168.22,645.59z"/>
	</g>
	<g id="LINE_2_">
		
			<line style="fill:none;stroke:#000000;stroke-width:1.3;stroke-linecap:round;stroke-linejoin:round;stroke-miterlimit:10;" x1="153.15" y1="596.58" x2="153.15" y2="846.05"/>
	</g>
	<g>
		<polygon points="508.77,1232.91 426.95,1232.91 416.53,1232.91 416.53,1232.92 386.78,1232.89 473.06,1232.89 473.06,1197.2 
			383.81,1197.2 383.81,869.86 404.34,869.86 404.34,856.54 404.34,856.54 404.34,596.58 404.34,583.27 341.26,583.27 
			341.26,596.58 391.02,596.58 391.02,856.54 383.81,856.54 363.71,856.54 351.08,856.54 351.08,859.52 129.43,859.52 
			129.43,596.58 222.25,596.58 222.25,583.27 129.43,583.27 129.43,258.53 223.89,258.53 223.89,231.75 129.43,231.75 99.68,231.75 
			99.68,886.29 129.43,886.29 351.08,886.29 351.08,1197.2 351.08,1232.89 351.08,1273.07 386.78,1273.07 416.53,1273.07 
			426.95,1273.07 516.18,1273.07 516.18,1262.66 508.74,1262.66 		"/>
		<polygon points="1445.96,1232.91 1335.87,1232.91 1335.87,1006.79 1335.87,562.37 1325.46,562.37 1325.46,577.24 1307.61,577.24 
			1307.61,587.66 1325.46,587.66 1325.46,1006.79 1303.15,1006.79 1303.15,1232.91 1237.69,1232.91 1237.69,1262.66 
			1230.25,1262.66 1230.25,1273.07 1453.37,1273.07 1453.37,1262.66 1445.93,1262.66 		"/>
		<polygon points="1826.78,1232.91 1826.78,231.75 1794.06,231.75 1335.87,231.75 1303.15,231.75 1303.15,289.77 911.91,289.77 
			911.91,264.48 911.91,231.75 688.77,231.75 377.11,231.75 377.11,258.53 393.92,258.53 393.92,412.19 404.34,412.19 
			404.34,264.48 688.77,264.48 885.13,264.48 885.13,316.54 885.13,410.63 895.54,410.63 895.54,316.54 911.91,316.54 
			1303.15,316.54 1303.15,410.26 1325.46,410.26 1325.46,428.48 1335.87,428.48 1335.87,410.26 1335.87,258.53 1517.81,258.53 
			1517.81,401.26 1531.12,401.26 1531.12,258.53 1794.06,258.53 1794.06,631.39 1531.12,631.39 1531.12,520.27 1517.81,520.27 
			1517.81,631.39 1517.81,645.15 1794.06,645.15 1794.06,1232.91 1728.6,1232.91 1728.6,1262.66 1721.16,1262.66 1721.16,1273.07 
			1899.68,1273.07 1899.68,1262.66 1899.68,1232.91 		"/>
		<polygon points="895.54,574.27 885.13,574.27 885.13,1232.91 791.41,1232.91 791.41,1262.66 783.97,1262.66 783.97,1273.07 
			962.46,1273.07 962.46,1262.66 955.02,1262.66 955.05,1232.91 895.54,1232.91 895.54,587.66 1173.72,587.66 1173.72,577.24 
			895.54,577.24 		"/>
	</g>
</g>
</svg>
