<?xml version="1.0" encoding="utf-8"?>
<!-- Generator: Adobe Illustrator 24.3.0, SVG Export Plug-In . SVG Version: 6.00 Build 0)  -->
<svg version="1.1" id="Layer_1" xmlns="http://www.w3.org/2000/svg" xmlns:xlink="http://www.w3.org/1999/xlink" x="0px" y="0px"
	 width="2000px" height="1574.67px" viewBox="0 0 2000 1574.67" style="enable-background:new 0 0 2000 1574.67;"
	 xml:space="preserve">
<path id="background" style="fill:#FFFFFF;" d="M1900.33,1381.77v92.25c0,0,0,0.01,0,0.01c0,0.04-0.02,0.07-0.02,0.11
	c-0.01,0.05-0.01,0.1-0.03,0.15c0,0,0,0,0,0.01c0,0.01-0.01,0.01-0.01,0.01c-0.05,0.1-0.12,0.17-0.2,0.23
	c-0.02,0.02-0.04,0.03-0.06,0.04c-0.09,0.05-0.2,0.09-0.31,0.09H1696.1c-0.12,0-0.22-0.04-0.31-0.09c-0.02-0.01-0.04-0.03-0.06-0.04
	c-0.08-0.06-0.16-0.14-0.2-0.23c0-0.01-0.01-0.01-0.01-0.01c0,0,0,0,0-0.01c-0.02-0.04-0.02-0.1-0.03-0.15
	c-0.01-0.04-0.02-0.07-0.02-0.11c0,0,0-0.01,0-0.01v-92.25h-49.67c0,0.36-0.29,0.65-0.65,0.65h-202.85v91.6c0,0,0,0.01,0,0.01
	c0,0.04-0.02,0.07-0.02,0.11c-0.01,0.05-0.01,0.1-0.03,0.15c0,0,0,0,0,0.01c0,0.01-0.01,0.01-0.01,0.01
	c-0.05,0.1-0.12,0.17-0.2,0.23c-0.02,0.02-0.04,0.03-0.06,0.04c-0.09,0.05-0.2,0.09-0.31,0.09h-203.57c-0.12,0-0.22-0.04-0.31-0.09
	c-0.02-0.01-0.04-0.03-0.06-0.04c-0.08-0.06-0.16-0.14-0.2-0.23c0-0.01-0.01-0.01-0.01-0.01c0,0,0,0,0-0.01
	c-0.02-0.04-0.02-0.1-0.03-0.15c-0.01-0.04-0.02-0.07-0.02-0.11c0,0,0-0.01,0-0.01v-91.6H983.52c-0.36,0-0.65-0.29-0.65-0.65H577.02
	c0,0.36-0.29,0.65-0.65,0.65H271.02c-0.36,0-0.65-0.29-0.65-0.65H99.68v-11.88v-33.93v-37.32V278.99v-30.54h33.93h468.28h228.96
	h0.06h66.27v9.59c0,0,0,0,0,0H905V100.65c0,0,0,0,0,0s0,0,0,0c0-0.05,0.02-0.08,0.03-0.13c0.01-0.04,0.01-0.09,0.03-0.13
	c0.03-0.07,0.07-0.12,0.12-0.18c0.01-0.01,0.01-0.02,0.02-0.03c0.12-0.12,0.28-0.19,0.46-0.19h0
	c87.19,0.09,158.12,70.93,158.41,158.04h7.84v-9.59l76.17,0h254.47h0H1610h118.26h0.02h18.65h18.65v1087.5h134.09v33.93v11.22
	c0.03,0,0.06,0.01,0.09,0.02c0.05,0.01,0.1,0.01,0.15,0.03c0.04,0.02,0.08,0.05,0.12,0.07c0.03,0.02,0.06,0.03,0.09,0.06
	c0.04,0.04,0.07,0.09,0.1,0.14c0.01,0.02,0.03,0.04,0.04,0.06c0,0,0,0,0,0.01c0.02,0.04,0.02,0.1,0.03,0.15
	C1900.31,1381.68,1900.32,1381.72,1900.33,1381.77C1900.32,1381.76,1900.33,1381.76,1900.33,1381.77z"/>
<g id="h1">
	<path id="h1_path" style="fill:none;" d="M1275.32,581.47H860.05V272.15h415.26V581.47z"/>
	<text id="h1_text" transform="matrix(1 0 0 1 1075.0209 378.7122)" style="font-family:'GraphikLCG-Regular'; font-size:40px;"></text>
</g>
<g id="c1">
	<path id="c1_path" style="fill:none;" d="M116.64,272.15h445.19v1109.62H116.64V272.15z"/>
	<text id="c1_text" transform="matrix(1 0 0 1 353.1206 979.1736)" style="font-family:'GraphikLCG-Regular'; font-size:40px;"></text>
</g>
<g id="s2">
	<path id="s2_path" style="fill:none;" d="M1275.32,272.15h471.62v309.32h-471.62V272.15z"/>
	<text id="s2_text" transform="matrix(1 0 0 1 1495.0411 495.5259)" style="font-family:'GraphikLCG-Regular'; font-size:40px;"></text>
</g>
<g id="s1">
	<path id="s1_path" style="fill:none;" d="M561.83,272.15h298.22v309.32H561.83V272.15z"/>
	<text id="s1_text" transform="matrix(1 0 0 1 780.2686 396.5031)" style="font-family:'GraphikLCG-Regular'; font-size:40px;"></text>
</g>
<g id="r2">
	<path id="r2_path" style="fill:none;" d="M1275.32,1381.77H561.83v-800.3h713.48V1381.77z"/>
	<text id="r2_text" transform="matrix(1 0 0 1 914.1396 979.1735)" style="font-family:'GraphikLCG-Regular'; font-size:40px;"></text>
</g>
<g id="r1">
	<path id="r1_path" style="fill:none;" d="M1275.32,581.47h471.62v800.3h-471.62V581.47z"/>
	<text id="r1_text" transform="matrix(1 0 0 1 1516.3765 979.1736)" style="font-family:'GraphikLCG-Regular'; font-size:40px;"></text>
</g>
<g id="floor">
	<g id="LINE_2373_">
		
			<line style="fill:none;stroke:#000000;stroke-width:1.3;stroke-linecap:round;stroke-linejoin:round;stroke-miterlimit:10;" x1="1899.68" y1="1474.02" x2="1696.1" y2="1474.02"/>
	</g>
	<g id="LINE_2372_">
		
			<line style="fill:none;stroke:#000000;stroke-width:1.3;stroke-linecap:round;stroke-linejoin:round;stroke-miterlimit:10;" x1="1696.1" y1="1474.02" x2="1696.1" y2="1381.77"/>
	</g>
	<g id="LINE_2371_">
		
			<line style="fill:none;stroke:#000000;stroke-width:1.3;stroke-linecap:round;stroke-linejoin:round;stroke-miterlimit:10;" x1="1899.68" y1="1381.77" x2="1899.68" y2="1474.02"/>
	</g>
	<g id="LWPOLYLINE_2771_">
		
			<line style="fill:none;stroke:#000000;stroke-width:1.3;stroke-linecap:round;stroke-linejoin:round;stroke-miterlimit:10;" x1="1696.1" y1="1381.77" x2="1899.68" y2="1474.02"/>
	</g>
	<g id="LWPOLYLINE_2770_">
		
			<line style="fill:none;stroke:#000000;stroke-width:1.3;stroke-linecap:round;stroke-linejoin:round;stroke-miterlimit:10;" x1="1899.68" y1="1381.77" x2="1696.1" y2="1474.02"/>
	</g>
	<g id="LINE_2370_">
		
			<line style="fill:none;stroke:#000000;stroke-width:1.3;stroke-linecap:round;stroke-linejoin:round;stroke-miterlimit:10;" x1="1441.64" y1="1474.02" x2="1238.06" y2="1474.02"/>
	</g>
	<g id="LINE_2369_">
		
			<line style="fill:none;stroke:#000000;stroke-width:1.3;stroke-linecap:round;stroke-linejoin:round;stroke-miterlimit:10;" x1="1238.06" y1="1474.02" x2="1238.06" y2="1381.77"/>
	</g>
	<g id="LINE_2368_">
		
			<line style="fill:none;stroke:#000000;stroke-width:1.3;stroke-linecap:round;stroke-linejoin:round;stroke-miterlimit:10;" x1="1441.64" y1="1381.77" x2="1441.64" y2="1474.02"/>
	</g>
	<g id="LWPOLYLINE_2769_">
		
			<line style="fill:none;stroke:#000000;stroke-width:1.3;stroke-linecap:round;stroke-linejoin:round;stroke-miterlimit:10;" x1="1238.06" y1="1381.77" x2="1441.64" y2="1474.02"/>
	</g>
	<g id="LWPOLYLINE_2768_">
		
			<line style="fill:none;stroke:#000000;stroke-width:1.3;stroke-linecap:round;stroke-linejoin:round;stroke-miterlimit:10;" x1="1441.64" y1="1381.77" x2="1238.06" y2="1474.02"/>
	</g>
	<g id="LWPOLYLINE_3149_">
		
			<rect x="1557" y="579.82" style="fill:none;stroke:#000000;stroke-width:1.3;stroke-linecap:round;stroke-linejoin:round;stroke-miterlimit:10;" width="8.48" height="13.57"/>
	</g>
	<g id="LWPOLYLINE_3148_">
		
			<rect x="1429.77" y="579.73" style="fill:none;stroke:#000000;stroke-width:1.3;stroke-linecap:round;stroke-linejoin:round;stroke-miterlimit:10;" width="8.48" height="13.57"/>
	</g>
	<g id="LINE_2716_">
		
			<line style="fill:none;stroke:#000000;stroke-width:1.3;stroke-linecap:round;stroke-linejoin:round;stroke-miterlimit:10;" x1="1565.48" y1="593.4" x2="1565.49" y2="579.83"/>
	</g>
	<g id="LINE_2715_">
		
			<line style="fill:none;stroke:#000000;stroke-width:1.3;stroke-linecap:round;stroke-linejoin:round;stroke-miterlimit:10;" x1="1429.77" y1="593.3" x2="1429.78" y2="579.73"/>
	</g>
	<g id="LINE_2714_">
		
			<line style="fill:none;stroke:#000000;stroke-width:1.3;stroke-linecap:round;stroke-linejoin:round;stroke-miterlimit:10;" x1="1557" y1="593.39" x2="1556.91" y2="712.14"/>
	</g>
	<g id="ARC_172_">
		<path style="fill:none;stroke:#000000;stroke-width:1.3;stroke-linecap:round;stroke-linejoin:round;stroke-miterlimit:10;" d="
			M1551.82,712.14c-63.54-2.87-113.58-55.23-113.58-118.83"/>
	</g>
	<g id="LINE_2713_">
		
			<line style="fill:none;stroke:#000000;stroke-width:1.3;stroke-linecap:round;stroke-linejoin:round;stroke-miterlimit:10;" x1="1556.91" y1="712.14" x2="1551.82" y2="712.14"/>
	</g>
	<g id="LWPOLYLINE_3139_">
		
			<rect x="853.27" y="518.7" style="fill:none;stroke:#000000;stroke-width:1.3;stroke-linecap:round;stroke-linejoin:round;stroke-miterlimit:10;" width="13.57" height="8.48"/>
	</g>
	<g id="LWPOLYLINE_3138_">
		
			<rect x="853.36" y="391.47" style="fill:none;stroke:#000000;stroke-width:1.3;stroke-linecap:round;stroke-linejoin:round;stroke-miterlimit:10;" width="13.57" height="8.48"/>
	</g>
	<g id="LINE_2696_">
		
			<line style="fill:none;stroke:#000000;stroke-width:1.3;stroke-linecap:round;stroke-linejoin:round;stroke-miterlimit:10;" x1="866.83" y1="527.19" x2="853.26" y2="527.18"/>
	</g>
	<g id="LINE_2695_">
		
			<line style="fill:none;stroke:#000000;stroke-width:1.3;stroke-linecap:round;stroke-linejoin:round;stroke-miterlimit:10;" x1="866.93" y1="391.47" x2="853.36" y2="391.46"/>
	</g>
	<g id="LINE_2694_">
		
			<line style="fill:none;stroke:#000000;stroke-width:1.3;stroke-linecap:round;stroke-linejoin:round;stroke-miterlimit:10;" x1="866.84" y1="518.7" x2="985.59" y2="518.79"/>
	</g>
	<g id="ARC_167_">
		<path style="fill:none;stroke:#000000;stroke-width:1.3;stroke-linecap:round;stroke-linejoin:round;stroke-miterlimit:10;" d="
			M866.93,399.95c63.61,0.09,115.89,50.2,118.67,113.75"/>
	</g>
	<g id="LINE_2693_">
		
			<line style="fill:none;stroke:#000000;stroke-width:1.3;stroke-linecap:round;stroke-linejoin:round;stroke-miterlimit:10;" x1="985.59" y1="518.79" x2="985.6" y2="513.7"/>
	</g>
	<g id="LWPOLYLINE_3137_">
		
			<rect x="1269.37" y="614.04" style="fill:none;stroke:#000000;stroke-width:1.3;stroke-linecap:round;stroke-linejoin:round;stroke-miterlimit:10;" width="13.57" height="8.48"/>
	</g>
	<g id="LWPOLYLINE_3136_">
		
			<rect x="1269.37" y="758.24" style="fill:none;stroke:#000000;stroke-width:1.3;stroke-linecap:round;stroke-linejoin:round;stroke-miterlimit:10;" width="13.57" height="8.48"/>
	</g>
	<g id="LINE_2692_">
		
			<line style="fill:none;stroke:#000000;stroke-width:1.3;stroke-linecap:round;stroke-linejoin:round;stroke-miterlimit:10;" x1="1282.94" y1="614.04" x2="1269.37" y2="614.04"/>
	</g>
	<g id="LINE_2691_">
		
			<line style="fill:none;stroke:#000000;stroke-width:1.3;stroke-linecap:round;stroke-linejoin:round;stroke-miterlimit:10;" x1="1282.94" y1="766.72" x2="1269.37" y2="766.72"/>
	</g>
	<g id="LINE_2690_">
		
			<line style="fill:none;stroke:#000000;stroke-width:1.3;stroke-linecap:round;stroke-linejoin:round;stroke-miterlimit:10;" x1="1282.94" y1="622.52" x2="1418.66" y2="622.52"/>
	</g>
	<g id="LINE_2689_">
		
			<line style="fill:none;stroke:#000000;stroke-width:1.3;stroke-linecap:round;stroke-linejoin:round;stroke-miterlimit:10;" x1="1418.66" y1="627.61" x2="1418.66" y2="622.52"/>
	</g>
	<g id="ARC_166_">
		<path style="fill:none;stroke:#000000;stroke-width:1.3;stroke-linecap:round;stroke-linejoin:round;stroke-miterlimit:10;" d="
			M1418.66,627.61c-2.82,72.92-62.74,130.59-135.72,130.63"/>
	</g>
	<g id="LINE_2680_">
		
			<line style="fill:none;stroke:#000000;stroke-width:1.3;stroke-linecap:round;stroke-linejoin:round;stroke-miterlimit:10;" x1="905.65" y1="258.69" x2="905.65" y2="100.65"/>
	</g>
	<g id="LWPOLYLINE_3125_">
		
			<rect x="1063.42" y="258.69" style="fill:none;stroke:#000000;stroke-width:1.3;stroke-linecap:round;stroke-linejoin:round;stroke-miterlimit:10;" width="8.48" height="13.46"/>
	</g>
	<g id="ARC_158_">
		<path style="fill:none;stroke:#000000;stroke-width:1.3;stroke-linecap:round;stroke-linejoin:round;stroke-miterlimit:10;" d="
			M1063.42,258.69c0.06-87.2-70.57-157.95-157.77-158.04"/>
	</g>
	<g id="LWPOLYLINE_3124_">
		
			<rect x="897.17" y="258.69" style="fill:none;stroke:#000000;stroke-width:1.3;stroke-linecap:round;stroke-linejoin:round;stroke-miterlimit:10;" width="8.48" height="13.46"/>
	</g>
	<g id="LINE_2204_">
		
			<line style="fill:none;stroke:#000000;stroke-width:1.3;stroke-linecap:round;stroke-linejoin:round;stroke-miterlimit:10;" x1="1645.13" y1="1381.77" x2="1390.67" y2="1381.77"/>
	</g>
	<g id="LINE_2203_">
		
			<line style="fill:none;stroke:#000000;stroke-width:1.3;stroke-linecap:round;stroke-linejoin:round;stroke-miterlimit:10;" x1="1382.21" y1="1354.62" x2="1486.57" y2="1354.62"/>
	</g>
	<g id="LINE_2202_">
		
			<line style="fill:none;stroke:#000000;stroke-width:1.3;stroke-linecap:round;stroke-linejoin:round;stroke-miterlimit:10;" x1="1498.44" y1="1354.62" x2="1653.64" y2="1354.62"/>
	</g>
	<g id="LINE_2201_">
		
			<line style="fill:none;stroke:#000000;stroke-width:1.3;stroke-linecap:round;stroke-linejoin:round;stroke-miterlimit:10;" x1="1645.16" y1="1369.89" x2="1645.16" y2="1354.62"/>
	</g>
	<g id="LINE_2200_">
		
			<line style="fill:none;stroke:#000000;stroke-width:1.3;stroke-linecap:round;stroke-linejoin:round;stroke-miterlimit:10;" x1="1390.69" y1="1369.89" x2="1390.69" y2="1354.62"/>
	</g>
	<g id="LINE_2199_">
		
			<line style="fill:none;stroke:#000000;stroke-width:1.3;stroke-linecap:round;stroke-linejoin:round;stroke-miterlimit:10;" x1="1382.21" y1="1369.89" x2="1486.57" y2="1369.89"/>
	</g>
	<g id="LINE_2198_">
		
			<line style="fill:none;stroke:#000000;stroke-width:1.3;stroke-linecap:round;stroke-linejoin:round;stroke-miterlimit:10;" x1="1498.44" y1="1369.89" x2="1653.64" y2="1369.89"/>
	</g>
	<g id="LINE_2191_">
		
			<line style="fill:none;stroke:#000000;stroke-width:1.3;stroke-linecap:round;stroke-linejoin:round;stroke-miterlimit:10;" x1="1498.44" y1="1362.68" x2="1635.66" y2="1362.68"/>
	</g>
	<g id="LINE_2190_">
		
			<line style="fill:none;stroke:#000000;stroke-width:1.3;stroke-linecap:round;stroke-linejoin:round;stroke-miterlimit:10;" x1="1400.19" y1="1362.68" x2="1486.57" y2="1362.68"/>
	</g>
	<g id="LINE_2189_">
		
			<line style="fill:none;stroke:#000000;stroke-width:1.3;stroke-linecap:round;stroke-linejoin:round;stroke-miterlimit:10;" x1="1400.19" y1="1354.62" x2="1400.19" y2="1369.89"/>
	</g>
	<g id="LINE_2188_">
		
			<line style="fill:none;stroke:#000000;stroke-width:1.3;stroke-linecap:round;stroke-linejoin:round;stroke-miterlimit:10;" x1="1645.16" y1="1369.89" x2="1645.16" y2="1354.62"/>
	</g>
	<g id="LINE_2187_">
		
			<line style="fill:none;stroke:#000000;stroke-width:1.3;stroke-linecap:round;stroke-linejoin:round;stroke-miterlimit:10;" x1="1635.66" y1="1354.62" x2="1635.66" y2="1369.89"/>
	</g>
	<g id="LINE_1992_">
		
			<line style="fill:none;stroke:#000000;stroke-width:1.3;stroke-linecap:round;stroke-linejoin:round;stroke-miterlimit:10;" x1="1486.54" y1="1354.62" x2="1498.42" y2="1354.62"/>
	</g>
	<g id="LINE_1991_">
		
			<line style="fill:none;stroke:#000000;stroke-width:1.3;stroke-linecap:round;stroke-linejoin:round;stroke-miterlimit:10;" x1="1498.42" y1="1369.89" x2="1486.54" y2="1369.89"/>
	</g>
	<g id="LINE_1990_">
		
			<line style="fill:none;stroke:#000000;stroke-width:1.3;stroke-linecap:round;stroke-linejoin:round;stroke-miterlimit:10;" x1="1382.19" y1="1335.96" x2="1653.62" y2="1335.96"/>
	</g>
	<g id="LWPOLYLINE_2708_">
		
			<rect x="1486.57" y="1354.62" style="fill:none;stroke:#000000;stroke-width:1.3;stroke-linecap:round;stroke-linejoin:round;stroke-miterlimit:10;" width="11.88" height="15.27"/>
	</g>
	<g id="LINE_1989_">
		
			<line style="fill:none;stroke:#000000;stroke-width:1.3;stroke-linecap:round;stroke-linejoin:round;stroke-miterlimit:10;" x1="1237.99" y1="1381.77" x2="983.52" y2="1381.77"/>
	</g>
	<g id="LINE_1988_">
		
			<line style="fill:none;stroke:#000000;stroke-width:1.3;stroke-linecap:round;stroke-linejoin:round;stroke-miterlimit:10;" x1="975.07" y1="1354.62" x2="1104.84" y2="1354.62"/>
	</g>
	<g id="LINE_1987_">
		
			<line style="fill:none;stroke:#000000;stroke-width:1.3;stroke-linecap:round;stroke-linejoin:round;stroke-miterlimit:10;" x1="1116.72" y1="1354.62" x2="1246.5" y2="1354.62"/>
	</g>
	<g id="LINE_1986_">
		
			<line style="fill:none;stroke:#000000;stroke-width:1.3;stroke-linecap:round;stroke-linejoin:round;stroke-miterlimit:10;" x1="1238.01" y1="1369.89" x2="1238.01" y2="1354.62"/>
	</g>
	<g id="LINE_1985_">
		
			<line style="fill:none;stroke:#000000;stroke-width:1.3;stroke-linecap:round;stroke-linejoin:round;stroke-miterlimit:10;" x1="983.55" y1="1369.89" x2="983.55" y2="1354.62"/>
	</g>
	<g id="LINE_1984_">
		
			<line style="fill:none;stroke:#000000;stroke-width:1.3;stroke-linecap:round;stroke-linejoin:round;stroke-miterlimit:10;" x1="975.07" y1="1369.89" x2="1104.84" y2="1369.89"/>
	</g>
	<g id="LINE_1983_">
		
			<line style="fill:none;stroke:#000000;stroke-width:1.3;stroke-linecap:round;stroke-linejoin:round;stroke-miterlimit:10;" x1="1116.72" y1="1369.89" x2="1246.5" y2="1369.89"/>
	</g>
	<g id="LINE_1982_">
		
			<line style="fill:none;stroke:#000000;stroke-width:1.3;stroke-linecap:round;stroke-linejoin:round;stroke-miterlimit:10;" x1="1116.72" y1="1362.68" x2="1228.51" y2="1362.68"/>
	</g>
	<g id="LINE_1981_">
		
			<line style="fill:none;stroke:#000000;stroke-width:1.3;stroke-linecap:round;stroke-linejoin:round;stroke-miterlimit:10;" x1="993.05" y1="1362.68" x2="1104.84" y2="1362.68"/>
	</g>
	<g id="LINE_1980_">
		
			<line style="fill:none;stroke:#000000;stroke-width:1.3;stroke-linecap:round;stroke-linejoin:round;stroke-miterlimit:10;" x1="993.05" y1="1354.62" x2="993.05" y2="1369.89"/>
	</g>
	<g id="LINE_1979_">
		
			<line style="fill:none;stroke:#000000;stroke-width:1.3;stroke-linecap:round;stroke-linejoin:round;stroke-miterlimit:10;" x1="1238.01" y1="1369.89" x2="1238.01" y2="1354.62"/>
	</g>
	<g id="LINE_1978_">
		
			<line style="fill:none;stroke:#000000;stroke-width:1.3;stroke-linecap:round;stroke-linejoin:round;stroke-miterlimit:10;" x1="1228.51" y1="1354.62" x2="1228.51" y2="1369.89"/>
	</g>
	<g id="LINE_1977_">
		
			<line style="fill:none;stroke:#000000;stroke-width:1.3;stroke-linecap:round;stroke-linejoin:round;stroke-miterlimit:10;" x1="1079.4" y1="1354.62" x2="1091.27" y2="1354.62"/>
	</g>
	<g id="LINE_1976_">
		
			<line style="fill:none;stroke:#000000;stroke-width:1.3;stroke-linecap:round;stroke-linejoin:round;stroke-miterlimit:10;" x1="1091.27" y1="1369.89" x2="1079.4" y2="1369.89"/>
	</g>
	<g id="LINE_1975_">
		
			<line style="fill:none;stroke:#000000;stroke-width:1.3;stroke-linecap:round;stroke-linejoin:round;stroke-miterlimit:10;" x1="975.04" y1="1335.96" x2="1246.47" y2="1335.96"/>
	</g>
	<g id="LWPOLYLINE_2707_">
		
			<rect x="1104.84" y="1354.62" style="fill:none;stroke:#000000;stroke-width:1.3;stroke-linecap:round;stroke-linejoin:round;stroke-miterlimit:10;" width="11.88" height="15.27"/>
	</g>
	<g id="LINE_1974_">
		
			<line style="fill:none;stroke:#000000;stroke-width:1.3;stroke-linecap:round;stroke-linejoin:round;stroke-miterlimit:10;" x1="576.37" y1="1381.77" x2="271.02" y2="1381.77"/>
	</g>
	<g id="LINE_1973_">
		
			<line style="fill:none;stroke:#000000;stroke-width:1.3;stroke-linecap:round;stroke-linejoin:round;stroke-miterlimit:10;" x1="262.56" y1="1354.62" x2="417.81" y2="1354.62"/>
	</g>
	<g id="LINE_1972_">
		
			<line style="fill:none;stroke:#000000;stroke-width:1.3;stroke-linecap:round;stroke-linejoin:round;stroke-miterlimit:10;" x1="429.68" y1="1354.62" x2="584.88" y2="1354.62"/>
	</g>
	<g id="LINE_1971_">
		
			<line style="fill:none;stroke:#000000;stroke-width:1.3;stroke-linecap:round;stroke-linejoin:round;stroke-miterlimit:10;" x1="576.4" y1="1369.89" x2="576.4" y2="1354.62"/>
	</g>
	<g id="LINE_1970_">
		
			<line style="fill:none;stroke:#000000;stroke-width:1.3;stroke-linecap:round;stroke-linejoin:round;stroke-miterlimit:10;" x1="271.04" y1="1369.89" x2="271.04" y2="1354.62"/>
	</g>
	<g id="LINE_1969_">
		
			<line style="fill:none;stroke:#000000;stroke-width:1.3;stroke-linecap:round;stroke-linejoin:round;stroke-miterlimit:10;" x1="262.56" y1="1369.89" x2="417.81" y2="1369.89"/>
	</g>
	<g id="LINE_1968_">
		
			<line style="fill:none;stroke:#000000;stroke-width:1.3;stroke-linecap:round;stroke-linejoin:round;stroke-miterlimit:10;" x1="429.68" y1="1369.89" x2="584.88" y2="1369.89"/>
	</g>
	<g id="LINE_1967_">
		
			<line style="fill:none;stroke:#000000;stroke-width:1.3;stroke-linecap:round;stroke-linejoin:round;stroke-miterlimit:10;" x1="429.68" y1="1362.68" x2="566.9" y2="1362.68"/>
	</g>
	<g id="LINE_1966_">
		
			<line style="fill:none;stroke:#000000;stroke-width:1.3;stroke-linecap:round;stroke-linejoin:round;stroke-miterlimit:10;" x1="280.54" y1="1362.68" x2="417.81" y2="1362.68"/>
	</g>
	<g id="LINE_1965_">
		
			<line style="fill:none;stroke:#000000;stroke-width:1.3;stroke-linecap:round;stroke-linejoin:round;stroke-miterlimit:10;" x1="280.54" y1="1354.62" x2="280.54" y2="1369.89"/>
	</g>
	<g id="LINE_1964_">
		
			<line style="fill:none;stroke:#000000;stroke-width:1.3;stroke-linecap:round;stroke-linejoin:round;stroke-miterlimit:10;" x1="576.4" y1="1369.89" x2="576.4" y2="1354.62"/>
	</g>
	<g id="LINE_1963_">
		
			<line style="fill:none;stroke:#000000;stroke-width:1.3;stroke-linecap:round;stroke-linejoin:round;stroke-miterlimit:10;" x1="566.9" y1="1354.62" x2="566.9" y2="1369.89"/>
	</g>
	<g id="LINE_1962_">
		
			<line style="fill:none;stroke:#000000;stroke-width:1.3;stroke-linecap:round;stroke-linejoin:round;stroke-miterlimit:10;" x1="417.78" y1="1354.62" x2="429.66" y2="1354.62"/>
	</g>
	<g id="LINE_1961_">
		
			<line style="fill:none;stroke:#000000;stroke-width:1.3;stroke-linecap:round;stroke-linejoin:round;stroke-miterlimit:10;" x1="429.66" y1="1369.89" x2="417.78" y2="1369.89"/>
	</g>
	<g id="LINE_1960_">
		
			<line style="fill:none;stroke:#000000;stroke-width:1.3;stroke-linecap:round;stroke-linejoin:round;stroke-miterlimit:10;" x1="262.53" y1="1335.96" x2="584.86" y2="1335.96"/>
	</g>
	<g id="LWPOLYLINE_2706_">
		
			<rect x="417.81" y="1354.62" style="fill:none;stroke:#000000;stroke-width:1.3;stroke-linecap:round;stroke-linejoin:round;stroke-miterlimit:10;" width="11.88" height="15.27"/>
	</g>
	<g id="LINE_2502_">
		<g>
			<g>
				
					<line style="fill:none;stroke:#000000;stroke-width:1.3;stroke-linecap:round;stroke-linejoin:round;" x1="561.83" y1="1335.96" x2="561.83" y2="1330.96"/>
				
					<line style="fill:none;stroke:#000000;stroke-width:1.3;stroke-linecap:round;stroke-linejoin:round;stroke-dasharray:10.1172,10.1172;" x1="561.83" y1="1320.84" x2="561.83" y2="597.46"/>
				
					<line style="fill:none;stroke:#000000;stroke-width:1.3;stroke-linecap:round;stroke-linejoin:round;" x1="561.83" y1="592.41" x2="561.83" y2="587.41"/>
			</g>
		</g>
	</g>
	<g>
		<g>
			
				<line style="fill:none;stroke:#000000;stroke-width:1.3;stroke-linecap:round;stroke-linejoin:round;" x1="1069.53" y1="581.47" x2="1064.53" y2="581.47"/>
			
				<line style="fill:none;stroke:#000000;stroke-width:1.3;stroke-linecap:round;stroke-linejoin:round;stroke-dasharray:10.3888,10.3888;" x1="1054.14" y1="581.47" x2="893.12" y2="581.47"/>
			
				<line style="fill:none;stroke:#000000;stroke-width:1.3;stroke-linecap:round;stroke-linejoin:round;" x1="887.92" y1="581.47" x2="882.92" y2="581.47"/>
		</g>
	</g>
	<g id="LWPOLYLINE_2696_">
		
			<rect x="133.6" y="631.85" style="fill:none;stroke:#000000;stroke-width:1.3;stroke-linecap:round;stroke-linejoin:round;stroke-miterlimit:10;" width="99.96" height="99.96"/>
	</g>
	<g id="LWPOLYLINE_2695_">
		
			<line style="fill:none;stroke:#000000;stroke-width:1.3;stroke-linecap:round;stroke-linejoin:round;stroke-miterlimit:10;" x1="175.26" y1="706.82" x2="141.94" y2="706.82"/>
	</g>
	<g id="LWPOLYLINE_2694_">
		
			<line style="fill:none;stroke:#000000;stroke-width:1.3;stroke-linecap:round;stroke-linejoin:round;stroke-miterlimit:10;" x1="158.6" y1="690.16" x2="158.6" y2="723.48"/>
	</g>
	<g id="CIRCLE_203_">
		
			<circle style="fill:none;stroke:#000000;stroke-width:1.3;stroke-linecap:round;stroke-linejoin:round;stroke-miterlimit:10;" cx="158.6" cy="706.82" r="13.33"/>
	</g>
	<g id="LWPOLYLINE_2693_">
		
			<line style="fill:none;stroke:#000000;stroke-width:1.3;stroke-linecap:round;stroke-linejoin:round;stroke-miterlimit:10;" x1="225.24" y1="706.82" x2="191.92" y2="706.82"/>
	</g>
	<g id="LWPOLYLINE_2692_">
		
			<line style="fill:none;stroke:#000000;stroke-width:1.3;stroke-linecap:round;stroke-linejoin:round;stroke-miterlimit:10;" x1="208.58" y1="690.16" x2="208.58" y2="723.48"/>
	</g>
	<g id="CIRCLE_202_">
		
			<circle style="fill:none;stroke:#000000;stroke-width:1.3;stroke-linecap:round;stroke-linejoin:round;stroke-miterlimit:10;" cx="208.58" cy="706.82" r="13.33"/>
	</g>
	<g id="LWPOLYLINE_2691_">
		
			<line style="fill:none;stroke:#000000;stroke-width:1.3;stroke-linecap:round;stroke-linejoin:round;stroke-miterlimit:10;" x1="225.24" y1="656.84" x2="191.92" y2="656.84"/>
	</g>
	<g id="LWPOLYLINE_2690_">
		
			<line style="fill:none;stroke:#000000;stroke-width:1.3;stroke-linecap:round;stroke-linejoin:round;stroke-miterlimit:10;" x1="208.58" y1="640.18" x2="208.58" y2="673.5"/>
	</g>
	<g id="CIRCLE_201_">
		
			<circle style="fill:none;stroke:#000000;stroke-width:1.3;stroke-linecap:round;stroke-linejoin:round;stroke-miterlimit:10;" cx="208.58" cy="656.83" r="13.33"/>
	</g>
	<g id="LWPOLYLINE_2689_">
		
			<line style="fill:none;stroke:#000000;stroke-width:1.3;stroke-linecap:round;stroke-linejoin:round;stroke-miterlimit:10;" x1="175.26" y1="656.84" x2="141.94" y2="656.84"/>
	</g>
	<g id="LWPOLYLINE_2688_">
		
			<line style="fill:none;stroke:#000000;stroke-width:1.3;stroke-linecap:round;stroke-linejoin:round;stroke-miterlimit:10;" x1="158.6" y1="640.18" x2="158.6" y2="673.5"/>
	</g>
	<g id="CIRCLE_200_">
		
			<circle style="fill:none;stroke:#000000;stroke-width:1.3;stroke-linecap:round;stroke-linejoin:round;stroke-miterlimit:10;" cx="158.6" cy="656.84" r="13.33"/>
	</g>
	<g id="LWPOLYLINE_2684_">
		
			<rect x="455.88" y="275.6" style="fill:none;stroke:#000000;stroke-width:1.3;stroke-linecap:round;stroke-linejoin:round;stroke-miterlimit:10;" width="99.96" height="99.96"/>
	</g>
	<g id="LWPOLYLINE_2683_">
		<path style="fill:none;stroke:#000000;stroke-width:1.3;stroke-linecap:round;stroke-linejoin:round;stroke-miterlimit:10;" d="
			M464.21,361.4l0-63.27c0,0,0,0,0,0c0-3.22,2.61-5.83,5.83-5.83l71.64,0c0,0,0,0,0,0c3.22,0,5.83,2.61,5.83,5.83v63.27c0,0,0,0,0,0
			c0,3.22-2.61,5.83-5.83,5.83h-71.64C466.82,367.23,464.21,364.62,464.21,361.4z"/>
	</g>
	<g id="LWPOLYLINE_2682_">
		<path style="fill:none;stroke:#000000;stroke-width:1.3;stroke-linecap:round;stroke-linejoin:round;stroke-miterlimit:10;" d="
			M489.2,314.35C489.2,314.35,489.2,314.35,489.2,314.35c-3.23,0-5.85-2.62-5.84-5.84c0,0,0,0,0,0c0-3.23,2.62-5.84,5.84-5.84
			c0,0,0,0,0,0c3.23,0,5.84,2.62,5.84,5.84c0,0,0,0,0,0C495.05,311.73,492.43,314.35,489.2,314.35z"/>
	</g>
	<g id="LWPOLYLINE_2640_">
		
			<polyline style="fill:none;stroke:#000000;stroke-width:1.3;stroke-linecap:round;stroke-linejoin:round;stroke-miterlimit:10;" points="
			568.06,428.01 602.14,428.01 602.14,282.39 		"/>
	</g>
	<g id="LWPOLYLINE_2639_">
		
			<line style="fill:none;stroke:#000000;stroke-width:1.3;stroke-linecap:round;stroke-linejoin:round;stroke-miterlimit:10;" x1="568.06" y1="436.34" x2="610.47" y2="436.34"/>
	</g>
	<g id="LWPOLYLINE_2638_">
		
			<line style="fill:none;stroke:#000000;stroke-width:1.3;stroke-linecap:round;stroke-linejoin:round;stroke-miterlimit:10;" x1="610.47" y1="436.34" x2="610.47" y2="282.39"/>
	</g>
	<g id="LWPOLYLINE_2626_">
		
			<rect x="571.04" y="313.38" style="fill:none;stroke:#000000;stroke-width:1.3;stroke-linecap:round;stroke-linejoin:round;stroke-miterlimit:10;" width="28.46" height="82.04"/>
	</g>
	<g id="LWPOLYLINE_2625_">
		
			<polyline style="fill:none;stroke:#000000;stroke-width:1.3;stroke-linecap:round;stroke-linejoin:round;stroke-miterlimit:10;" points="
			599.5,313.38 592.32,378.95 571.04,395.41 		"/>
	</g>
	<g id="LWPOLYLINE_2624_">
		
			<line style="fill:none;stroke:#000000;stroke-width:1.3;stroke-linecap:round;stroke-linejoin:round;stroke-miterlimit:10;" x1="568.06" y1="394.56" x2="568.06" y2="556.49"/>
	</g>
	<g id="LWPOLYLINE_2623_">
		
			<line style="fill:none;stroke:#000000;stroke-width:1.3;stroke-linecap:round;stroke-linejoin:round;stroke-miterlimit:10;" x1="568.06" y1="572.22" x2="847.64" y2="572.61"/>
	</g>
	<g id="CIRCLE_199_">
		
			<circle style="fill:none;stroke:#000000;stroke-width:1.3;stroke-linecap:round;stroke-linejoin:round;stroke-miterlimit:10;" cx="590.56" cy="549.72" r="6"/>
	</g>
	<g id="LWPOLYLINE_2622_">
		<path style="fill:none;stroke:#000000;stroke-width:1.3;stroke-linecap:round;stroke-linejoin:round;stroke-miterlimit:10;" d="
			M665.57,444.71C665.57,444.71,665.57,444.71,665.57,444.71c16.57,0,30,13.43,30,30v78.76c0,6.21-5.04,11.25-11.25,11.25h-97.51
			c-6.21,0-11.25-5.04-11.25-11.25v-97.51c0-6.21,5.04-11.25,11.25-11.25H665.57z"/>
	</g>
	<g id="LWPOLYLINE_2621_">
		<path style="fill:none;stroke:#000000;stroke-width:1.3;stroke-linecap:round;stroke-linejoin:round;stroke-miterlimit:10;" d="
			M568.06,437.21l97.51,0c0,0,0,0,0,0c20.71,0,37.5,16.79,37.5,37.5v97.51l-135.01,0L568.06,437.21h97.51c0,0,0,0,0,0
			c20.71,0,37.5,16.79,37.5,37.5v97.51"/>
	</g>
	<g id="LWPOLYLINE_2620_">
		
			<line style="fill:none;stroke:#000000;stroke-width:1.3;stroke-linecap:round;stroke-linejoin:round;stroke-miterlimit:10;" x1="633.52" y1="380.98" x2="633.52" y2="335.98"/>
	</g>
	<g id="LWPOLYLINE_2619_">
		<path style="fill:none;stroke:#000000;stroke-width:1.3;stroke-linecap:round;stroke-linejoin:round;stroke-miterlimit:10;" d="
			M641.02,332.43h31.51c16.57,0,30,13.43,30,30c0,16.57-13.43,30-30,30h-31.51c-4.14,0-7.5-3.36-7.5-7.5v-45.01c0,0,0,0,0-0.01
			C633.52,335.79,636.88,332.43,641.02,332.43z"/>
	</g>
	<g id="LWPOLYLINE_2618_">
		<path style="fill:none;stroke:#000000;stroke-width:1.3;stroke-linecap:round;stroke-linejoin:round;stroke-miterlimit:10;" d="
			M672.52,386.44H662c-13.25,0-24-10.75-24-24c0-13.26,10.74-24,24-24.01h10.52c13.25,0,24,10.75,24,24
			C696.52,375.69,685.78,386.44,672.52,386.44z"/>
	</g>
	<g id="LWPOLYLINE_2617_">
		<path style="fill:none;stroke:#000000;stroke-width:1.3;stroke-linecap:round;stroke-linejoin:round;stroke-miterlimit:10;" d="
			M662.87,371.44h-10.52c0,0,0,0,0,0c-4.97,0-9-4.03-9-9s4.03-9,9-9h10.52c4.97,0,9,4.03,9,9
			C671.86,367.41,667.84,371.44,662.87,371.44z"/>
	</g>
	<g id="LWPOLYLINE_2616_">
		
			<rect x="610.47" y="314.6" style="fill:none;stroke:#000000;stroke-width:1.3;stroke-linecap:round;stroke-linejoin:round;stroke-miterlimit:10;" width="23.04" height="95.66"/>
	</g>
	<g id="LWPOLYLINE_2615_">
		
			<line style="fill:none;stroke:#000000;stroke-width:1.3;stroke-linecap:round;stroke-linejoin:round;stroke-miterlimit:10;" x1="832.92" y1="572.22" x2="733.91" y2="572.22"/>
	</g>
	<g id="LWPOLYLINE_2614_">
		<path style="fill:none;stroke:#000000;stroke-width:1.3;stroke-linecap:round;stroke-linejoin:round;stroke-miterlimit:10;" d="
			M733.91,572.22l0-50.86c0-7.16,4.62-13.51,11.44-15.71c24.75-7.97,51.37-7.97,76.12,0c6.82,2.2,11.44,8.54,11.44,15.71v50.86"/>
	</g>
	<g id="LWPOLYLINE_2613_">
		<path style="fill:none;stroke:#000000;stroke-width:1.3;stroke-linecap:round;stroke-linejoin:round;stroke-miterlimit:10;" d="
			M809.82,557.99c5.47,0,9.9-4.43,9.9-9.9v-15.85c0-3.63-2.37-6.83-5.83-7.89c-19.86-6.08-41.08-6.08-60.94,0
			c-3.47,1.06-5.83,4.26-5.83,7.89v15.85c0,5.47,4.43,9.9,9.9,9.9"/>
	</g>
	<g id="LWPOLYLINE_2612_">
		<path style="fill:none;stroke:#000000;stroke-width:1.3;stroke-linecap:round;stroke-linejoin:round;stroke-miterlimit:10;" d="
			M740.51,548.09l0-26.72c0-4.3,2.77-8.11,6.86-9.43c23.43-7.55,48.65-7.55,72.08,0c4.09,1.32,6.86,5.13,6.87,9.42v26.73
			c0,5.47-4.43,9.9-9.9,9.9h-66.01C744.94,557.99,740.51,553.55,740.51,548.09z"/>
	</g>
	<g id="LWPOLYLINE_2611_">
		<path style="fill:none;stroke:#000000;stroke-width:1.3;stroke-linecap:round;stroke-linejoin:round;stroke-miterlimit:10;" d="
			M783.42,555.04c-2.45,0-4.44-1.99-4.45-4.44c0-2.45,1.99-4.44,4.45-4.44c0,0,0,0,0,0c2.45,0,4.44,1.99,4.44,4.44c0,0,0,0,0,0
			C787.86,553.05,785.87,555.04,783.42,555.04z"/>
	</g>
	<g id="LWPOLYLINE_2521_">
		
			<line style="fill:none;stroke:#000000;stroke-width:1.3;stroke-linecap:round;stroke-linejoin:round;stroke-miterlimit:10;" x1="1662.01" y1="290.62" x2="1302.54" y2="290.62"/>
	</g>
	<g id="LWPOLYLINE_2520_">
		
			<line style="fill:none;stroke:#000000;stroke-width:1.3;stroke-linecap:round;stroke-linejoin:round;stroke-miterlimit:10;" x1="1662.01" y1="282.39" x2="1662.01" y2="578.92"/>
	</g>
	<g id="LWPOLYLINE_2519_">
		
			<line style="fill:none;stroke:#000000;stroke-width:1.3;stroke-linecap:round;stroke-linejoin:round;stroke-miterlimit:10;" x1="1670.35" y1="578.92" x2="1670.35" y2="455.28"/>
	</g>
	<g id="LWPOLYLINE_2518_">
		
			<line style="fill:none;stroke:#000000;stroke-width:1.3;stroke-linecap:round;stroke-linejoin:round;stroke-miterlimit:10;" x1="1662.01" y1="446.94" x2="1728.26" y2="446.94"/>
	</g>
	<g id="LWPOLYLINE_2517_">
		
			<line style="fill:none;stroke:#000000;stroke-width:1.3;stroke-linecap:round;stroke-linejoin:round;stroke-miterlimit:10;" x1="1670.35" y1="455.28" x2="1728.26" y2="455.28"/>
	</g>
	<g id="LWPOLYLINE_2516_">
		
			<rect x="1688.65" y="482.74" style="fill:none;stroke:#000000;stroke-width:1.3;stroke-linecap:round;stroke-linejoin:round;stroke-miterlimit:10;" width="22.98" height="69.72"/>
	</g>
	<g id="LWPOLYLINE_2515_">
		
			<polyline style="fill:none;stroke:#000000;stroke-width:1.3;stroke-linecap:round;stroke-linejoin:round;stroke-miterlimit:10;" points="
			1711.63,482.74 1694.42,488.06 1688.65,552.45 		"/>
	</g>
	<g id="LWPOLYLINE_2514_">
		
			<line style="fill:none;stroke:#000000;stroke-width:1.3;stroke-linecap:round;stroke-linejoin:round;stroke-miterlimit:10;" x1="1639.03" y1="500.98" x2="1639.03" y2="545.99"/>
	</g>
	<g id="LWPOLYLINE_2513_">
		<path style="fill:none;stroke:#000000;stroke-width:1.3;stroke-linecap:round;stroke-linejoin:round;stroke-miterlimit:10;" d="
			M1631.53,549.53h-31.51c-16.57,0-30-13.43-30-30c0-16.57,13.43-30,30-30h31.51c4.14,0,7.5,3.36,7.5,7.5v45.01c0,0,0,0,0,0.01
			C1639.02,546.18,1635.67,549.53,1631.53,549.53z"/>
	</g>
	<g id="LWPOLYLINE_2512_">
		<path style="fill:none;stroke:#000000;stroke-width:1.3;stroke-linecap:round;stroke-linejoin:round;stroke-miterlimit:10;" d="
			M1600.02,495.53h10.52c13.25,0,24,10.75,24,24c0,13.26-10.74,24-24,24.01h-10.52c-13.25,0-24-10.75-24-24
			C1576.02,506.28,1586.77,495.53,1600.02,495.53z"/>
	</g>
	<g id="LWPOLYLINE_2511_">
		<path style="fill:none;stroke:#000000;stroke-width:1.3;stroke-linecap:round;stroke-linejoin:round;stroke-miterlimit:10;" d="
			M1609.68,510.53h10.52c0,0,0,0,0,0c4.97,0,9,4.03,9,9s-4.03,9-9,9h-10.52c-4.97,0-9-4.03-9-9
			C1600.68,514.56,1604.71,510.53,1609.68,510.53z"/>
	</g>
	<g id="LWPOLYLINE_2510_">
		
			<rect x="1639.03" y="471.7" style="fill:none;stroke:#000000;stroke-width:1.3;stroke-linecap:round;stroke-linejoin:round;stroke-miterlimit:10;" width="23.04" height="95.66"/>
	</g>
	<g id="LWPOLYLINE_2509_">
		
			<line style="fill:none;stroke:#000000;stroke-width:1.3;stroke-linecap:round;stroke-linejoin:round;stroke-miterlimit:10;" x1="1428" y1="290.61" x2="1527.01" y2="290.61"/>
	</g>
	<g id="LWPOLYLINE_2508_">
		<path style="fill:none;stroke:#000000;stroke-width:1.3;stroke-linecap:round;stroke-linejoin:round;stroke-miterlimit:10;" d="
			M1527.01,290.61l0,50.86c0,7.16-4.62,13.51-11.44,15.71c-24.75,7.97-51.37,7.97-76.12,0c-6.82-2.2-11.44-8.54-11.44-15.71v-50.86"
			/>
	</g>
	<g id="LWPOLYLINE_2507_">
		<path style="fill:none;stroke:#000000;stroke-width:1.3;stroke-linecap:round;stroke-linejoin:round;stroke-miterlimit:10;" d="
			M1451.1,304.84c-5.47,0-9.9,4.43-9.9,9.9v15.85c0,3.63,2.37,6.83,5.83,7.89c19.86,6.08,41.08,6.08,60.94,0
			c3.47-1.06,5.83-4.26,5.83-7.89v-15.85c0-5.47-4.43-9.9-9.9-9.9"/>
	</g>
	<g id="LWPOLYLINE_2506_">
		<path style="fill:none;stroke:#000000;stroke-width:1.3;stroke-linecap:round;stroke-linejoin:round;stroke-miterlimit:10;" d="
			M1520.41,314.74l0,26.72c0,4.3-2.77,8.11-6.86,9.43c-23.43,7.55-48.65,7.55-72.08,0c-4.09-1.32-6.86-5.13-6.87-9.42v-26.73
			c0-5.47,4.43-9.9,9.9-9.9h66.01C1515.98,304.84,1520.41,309.28,1520.41,314.74z"/>
	</g>
	<g id="LWPOLYLINE_2505_">
		<path style="fill:none;stroke:#000000;stroke-width:1.3;stroke-linecap:round;stroke-linejoin:round;stroke-miterlimit:10;" d="
			M1477.5,307.79c2.45,0,4.44,1.99,4.45,4.44c0,2.45-1.99,4.44-4.45,4.44c0,0,0,0,0,0c-2.45,0-4.44-1.99-4.44-4.44c0,0,0,0,0,0
			C1473.06,309.78,1475.05,307.79,1477.5,307.79z"/>
	</g>
	<g id="LWPOLYLINE_2504_">
		
			<rect x="1302.54" y="290.62" style="fill:none;stroke:#000000;stroke-width:1.3;stroke-linecap:round;stroke-linejoin:round;stroke-miterlimit:10;" width="118.72" height="288.31"/>
	</g>
	<g id="LWPOLYLINE_2503_">
		<path style="fill:none;stroke:#000000;stroke-width:1.3;stroke-linecap:round;stroke-linejoin:round;stroke-miterlimit:10;" d="
			M1312.04,538.91V350.68c0-27.53,22.32-49.85,49.86-49.86c27.54,0,49.86,22.32,49.86,49.86v188.23c0,13.16-10.58,23.87-23.74,24.03
			h-52.23c-13.11,0-23.74-10.63-23.74-23.74"/>
	</g>
	<g id="SPLINE_12_">
		<path style="fill:none;stroke:#000000;stroke-width:1.3;stroke-linecap:round;stroke-linejoin:round;stroke-miterlimit:10;" d="
			M1312.04,539.19c0-0.09,0-0.19,0-0.28"/>
	</g>
	<g id="LWPOLYLINE_2502_">
		<path style="fill:none;stroke:#000000;stroke-width:1.3;stroke-linecap:round;stroke-linejoin:round;stroke-miterlimit:10;" d="
			M1325.6,479.63V350.68c0,0,0,0,0,0c0-20.04,16.25-36.29,36.3-36.29s36.29,16.25,36.29,36.3v127.08
			c-0.01,19.31-15.14,35.23-34.42,36.24C1343.74,515.05,1326.65,499.66,1325.6,479.63z"/>
	</g>
	<g id="LWPOLYLINE_2496_">
		
			<line style="fill:none;stroke:#000000;stroke-width:1.3;stroke-linecap:round;stroke-linejoin:round;stroke-miterlimit:10;" x1="1361.9" y1="514.05" x2="1361.85" y2="514.05"/>
	</g>
	<g id="LWPOLYLINE_2495_">
		<path style="fill:none;stroke:#000000;stroke-width:1.3;stroke-linecap:round;stroke-linejoin:round;stroke-miterlimit:10;" d="
			M1361.9,344.03c3.67,0,6.64,2.98,6.64,6.64c0,0,0,0,0,0.01c0,3.67-2.98,6.64-6.64,6.64c0,0,0,0-0.01,0
			c-3.67,0-6.64-2.98-6.64-6.64C1355.25,347.01,1358.23,344.03,1361.9,344.03z"/>
	</g>
	<g id="LWPOLYLINE_2494_">
		<path style="fill:none;stroke:#000000;stroke-width:1.3;stroke-linecap:round;stroke-linejoin:round;stroke-miterlimit:10;" d="
			M1325.6,350.68C1325.6,350.68,1325.6,350.67,1325.6,350.68c0-20.05,16.25-36.29,36.29-36.29c0,0,0,0,0,0
			c20.04,0,36.29,16.25,36.29,36.29"/>
	</g>
	<g id="LWPOLYLINE_2493_">
		
			<rect x="1582.05" y="294.43" style="fill:none;stroke:#000000;stroke-width:1.3;stroke-linecap:round;stroke-linejoin:round;stroke-miterlimit:10;" width="79.97" height="100.01"/>
	</g>
	<g id="LWPOLYLINE_2492_">
		
			<polyline style="fill:none;stroke:#000000;stroke-width:1.3;stroke-linecap:round;stroke-linejoin:round;stroke-miterlimit:10;" points="
			1647.9,310.16 1608.13,344.44 1635.13,344.44 1595.36,378.71 		"/>
	</g>
	<g id="LWPOLYLINE_2491_">
		<path style="fill:none;stroke:#000000;stroke-width:1.3;stroke-linecap:round;stroke-linejoin:round;stroke-miterlimit:10;" d="
			M1651.63,344.44c0,16.57-13.43,30-30,30c-16.57,0-30-13.43-30.01-30c0-16.57,13.44-30.01,30.01-30.01
			C1638.2,314.43,1651.63,327.87,1651.63,344.44z"/>
	</g>
	<g id="LINE_1278_">
		
			<line style="fill:none;stroke:#000000;stroke-width:1.3;stroke-linecap:round;stroke-linejoin:round;stroke-miterlimit:10;" x1="610.47" y1="300.96" x2="852.55" y2="300.96"/>
	</g>
	<g>
		<polygon points="867.74,587.41 882.92,587.41 882.92,575.53 867.74,575.53 867.74,527.18 852.55,527.18 852.55,572.22 
			568.06,572.22 568.06,275.6 601.88,275.6 601.88,282.39 830.84,282.39 830.9,282.39 852.55,282.39 852.55,391.47 867.74,391.47 
			867.74,282.39 897.17,282.39 897.17,248.46 830.9,248.46 830.84,248.46 601.88,248.46 133.6,248.46 99.68,248.46 99.68,278.99 
			99.68,1298.64 99.68,1335.96 99.68,1369.89 99.68,1381.77 271.02,1381.77 271.02,1369.89 262.53,1369.89 262.53,1335.96 
			238.78,1335.96 238.78,1298.64 133.6,1298.64 133.6,278.99 133.6,275.6 556.1,275.6 556.1,587.41 568.06,587.41 852.55,587.41 		
			"/>
		<polygon points="1765.58,1335.96 1765.58,248.46 1735.33,248.46 1728.28,248.46 1402.54,248.46 1402.54,248.46 1148.08,248.46 
			1071.91,248.46 1071.91,282.39 1148.08,282.39 1148.08,282.39 1270.22,282.39 1270.22,575.53 1069.53,575.53 1069.53,587.41 
			1270.22,587.41 1270.22,614.04 1282.1,614.04 1282.1,594.11 1429.77,594.11 1429.77,578.92 1282.1,578.92 1282.1,282.39 
			1402.54,282.39 1402.54,282.39 1728.28,282.39 1728.28,578.92 1565.49,578.92 1565.49,594.11 1728.28,594.11 1728.28,1335.96 
			1653.62,1335.96 1653.64,1369.89 1645.16,1369.89 1645.16,1381.77 1899.68,1381.77 1899.68,1369.89 1899.68,1335.96 		"/>
		<polygon points="1382.19,1335.96 1282.1,1335.96 1282.1,766.72 1270.22,766.72 1270.22,1335.96 1246.47,1335.96 1246.5,1369.89 
			1238.01,1369.89 1238.01,1381.77 1390.67,1381.77 1390.67,1369.89 1382.19,1369.89 		"/>
		<polygon points="975.04,1335.96 934.33,1335.96 934.33,1295.25 628.97,1295.25 628.97,1335.96 584.84,1335.96 584.87,1369.89 
			576.38,1369.89 576.38,1381.77 983.52,1381.77 983.52,1369.89 975.04,1369.89 		"/>
	</g>
</g>
</svg>
